<?xml version = "1.0" encoding = "utf-8"?>
<!DOCTYPE svg PUBLIC "-//W3C//DTD SVG 1.1//EN" "http://www.w3.org/Graphics/SVG/1.1/DTD/svg11.dtd">
<svg version="1.1" id="Слой_4" xmlns="http://www.w3.org/2000/svg" xmlns:xlink="http://www.w3.org/1999/xlink" x="0px" y="0px" viewBox="0 0 530 345" enable-background="new 0 0 530 345" xml:space="preserve">
<g>
    <path d="M526.4,152.3c-0.2-5.1,2.4-19.2,1.7-23.6c-0.5-2.7-5.4-5.9-11.1-10.7c-11.9-10.1-25.3-22.8-33.8-26
		c-2.8-1.1-11.7,3.6-20.8,7.4c-9.1,3.8-13.4,7.6-13.2,15.9c0.1,5.5,2.8,5,4.6,7.3c1.8,2.3,1.5,4.6,0,7.9c-1.5,3.3-11,6-15.9,9.4
		c-5,3.5-6.2,8.8-11.8,7.9c-3.5-0.5-9.3-5-13.7-1.6c-4.4,3.4,7.8,12.4-3,20.4c-8,6-13.3-21.3-31.1-33.7c-7.9-5.5-11.6-2.5-19.1-0.7
		c-6,1.4-8.6-2.5-15.5,1.2c-8.9,4.7,4.9,12.7-2,16.1c-8.3,4.2-14.2,3.4-28.4-2.7c-8.9-3.8-20.2,3.4-30.2,4.2
		c-10.1,0.7-2.1-10.3-5.1-15.1c-3-4.8-6,0.6-6.6-6.5c-0.6-7,3.3-22.1-4.5-31.4c-5.5-6.5-15.5-4.6-24.4-4.1
		c-7.5,0.4-11.3-17.2-28.6-16.2c-11,0.6-14.8,22.2-25.3,28.3c-6.4,3.8-14.8-0.5-25.7,1.9c-8.7,1.9-11.4,6.2-15.6,9.1
		s-15.3,0.6-28.3,10.5c-12.9,9.8-1.8,17.6-11,20.7c-7.5,2.6-33-5.9-36.5-3.2c-4.9,3.8,1.5,17.7-7.2,20.6c-4.1,1.3-7.5-3.1-12.9-6.1
		c-4.5-2.6-8.1,0.8-12.6-1.1s-1.9-17.1-7.4-16.9c-4,0.1-3.3,12.1-4.9,16.4c-2.1,5.6-6.9,5.6-10.4,8.7c-4.7,4.1,1.6,17.7-3.7,23.6
		c-3.1,3.5-12.1,6.8-10.4,16.8c1.1,6.5,12,2.5,17.8,14c2.7,5.3-1.8,37.7-1.8,42.3c0,4.6,2,9,2.3,15.3c0.1,3.1-1.2,25.1-1.4,35.6
		c0,2.3,5,0.4,6.2,1.7c3.4,3.7,14.1,10.3,20.2,14.8c5.8,4.3,16.8,13.2,22.7,13.2c5.6,0,15.7-9.5,18.2-14.2
		c3.1-5.6,10.6-12.1,13.9-14c6.2-3.6,19.7-0.7,27.2-0.3c9.8,0.4,24.9-2.1,30.1-2.6c9.8-1,7.6,2.4,10.9,3.6
		c3.4,1.2,16.8-14.3,24.1-19.5c8.4-6,13.2-6.6,18.5-12.2c3.5-3.8,4.1-6.2,9.3-10.8c5.3-4.5,17-9.7,23-15.1
		c3.9-3.5,6.2-10.4,12.5-13.1c5.5-2.3,15.4,1.2,20.6,1.3c2.7,0,8.9-0.9,11.6-1c3.1-0.2,10.2,1.1,13.3,1.1c3.9,0,10.2-1,14-1.2
		c3.8-0.3,12.4,2.2,19.7,2.2c5.4,0,11.3-3.3,16.6-3.3c8,0,30.6,6.2,43.3,3.9c8.1-1.5,19-15.2,22.7-18.3c5.2-4.3,13.8-4.7,19.8-10.9
		c3.2-3.4,1-4.5,5.3-7.7c4.3-3.3,16.6-0.9,25.6-0.2c6,0.5,18.2,1.1,21.7-0.7c8.8-4.6,18.3-14.7,21.6-18.3c3.3-3.6,14.2-13.2,16.4-18
		S526.5,157.4,526.4,152.3z"/>
    <path d="M414.6,81.8c5.2,1.3,5.6-6.1,9.4-8.8s4.6-0.6,7.9-3.9s8.4-7.2,7.5-10.9s-3.4-4.4-0.5-5.9s11.2-2.1,18.4-1.4
		c5.2,0.5,12-5.9,10.5-11.1s0.8-7.5-3.5-5.9s-7.9,6.5-9.6,6.1s-4.4-2.5-6.6-1.2s-3.1,3.1-5.7,3.2s-3.2-0.9-4.7,1.9s2,6.6-1,6
		s-6.1-6-12-3s-2.8,3.5-7,4.9c-3.2,1.1-9.5-4.5-11.4-2s4.3,4.4,2.2,6.1c-5,4.1-8.8-1.6-12.4,0.9s-6.5,12.9-1.6,19
		C398.1,80.4,405.2,79.5,414.6,81.8z"/>
    <path d="M440.1,96.5c6.9,0.1,19.6-5.3,20.2-7.4c1.2-3.9-4.8-6.8-8.6-7.4s-10.2,1.8-14.5,2.8s-1.8-5.2-6.4-4.5
		c-2.2,0.3-2.8,0.9-6.1,6.5s6.8,2.6,10.4,2.1S434,96.4,440.1,96.5z"/>
    <path d="M189.5,72.4c1.1,8.1,8,0.5,13.6-1.1c6.4-1.8,13.8,0.2,18.4-6.1c3.2-4.4,4.4-5.4,1.9-8.3s-4-1.3-8.3-5.7
		c-3.2-3.3-3.9-11.2-10.1-7c-6.4,4.4-4.5,10.6-5.4,15.1C198,67.8,188.9,68.3,189.5,72.4z"/>
    <path d="M166.5,40.5c3.4,2.5-1.1,4.8,0.4,10.2s8.1,3.4,10.4,4.2c4,1.5,6.9,4,12.2,3.3c7.8-1.1,4.2-14.1,5.9-21.6
		c1.8-8-7.4-5-10.1-8.9s1.7-6.3,2.3-9.6c1.2-6.1-6.7-16.6-10.2-16.6c-2.2,0-2.8,2.4-3.2,5.8s-7.2,0.9-11.2,12.2
		c-1.6,4.7-6,6.6-3.8,14.1C159.8,36,163.1,38,166.5,40.5z"/>
</g>
</svg>