<svg xmlns="http://www.w3.org/2000/svg" viewBox="0 0 234.5 293.9" enable-background="new 0 0 234.5 293.9"><path d="M136.9 13.4c.3 2.2.3 4.3.1 5.4-3.4 8.7-5.8 21.9-5.8 32 0 10.1 0 20.5 8.6 27.6 2.8 2.4 5.3 3.9 7.5 5.3 2.6 1.7 4.4 2.8 6.4 5 5.7 6.2 7.2 7.8 12.5 11.9 4.2 3.3 7.5 5 10.2 6.3 2.4 1.2 3.9 2 6 3.9 2.2 1.9 3.7 3.5 5.3 5.1 2.8 2.8 5.7 5.7 11.1 10.1 4 3.2 9.5 6.2 14.8 9 1.1.6 2.4 1.3 3.7 2-1.3.9-2.6 1.8-3.6 2.5-3.8 2.5-6.9 4.1-9.7 5.5-4.8 2.4-9.9 5-13.6 10.6-6 9-5.6 18.1-5.2 26.1.1 1.3.1 2.7.2 4.1.2 8.7 1.5 14.8 2.4 19-.1 0-.2.1-.2.1-6.3 3.9-15.7 9.7-19.6 20-2.7 7.2-2 12.4-1 16-13 1-21.5 6.4-25.4 15.9-2.8 6.9-1.9 13.5-1.2 18.9.2 1.2.4 2.9.5 4.1-1.4.4-3.5.9-6.3.9-2.6 0-6.3-.8-10.3-1.7-2.3-.5-4.7-1-7.2-1.5-7.9-1.5-9.3-3.4-11.7-6.6-2.4-3.3-6-8.2-13.5-10.7-5.7-1.9-11.8-2.8-18.1-2.8-2.8 0-5.4.2-7.6.4-1.9-2.5-4.9-5.1-9.4-6.6-.6-.2-1.3-.4-1.8-.6.1-.8.1-1.7.2-2.7.2-1.8.3-3.3.5-4.7.5-4.2 1.1-8.6-.5-14.8-4.9-19.2-18.6-24.8-25.3-27.5-.8-.3-1.9-.8-2.4-1-1.2-1-2.2-2.1-3.3-3.2-2.4-2.5-5.4-5.7-10.2-7.8-.1-.1-.3-.1-.4-.2.2-10.2-.1-22.3-.3-33.2-.2-7.8-.4-17.9-.3-23.5 2.2-1.3 5.1-2.8 7.4-4.1 8.9-4.8 18.9-10.2 25.1-15.7l.3-.2c13.8-12.1 19.4-18 20.3-42.2.5-13.5-.2-23.5-1.1-30.3 3.4-2 7.1-4.9 10.4-8.6 1.8-2.1 3.5-4.3 5.2-6.4 2.3-2.9 5.9-7.5 7.8-9.1 1-.2 2.2-.4 3.7-.4 2.3 0 4.8.3 7.5.6 3 .4 6.1.7 9.3.7 1.4 0 2.7-.1 4-.2 1.2-.1 2.9-.3 4.8-.6 4.9-.7 13-1.6 19.2-2.1M143.5 0c-7.5 0-25.6 2.4-32.1 3.1-.8.1-1.7.1-2.6.1-5.1 0-10.9-1.3-16.8-1.3-2.8 0-5.6.3-8.4 1.2-5.3 1.7-12 12-18.2 19.3-6.2 7.2-15.2 9.4-15.2 9.4s3.7 11.5 2.8 37.6c-.7 19.8-3.9 22.5-16.1 33.4-9.4 8.3-33.7 18.7-36 22.3-2.3 3.5.6 45.4-.4 69.1-.2 3.8 4.4 5.2 8.4 7 4.1 1.8 5.9 5.4 10.8 9.4 4.9 4.1 18.5 3.9 23 21.4 1.4 5.4.2 7.8-.4 15.2-.6 7.1-.7 12.2 2.1 14.8 1.9 1.8 3.6.2 8.3 1.8 4.8 1.6 4.4 5.9 6.3 7.5.3.2.8.3 1.5.3 2.4 0 7.2-1 13.2-1 4.2 0 9 .5 14.1 2.2 9.1 3 5.7 13.8 26.8 17.7 7.4 1.4 14 3.5 19.9 3.5 8 0 14.5-2.6 16.7-5.1 6.2-6.9-1-18.6 2.4-26.9 2.7-6.7 10.7-8 18.3-8 1.7 0 3.5.1 5.1.1h.1c3.1 0 4.7-4.5 4.1-10.3-.5-5-4-6.7-1.2-14.1 3.4-9.1 16.7-13.8 20.2-17.7 3.5-3.9-1.5-8.9-2-26.3-.3-9.2-1.5-16.1 2.8-22.6 3.3-4.9 9.2-5.5 19.7-12.5 9.3-6.2 13.7-9.4 13.7-15.7 0-4.9-19.6-12.4-27.5-18.7-7.9-6.4-9.6-9.1-15.8-14.7-6.4-5.8-9.9-5.4-16.9-10.9-4.4-3.5-5.4-4.5-10.9-10.4-5.3-5.8-9.8-7-15.2-11.5-3.8-3.2-3.9-8.7-3.9-17.7s2.3-20.7 4.9-27.4c2.6-6.7-.7-21.4-2.5-23-.2-.5-1.4-.6-3.1-.6z"/><path d="M142.6 6c1.1 4.1 2.2 11.9 1 15.2-3.1 7.9-5.4 20.3-5.4 29.6 0 9.6 0 17.2 6 22.3 2.5 2.1 4.8 3.5 6.8 4.8 2.8 1.8 5.2 3.3 7.8 6.2 5.6 6.1 6.8 7.3 11.6 11.1 3.7 2.9 6.5 4.3 9.1 5.6 2.6 1.3 4.7 2.4 7.5 5 2.3 2.1 4 3.8 5.6 5.4 2.6 2.7 5.4 5.4 10.5 9.5 3.5 2.8 8.7 5.6 13.7 8.3 3.6 1.9 9.3 5.1 11.4 6.9-.5 2.2-3 4.3-10.9 9.6-4.1 2.8-7.5 4.5-10.4 5.9-4.4 2.2-8.2 4.1-11 8.3-4.7 7.1-4.4 14.2-4 21.8.1 1.4.1 2.8.2 4.3.2 8.8 1.6 14.8 2.5 18.7.3 1.3.7 2.9.7 3.7-.9.7-2.9 2-4.4 2.9-5.8 3.6-13.7 8.4-16.7 16.4-2.4 6.5-1.4 10.4 0 14.1.4 1.1.7 1.8.8 2.7.2 1.6.1 2.8-.1 3.6-1 0-2.2-.1-3.3-.1-4.8 0-19.1 0-23.8 11.7-2.1 5.1-1.4 10.6-.7 15.3.7 5 1 8.2-.5 9.8-.8.8-5.3 3.1-12.2 3.1-3.4 0-7.3-.9-11.8-1.9-2.2-.5-4.5-1-7-1.5-10.7-2-13.3-5.6-16-9.3-2.1-2.9-4.7-6.4-10-8.2-5-1.7-10.3-2.5-15.9-2.5-4 0-7.5.4-10.1.7-.4 0-.8.1-1.1.1-1.1-2.3-3.1-5.7-8-7.4-2.9-1-5.1-1.1-6.5-1.1-.3-1.1-.5-3.6.1-9.3.2-1.9.4-3.5.6-5 .5-4.1.9-7.3-.3-12.2-4-15.8-14.7-20.1-21.1-22.7-1.5-.6-3.3-1.3-3.9-1.8-1.7-1.4-3-2.8-4.3-4.1-2.2-2.3-4.4-4.7-8-6.2-.5-.2-.9-.4-1.4-.6-1.1-.4-2.5-1.1-3.4-1.6.4-10.8.1-25-.2-37.5-.2-10.6-.5-23.5-.1-27.7 2.1-1.4 7.1-4.1 10.9-6.2 8.5-4.6 18.2-9.8 23.8-14.8l.3-.2c13.3-11.8 17.1-16.2 17.9-37.4.6-16.8-.7-27.9-1.8-34C61 33.8 66 30.9 70 26.2c1.7-2 3.4-4.1 5-6.2 2.9-3.7 8.3-10.5 10.4-11.2 1.9-.6 4-.9 6.5-.9 2.7 0 5.5.3 8.3.7 2.8.3 5.7.7 8.5.7 1.2 0 2.2-.1 3.2-.2 1.2-.1 2.9-.3 4.8-.6 7.6-.9 19.8-2.4 25.9-2.5m.9-6c-7.5 0-25.6 2.4-32.1 3.1-.8.1-1.7.1-2.6.1-5.1 0-10.9-1.3-16.8-1.3-2.8 0-5.6.3-8.4 1.2-5.3 1.7-12 12-18.2 19.3-6.2 7.2-15.2 9.4-15.2 9.4s3.7 11.5 2.8 37.6c-.7 19.8-3.9 22.5-16.1 33.4-9.4 8.3-33.7 18.7-36 22.3-2.3 3.5.6 45.4-.4 69.1-.2 3.8 4.4 5.2 8.4 7 4.1 1.8 5.9 5.4 10.8 9.4 4.9 4.1 18.5 3.9 23 21.4 1.4 5.4.2 7.8-.4 15.2-.6 7.1-.7 12.2 2.1 14.8 1.9 1.8 3.6.2 8.3 1.8 4.8 1.6 4.4 5.9 6.3 7.5.3.2.8.3 1.5.3 2.4 0 7.2-1 13.2-1 4.2 0 9 .5 14.1 2.2 9.1 3 5.7 13.8 26.8 17.7 7.4 1.4 14 3.5 19.9 3.5 8 0 14.5-2.6 16.7-5.1 6.2-6.9-1-18.6 2.4-26.9 2.7-6.7 10.7-8 18.3-8 1.7 0 3.5.1 5.1.1h.1c3.1 0 4.7-4.5 4.1-10.3-.5-5-4-6.7-1.2-14.1 3.4-9.1 16.7-13.8 20.2-17.7 3.5-3.9-1.5-8.9-2-26.3-.3-9.2-1.5-16.1 2.8-22.6 3.3-4.9 9.2-5.5 19.7-12.5 9.3-6.2 13.7-9.4 13.7-15.7 0-4.9-19.6-12.4-27.5-18.7s-9.6-9.1-15.8-14.7c-6.4-5.8-9.9-5.4-16.9-10.9-4.4-3.5-5.4-4.5-10.9-10.4-5.3-5.8-9.8-7-15.2-11.5-3.8-3.2-3.9-8.7-3.9-17.7s2.3-20.7 4.9-27.4c2.6-6.7-.7-21.4-2.5-23-.2-.5-1.4-.6-3.1-.6z"/></svg>