<svg xmlns="http://www.w3.org/2000/svg" viewBox="0 0 405.6 410" enable-background="new 0 0 405.6 410"><path d="M404.3 383.5c-1.5-7.6-3.5-5-11.1-14.3-4.4-5.4 5.7-9.7 5-14.8-.9-7.4-15.8-4.4-18-17.7-1.5-9.2 9.4-6.3 5.2-20.6-1.8-6.3-12.1-4.3-19.7-8.8-7.6-4.6 5.3-13.2 0-20-5.3-6.8-11.9-.3-17-1.8s-2.8-11.4-10.4-13.2c-7.6-1.8-5.6 8.4-11.4 9.9-5.8 1.5-6.3-7.6-9.4-16.2-3-8.6-10.1-13.2-12.2-18.3s2.5-6.6 3.5-11.4c1-4.8-.6-10.2 3-12.2 2.7-1.5 6 8.5 10.1 5.7s-4.8-21.1-1.2-28.3c3.2-6.3 17.3-4 19.6-6.5 2.3-2.5-.8-4.2-5.1-9.8-4.3-5.6-1.7-10.4-4.3-18.5-2.5-8.1-8.7-31.7-10-39.5-1.3-7.9 13.7-19 9.1-26.6-4.6-7.6-15.8-1.1-21.4-.8-5.6.3-4-3.2-9.6-4.8-4.2-1.2-5.8 3.9-11.2-.2-6.2-4.6-1.2-13.6-11.5-21.2-6.2-4.6-19.4-.2-18.1-7.5 1.6-8.7 13.1.9 17.9-.4 4.8-1.3 2.3-10.5 5.1-15.4 2.8-4.8 10.7-.3 14.6-1.8 4.5-1.7 3.4-8.5 10.3-11.9 6.6-3.3 10.5 0 11.3-8.1 1.1-12.1-16.5-5.5-20.5-10.1-4.1-4.6 1.9-6.9-5.5-15s-23.6-.8-29.3 7.7c-4.9 7.3-2.8 12.3-10.4 16.2-5.2 2.7-16 3.8-24.2 8.7-12.9 7.8-17.5 10.1-24.7 13.2-8.9 3.9-25.2 14.3-34.8 24.7-4.7 5-8.8 11.6-12.6 16.6-4.9 6.6-8.7 11.4-6.7 14.2 2.8 3.9 10.9 2.4 10.9 2.4s13.3-2.3 11.1 7.9c-2.2 9.8-17.2 1.2-24.2 5.6-4.8 3-2.1 4.4-6 10.3-4.3 6.4-4.3 3.2-10.3 9.8-6.7 7.5-6.1 17.3-15.8 19.4-10.5 2.3-12.7-6.7-27.4-6.1-18.5.8-24 23.8-33.4 29.3-15.4 8.9-27.5-2.4-36.1-1.1C6.8 183.8.9 186 .3 188.5c-1.1 4.3 5.6 2.7 17 11.9 5.8 4.7 10.5 12 28.2 24 4.5 3 8.2 1.3 19 2.5 11.4 1.3 14.4-3.4 20.7-3.1 6.8.3 8.4 5.9 14.2 6.4 7.1.5 12.4-9.9 20.2-7.6 7.9 2.3.8 9.4 8.1 13.6 4.4 2.5 5.9-1.4 9-1.2 3 .3 3.4 2.4 10.5 1.6 5.9-.6 8.1-14.7 12.9-16.5 3.4-1.2 4.7 10.7 20.2 14 6.6 1.4 23.4-6.3 30.1-5 6.8 1.4 6.4 6 11.3 12.9 4.8 6.8 11.7 12.3 16.2 13.6 3.3.9 2.6-.9 8.8-2.8 6.2-2 12.1 12.6 19.4 12.1 7.4-.5 3.3-12.2 2-22.5-1.5-11.7-12.5-17.6-11.6-24.7 1.4-11.4 14.5-13.7 14.6-7.9 0 3.7-5.1 2.3-6.8 6.3-1.8 4.1 20.6 16.5 22.7 24.7 1.8 7-.1 15.8 3.9 33.8 2.9 12.8 7.4 21.1 8.5 27.9 1.4 8.7-3.8 11.4-2.5 19.1 1.2 7 2.8 2.7 5.8 10.1 2.5 6.3-5.9 5.4 9.3 23.9 9.7 11.7 53.4 36.7 74.3 44.4 9.9 3.6 16 9.1 18 9.8 1.9 1 1.5-18.7 0-26.3zM159.9 50.4c1.3-1-.1-4 0-7.3s2.4-6.7 3.7-10.1 1.3-9.4-2.4-9.3c-2 .1-5 2.4-7.2 3.6-2.2 1.1-3 .1-7.3 1.8s-3.9 10.3-.8 15.8c3.9 6.7 12.7 6.5 14 5.5zM334.4 251.8c0-2.7-2.2-6.7-5.8-6.1-1.9.3-3.6 1.3-5.3 5.6-1.7 4.3 2 6.3 3.3 8.8 2 4.1.9 6.8 5.3 5.8 2.6-.6-.6-3.8-.4-6.6.5-4.7 2.9-3.2 2.9-7.5z"/></svg>