<?xml version="1.0" encoding="utf-8"?>
<!-- Generator: Adobe Illustrator 18.1.0, SVG Export Plug-In . SVG Version: 6.00 Build 0)  -->
<!DOCTYPE svg PUBLIC "-//W3C//DTD SVG 1.1//EN" "http://www.w3.org/Graphics/SVG/1.1/DTD/svg11.dtd">
<svg version="1.1" id="contyr" xmlns="http://www.w3.org/2000/svg" xmlns:xlink="http://www.w3.org/1999/xlink" x="0px" y="0px"
	 viewBox="0 0 405.6 410" enable-background="new 0 0 405.6 410" xml:space="preserve">
<g>
	<g>
		<path d="M404.3,383.5c-1.5-7.6-3.5-5-11.1-14.3c-4.4-5.4,5.7-9.7,5-14.8c-0.9-7.4-15.8-4.4-18-17.7c-1.5-9.2,9.4-6.3,5.2-20.6
			c-1.8-6.3-12.1-4.3-19.7-8.8c-7.6-4.6,5.3-13.2,0-20c-5.3-6.8-11.9-0.3-17-1.8c-5.1-1.5-2.8-11.4-10.4-13.2
			c-7.6-1.8-5.6,8.4-11.4,9.9c-5.8,1.5-6.3-7.6-9.4-16.2c-3-8.6-10.1-13.2-12.2-18.3s2.5-6.6,3.5-11.4c1-4.8-0.6-10.2,3-12.2
			c2.7-1.5,6,8.5,10.1,5.7c4.1-2.8-4.8-21.1-1.2-28.3c3.2-6.3,17.3-4,19.6-6.5c2.3-2.5-0.8-4.2-5.1-9.8c-4.3-5.6-1.7-10.4-4.3-18.5
			c-2.5-8.1-8.7-31.7-10-39.5c-1.3-7.9,13.7-19,9.1-26.6c-4.6-7.6-15.8-1.1-21.4-0.8c-5.6,0.3-4-3.2-9.6-4.8
			c-4.2-1.2-5.8,3.9-11.2-0.2c-6.2-4.6-1.2-13.6-11.5-21.2c-6.2-4.6-19.4-0.2-18.1-7.5c1.6-8.7,13.1,0.9,17.9-0.4
			c4.8-1.3,2.3-10.5,5.1-15.4c2.8-4.8,10.7-0.3,14.6-1.8c4.5-1.7,3.4-8.5,10.3-11.9c6.6-3.3,10.5,0,11.3-8.1
			c1.1-12.1-16.5-5.5-20.5-10.1c-4.1-4.6,1.9-6.9-5.5-15c-7.4-8.1-23.6-0.8-29.3,7.7c-4.9,7.3-2.8,12.3-10.4,16.2
			c-5.2,2.7-16,3.8-24.2,8.7c-12.9,7.8-17.5,10.1-24.7,13.2c-8.9,3.9-25.2,14.3-34.8,24.7c-4.7,5-8.8,11.6-12.6,16.6
			c-4.9,6.6-8.7,11.4-6.7,14.2c2.8,3.9,10.9,2.4,10.9,2.4s13.3-2.3,11.1,7.9c-2.2,9.8-17.2,1.2-24.2,5.6c-4.8,3-2.1,4.4-6,10.3
			c-4.3,6.4-4.3,3.2-10.3,9.8c-6.7,7.5-6.1,17.3-15.8,19.4c-10.5,2.3-12.7-6.7-27.4-6.1c-18.5,0.8-24,23.8-33.4,29.3
			c-15.4,8.9-27.5-2.4-36.1-1.1c-10.7,1.6-16.6,3.8-17.2,6.3c-1.1,4.3,5.6,2.7,17,11.9c5.8,4.7,10.5,12,28.2,24
			c4.5,3,8.2,1.3,19,2.5c11.4,1.3,14.4-3.4,20.7-3.1c6.8,0.3,8.4,5.9,14.2,6.4c7.1,0.5,12.4-9.9,20.2-7.6c7.9,2.3,0.8,9.4,8.1,13.6
			c4.4,2.5,5.9-1.4,9-1.2c3,0.3,3.4,2.4,10.5,1.6c5.9-0.6,8.1-14.7,12.9-16.5c3.4-1.2,4.7,10.7,20.2,14c6.6,1.4,23.4-6.3,30.1-5
			c6.8,1.4,6.4,6,11.3,12.9c4.8,6.8,11.7,12.3,16.2,13.6c3.3,0.9,2.6-0.9,8.8-2.8c6.2-2,12.1,12.6,19.4,12.1
			c7.4-0.5,3.3-12.2,2-22.5c-1.5-11.7-12.5-17.6-11.6-24.7c1.4-11.4,14.5-13.7,14.6-7.9c0,3.7-5.1,2.3-6.8,6.3
			c-1.8,4.1,20.6,16.5,22.7,24.7c1.8,7-0.1,15.8,3.9,33.8c2.9,12.8,7.4,21.1,8.5,27.9c1.4,8.7-3.8,11.4-2.5,19.1
			c1.2,7,2.8,2.7,5.8,10.1c2.5,6.3-5.9,5.4,9.3,23.9c9.7,11.7,53.4,36.7,74.3,44.4c9.9,3.6,16,9.1,18,9.8
			C406.2,410.8,405.8,391.1,404.3,383.5z"/>
	</g>
	<g>
		<path d="M159.9,50.4c1.3-1-0.1-4,0-7.3s2.4-6.7,3.7-10.1s1.3-9.4-2.4-9.3c-2,0.1-5,2.4-7.2,3.6c-2.2,1.1-3,0.1-7.3,1.8
			s-3.9,10.3-0.8,15.8C149.8,51.6,158.6,51.4,159.9,50.4z"/>
	</g>
	<g>
		<path d="M334.4,251.8c0-2.7-2.2-6.7-5.8-6.1c-1.9,0.3-3.6,1.3-5.3,5.6c-1.7,4.3,2,6.3,3.3,8.8c2,4.1,0.9,6.8,5.3,5.8
			c2.6-0.6-0.6-3.8-0.4-6.6C332,254.6,334.4,256.1,334.4,251.8z"/>
	</g>
</g>
</svg>
