<?xml version="1.0" encoding="utf-8"?>
<!-- Generator: Adobe Illustrator 18.1.0, SVG Export Plug-In . SVG Version: 6.00 Build 0)  -->
<!DOCTYPE svg PUBLIC "-//W3C//DTD SVG 1.1//EN" "http://www.w3.org/Graphics/SVG/1.1/DTD/svg11.dtd">
<svg version="1.1" xmlns="http://www.w3.org/2000/svg" xmlns:xlink="http://www.w3.org/1999/xlink" x="0px" y="0px"
	 viewBox="0 0 405.6 410" enable-background="new 0 0 405.6 410" xml:space="preserve">
<g id="large" display="none">
	<g display="inline">
		<g>
			<path d="M282.3,13c-0.1,2.8-0.1,8.5,4.8,14.1c1.6,1.8,3.5,3.1,5.4,4c-1.2,1.4-2.2,2.9-2.9,4.2
				c-1.1-0.1-2.3-0.2-3.6-0.2c-6.9,0-12.8,3.2-16,8.8c-1.2,2.1-1.9,4.2-2.4,6.2c-1.7-0.4-3.4-0.7-5.3-0.7c-8.6,0-15.2,5.6-16.8,14.3
				c-0.9,4.8,0.2,9.5,2.9,13.1c4.7,6.2,12,6.8,16.8,7.2c1.2,0.1,3,0.2,3.9,0.5c1.3,1,1.4,1.7,2.1,4.9c0.8,4.1,2.2,10.9,8.9,15.9
				c3.7,2.8,7.7,4.2,11.8,4.2c1.7,0,3.2-0.2,4.5-0.6c2.3,1.9,6,4,11.8,4c0.4,0,0.8,0,1.2,0c1,0,2.1-0.2,3-0.3
				c-2.8,4.8-5.2,10.4-4.1,16.8c1.4,8.9,7.9,33.2,10.4,41.3c0.6,1.9,0.7,3.5,0.8,5.6c0.2,2.5,0.4,5.9,1.6,9.5
				c-4.6,1.6-9.1,4.5-11.8,9.9c-2.5,5.1-2.6,10.7-1.8,16.2c-0.6,0.2-1.2,0.5-1.7,0.8c-8.9,4.9-9.2,14.3-9.3,18.4c0,0,0,0,0,0
				c-3.4-5.2-8.8-9.7-14.1-14.1c1.4-2.7,1.7-5.3,1.6-7.2c-0.1-9.1-7.3-16-16.8-16c-13.1,0-22.3,11.4-23.7,22.3
				c-1.1,8.5,3.6,14.9,7,19.5c1.3,1.8,2.6,3.5,3.4,5.1c-1.9-0.7-3.9-1.1-6.2-1.1c-1.7,0-3.4,0.3-5.1,0.8c-1.4,0.4-2.6,0.9-3.6,1.3
				c-2-1.5-4.6-4-6.9-7.1c-1-1.4-1.7-2.8-2.5-4.3c-2.3-4.4-6.1-11.7-16.9-13.9c-1.4-0.3-2.8-0.4-4.4-0.4c-5.1,0-10.7,1.5-16.6,3.1
				c-2.9,0.8-7.6,2.1-9.6,2.2c-4.6-1.1-6.2-3.3-8.2-6c-2-2.7-6.1-8.2-13.7-8.2c-1.7,0-3.3,0.3-4.9,0.9c-7.1,2.6-10.3,9-12.8,14.2
				c-0.1,0.3-0.3,0.6-0.4,0.9c-1.2-0.4-2.8-0.8-4.6-1c-0.5,0-0.9-0.1-1.4-0.1c-0.2,0-0.3,0-0.5,0c-0.3-0.9-0.6-1.8-1.1-2.7
				c-1.6-3.1-4.9-7.3-11.6-9.2c-1.9-0.6-3.9-0.8-5.9-0.8c-7.5,0-12.9,3.9-16.5,6.5c-0.2,0.2-0.5,0.3-0.7,0.5
				c-2.8-2.1-7.4-5.2-14.4-5.4c-0.3,0-0.7,0-1,0c-4.6,0-8.1,1.2-10.7,2.1c-2.2,0.8-3.5,1.2-5.7,1.2c-0.7,0-1.5,0-2.4-0.1
				c-4.7-0.5-8.3-0.6-11-0.6c-0.9,0-2.1,0-2.7-0.1c-8.6-5.9-13.6-10.4-17.5-14.1c2,0.3,4.1,0.5,6.3,0.5c6.6,0,13-1.8,19-5.2
				c5.9-3.5,9.9-9.2,13.7-14.8c5.3-7.8,8.8-12.5,13.8-12.7c0.3,0,0.6,0,0.9,0c3.5,0,5.2,0.9,8.1,2.4c3.4,1.7,8.1,4.1,14.6,4.1
				c2,0,4-0.2,6.1-0.7c12.3-2.7,16.8-12.1,19.4-17.7c1.1-2.3,2.1-4.4,3.3-5.8c1.6-1.8,2.1-2.1,2.8-2.5c3.1-2,5.4-4,8.6-8.8
				c1.4-2.2,2.4-4.1,3-5.7c0.7,0.1,1.5,0.1,2.3,0.2c2,0.2,4.2,0.4,6.4,0.4c15.8,0,19.6-11.6,20.4-15.1c1.9-8.4-1.3-14-3.4-16.5
				c-2.1-2.6-5.6-5.5-11.4-6.8c0.3-0.4,0.6-0.9,0.9-1.3c2.6-3.7,5.3-7.5,8-10.4c8.4-9,23.1-18.4,30.5-21.7c7.7-3.4,12.7-5.9,26.1-14
				c3.3-2,8.1-3.3,12.4-4.5c4-1.1,7.7-2.1,11-3.8c9.4-4.8,11.8-11.9,13.3-16.1c0.6-1.8,1-3,2-4.4C274.5,16,279.3,13.3,282.3,13
				 M302.1,265c1.4,1.7,2.6,3.4,3.2,5.3c0.6,1.7,1.1,3.6,1.6,5.4c0.9,3.2,1.8,6.6,3.4,9.6c4.6,9.1,12.3,10,15.4,10
				c1.5,0,3-0.2,4.5-0.6c2.4-0.6,4.4-1.7,6.1-2.9c1.9,2.5,4.6,4.8,8.7,6.1c1.7,0.5,3.6,0.8,5.5,0.8c0.1,0,0.3,0,0.4,0
				c-0.3,1.1-0.5,2.2-0.5,3.4c-0.5,6.7,2.7,12.7,8.7,16.3c4.2,2.5,8.6,3.7,12.1,4.5c-2.4,3.2-5.1,8.3-3.8,15.9
				c1.8,10.8,8.3,16.2,13.8,19.2c-0.4,0.7-0.7,1.4-1,2.2c-2.2,5.9-1.2,12.2,2.9,17.2c3.8,4.7,6.7,7.1,8.5,8.6c0,0,0,0,0,0.1
				c0.1,0.7,0.3,1.5,0.4,2.4c-0.4-0.2-0.8-0.3-1.2-0.5c-20.4-7.5-61.5-31.6-68.7-40.4c-4.2-5.1-5.7-7.8-6.3-8.9
				c0.5-2.3,1.1-6.4-1-11.6c-1.6-4-3.3-6.5-5-8.3c0.1-0.3,0.3-0.8,0.5-1.6c1.2-3.3,3.1-8.8,1.9-16.6c-0.7-4.4-2.3-8.7-3.9-13.2
				c-1.6-4.4-3.4-9.5-4.8-15.4C302.8,269.5,302.4,267.2,302.1,265 M282.7,0C275.1,0,266,5.3,262,11.2c-4.9,7.3-2.8,12.3-10.4,16.2
				c-5.2,2.7-16,3.8-24.2,8.7c-12.9,7.8-17.5,10.1-24.7,13.2c-8.9,3.9-25.2,14.3-34.8,24.7c-4.7,5-8.8,11.6-12.6,16.6
				c-4.9,6.6-8.7,11.4-6.7,14.2c1.6,2.2,4.8,2.7,7.4,2.7c2,0,3.5-0.3,3.5-0.3s1.3-0.2,3-0.2c3.8,0,9.6,1.1,8.1,8.1
				c-0.9,4-3.9,5-7.7,5c-3.3,0-7.1-0.7-10.5-0.7c-2.3,0-4.4,0.3-6,1.3c-4.8,3-2.1,4.4-6,10.3c-4.3,6.4-4.3,3.2-10.3,9.8
				c-6.7,7.5-6.1,17.3-15.8,19.4c-1.2,0.3-2.3,0.4-3.3,0.4c-7.6,0-10.8-6.5-22.7-6.5c-0.5,0-0.9,0-1.4,0
				c-18.5,0.8-24,23.8-33.4,29.3c-4.4,2.6-8.6,3.5-12.5,3.5c-8.9,0-16.3-4.7-22.2-4.7c-0.5,0-1,0-1.4,0.1
				c-10.7,1.6-16.6,3.8-17.2,6.3c-1.1,4.3,5.6,2.7,17,11.9c5.8,4.7,10.5,12,28.2,24c4.5,3,8.2,1.3,19,2.5c1.4,0.2,2.7,0.2,3.8,0.2
				c8.1,0,11.1-3.4,16.4-3.4c0.2,0,0.3,0,0.5,0c6.8,0.3,8.4,5.9,14.2,6.4c0.2,0,0.4,0,0.5,0c6.1,0,10.9-8,17.4-8
				c0.7,0,1.5,0.1,2.3,0.3c7.9,2.3,0.8,9.4,8.1,13.6c1.1,0.6,2,0.9,2.8,0.9c2.4,0,3.8-2,5.9-2c0.1,0,0.2,0,0.3,0
				c2.6,0.2,3.2,1.8,7.7,1.8c0.8,0,1.7,0,2.7-0.2c5.9-0.6,8.1-14.7,12.9-16.5c0.2-0.1,0.3-0.1,0.5-0.1c3.1,0,5,11,19.7,14
				c0.5,0.1,1.2,0.2,1.9,0.2c6.8,0,19.6-5.3,26.4-5.3c0.7,0,1.2,0,1.8,0.2c6.8,1.4,6.4,6,11.3,12.9c4.8,6.8,11.7,12.3,16.2,13.6
				c0.6,0.2,1.1,0.3,1.5,0.3c1.8,0,2.3-1.5,7.3-3.1c0.4-0.1,0.8-0.2,1.2-0.2c5.7,0,11.2,12.3,17.9,12.3c0.1,0,0.2,0,0.4,0
				c7.4-0.5,3.3-12.2,2-22.5c-1.5-11.7-12.5-17.6-11.6-24.7c0.9-7.4,6.8-11,10.8-11c2.2,0,3.8,1,3.8,3.1c0,3.7-5.1,2.3-6.8,6.3
				c-1.8,4.1,20.6,16.5,22.7,24.7c1.8,7-0.1,15.8,3.9,33.8c2.9,12.8,7.4,21.1,8.5,27.9c1.4,8.7-3.8,11.4-2.5,19.1
				c1.2,7,2.8,2.7,5.8,10.1c2.5,6.3-5.9,5.4,9.3,23.9c9.7,11.7,53.4,36.7,74.3,44.4c9.9,3.6,16,9.1,18,9.8c0,0,0.1,0,0.1,0
				c1.9,0,1.4-19-0.1-26.5c-1.5-7.6-3.5-5-11.1-14.3c-4.4-5.4,5.7-9.7,5-14.8c-0.9-7.4-15.8-4.4-18-17.7c-1.5-9.2,9.4-6.3,5.2-20.6
				c-1.8-6.3-12.1-4.3-19.7-8.8s5.3-13.2,0-20c-1.9-2.4-4-3.2-6.1-3.2c-3.1,0-6.3,1.6-9.2,1.6c-0.6,0-1.2-0.1-1.7-0.2
				c-5.1-1.5-2.8-11.4-10.4-13.2c-0.6-0.1-1.2-0.2-1.6-0.2c-5.7,0-4.4,8.7-9.8,10.1c-0.4,0.1-0.8,0.2-1.2,0.2
				c-4.7,0-5.3-8.4-8.2-16.4c-3-8.6-10.1-13.2-12.2-18.3c-2-5.1,2.5-6.6,3.5-11.4c1-4.8-0.6-10.2,3-12.2c0.2-0.1,0.4-0.2,0.6-0.2
				c2.2,0,4.9,6.4,8,6.4c0.5,0,1-0.1,1.5-0.5c4.1-2.8-4.8-21.1-1.2-28.3c3.2-6.3,17.3-4,19.6-6.5c2.3-2.5-0.8-4.2-5.1-9.8
				c-4.3-5.6-1.7-10.4-4.3-18.5c-2.5-8.1-8.7-31.7-10-39.5c-1.3-7.9,13.7-19,9.1-26.6c-1.7-2.8-4.3-3.7-7.1-3.7
				c-5,0-10.8,2.7-14.3,2.8c-0.2,0-0.4,0-0.6,0c-4.9,0-3.7-3.3-9.1-4.8c-0.5-0.1-0.9-0.2-1.3-0.2c-2.2,0-3.7,1.6-5.9,1.6
				c-1.1,0-2.4-0.4-4-1.6c-6.2-4.6-1.2-13.6-11.5-21.2c-6.2-4.6-19.4-0.2-18.1-7.5c0.5-2.8,2-3.7,4-3.7c3.8,0,9.4,3.4,12.9,3.4
				c0.4,0,0.7,0,1-0.1c4.8-1.3,2.3-10.5,5.1-15.4c1-1.8,2.8-2.3,4.7-2.3c2.5,0,5.5,0.8,7.8,0.8c0.7,0,1.4-0.1,2-0.3
				c4.5-1.7,3.4-8.5,10.3-11.9c6.6-3.3,10.5,0,11.3-8.1c1.1-12.1-16.5-5.5-20.5-10.1c-4.1-4.6,1.9-6.9-5.5-15C289.1,1,286,0,282.7,0
				L282.7,0z"/>
		</g>
		<g>
			<path d="M161.3,23.7C161.2,23.7,161.2,23.7,161.3,23.7c-2.1,0.1-5.1,2.4-7.3,3.6c-2.2,1.1-3,0.1-7.3,1.8
				s-3.9,10.3-0.8,15.8c2.7,4.7,7.8,5.9,11.1,5.9c1.4,0,2.5-0.2,2.9-0.5c1.3-1-0.1-4,0-7.3s2.4-6.7,3.7-10.1
				C164.9,29.6,164.9,23.7,161.3,23.7L161.3,23.7z"/>
		</g>
		<g>
			<path d="M329.2,245.6c-0.2,0-0.5,0-0.7,0.1c-1.9,0.3-3.6,1.3-5.3,5.6c-1.7,4.3,2,6.3,3.3,8.8
				c1.7,3.6,1.1,6.1,3.7,6.1c0.4,0,0.9-0.1,1.6-0.2c2.6-0.6-0.6-3.8-0.4-6.6c0.5-4.7,2.9-3.3,2.9-7.5
				C334.4,249.3,332.5,245.6,329.2,245.6L329.2,245.6z"/>
		</g>
	</g>
</g>
<g id="small">
	<g>
		<g>
			<path d="M282.7,6c2.8,0,3.9,1.2,4.2,1.5c2.5,2.8,2.5,3.7,2.4,5.4c-0.1,2.2-0.3,5.8,3,9.6c3.2,3.6,8.3,3.8,12.8,4
				c1.8,0.1,5.1,0.2,6.2,0.7c0,0.2,0,0.4,0,0.8c0,0.4-0.1,0.7-0.1,0.9c-0.2,0-0.4,0.1-0.5,0.1c-1.7,0.3-4.3,0.8-7.3,2.3
				c-5.6,2.8-7.7,7.1-9.1,10c-0.2,0.5-0.6,1.2-0.8,1.6c-0.7,0-1.6-0.2-2.6-0.3c-1.5-0.2-3.2-0.5-5-0.5c-5.7,0-8.5,2.9-9.9,5.3
				c-1.8,3.2-2.1,6.7-2.4,9.9c-0.1,0.6-0.1,1.4-0.2,2.1c-0.8-0.3-1.6-0.6-2.3-0.8c-2.7-1-5.8-2.2-8.8-2.2c-5.1,0-8.9,3.3-9.9,8.6
				c-0.7,3.7,0.5,6.2,1.6,7.6c2.8,3.7,7.6,4.1,11.8,4.4c2.5,0.2,5.7,0.5,7,1.4c4,2.9,4.5,5.7,5.3,9.5c0.7,3.7,1.7,8.3,6.2,11.7
				c2.5,1.9,5,2.8,7.6,2.8c2.3,0,4.2-0.8,5.3-1.3c0.2-0.1,0.4-0.2,0.6-0.2c0.7,0.2,0.9,0.5,1.5,1.1c1.8,1.9,4.1,3.8,8.8,3.8
				c0.3,0,0.5,0,0.8,0c2.2-0.1,4.5-0.7,7-1.4c2.4-0.7,5-1.4,7-1.4c1.5,0,1.7,0.4,2,0.8c0.3,1.3-2.7,6-4.1,8.2
				c-3.3,5.1-6.7,10.4-5.8,16.2c1.4,8.5,7.8,32.6,10.2,40.4c0.8,2.7,1,4.9,1.1,7.3c0.2,3.9,0.5,8.3,4.1,13.1c0.5,0.6,1,1.2,1.4,1.8
				c-5.7,0.6-13.3,1.8-16.5,8.1c-2.7,5.5-1.2,12.8,0.3,19.8c-1-0.5-2-0.8-3.3-0.8c-1.2,0-2.4,0.3-3.5,0.9c-5.4,3-5.6,8.7-5.7,12.4
				c0,1.4-0.1,2.7-0.3,3.7c-0.1,0.7-0.6,1.3-1.3,2.4c-1.5,2.2-4.4,6.4-1.9,12.5c1.2,3.1,3.4,5.5,5.6,8.2c2.5,2.9,5.1,5.9,6.5,9.9
				c0.7,1.9,1.2,3.9,1.8,5.9c0.8,3,1.6,5.9,2.9,8.3c2.8,5.4,7,6.2,9.2,6.2c0.9,0,1.8-0.1,2.7-0.4c5.3-1.4,7.4-5.9,8.6-8.6
				c0.1-0.3,0.3-0.7,0.5-1c0.4,0.3,0.8,1.1,1.6,3.5c1.1,3.1,2.7,7.8,7.9,9.4c1.1,0.3,2.2,0.5,3.4,0.5c2.2,0,4.2-0.5,5.9-1
				c1.2-0.3,2.5-0.6,3.3-0.6c0.4,0,0.7,0,1.3,0.9c0,0.1,0.1,0.1,0.1,0.1c0.1,0.7-0.9,3-1.5,4.3c-1,2.2-2.1,4.6-2.3,7.3
				c-0.3,4.1,1.6,7.6,5.4,9.8c4,2.4,8.4,3.3,11.9,4.1c1.8,0.4,4.4,0.9,5.2,1.4c1.3,4.6,0.7,5.3-1.1,7.1c-2.1,2.1-5.5,5.7-4.4,12.6
				c1.8,10.8,9.9,14.3,14.8,16.3c0.8,0.3,1.9,0.8,2.7,1.2c-0.4,0.5-0.9,1.1-1.2,1.6c-2.3,2.8-7.6,9.3-2,16.2
				c3.4,4.2,5.9,6.4,7.6,7.8c1.8,1.5,1.8,1.5,2.3,4c0.8,3.8,1.1,10.2,1.2,15.3c-3-1.8-6.8-3.8-11.3-5.4c-20.3-7.4-63-32-71.7-42.5
				c-5.2-6.3-7.1-9.8-7.7-11.6c-0.4-1.2-0.4-1.5-0.1-2.7c0.4-1.7,1-4.4-0.5-8.1c-1.8-4.5-3.6-6.2-5.2-7.5c-0.1-0.3-0.2-0.7-0.3-1.4
				c-0.4-2.2,0.1-3.6,0.9-5.9c1.1-3,2.5-7.1,1.6-13.1c-0.6-3.8-2-7.6-3.6-12c-1.7-4.6-3.6-9.9-5-16.3c-2.3-10.2-2.6-17.3-2.8-23
				c-0.2-4.1-0.3-7.6-1.2-11c-1.6-6.2-8.6-12-15.5-17.6c-1.5-1.2-3.4-2.8-4.9-4.2c2.1-1.2,4.8-3.4,4.7-7.8c0-5.2-4.2-9-9.8-9
				c-7.2,0-15.5,6.1-16.7,16.2c-0.7,5.8,2.7,10.4,5.7,14.5c2.6,3.5,5.3,7.2,5.9,11.7c0.3,2.3,0.7,4.5,1.1,6.7
				c0.4,2.4,1.1,5.9,1.2,8.2c-1.3-1-3-2.8-4-3.9c-3.4-3.6-7.2-7.7-12.6-7.7c-1,0-2,0.2-3,0.5c-3,0.9-4.8,1.9-6,2.6
				c-2.8-1.1-8.3-5.3-12.3-11.1c-1.3-1.8-2.1-3.5-3-5.1c-2.1-4.1-4.5-8.7-12-10.2c-0.9-0.2-1.9-0.3-3-0.3c-4.2,0-9.3,1.4-14.8,2.9
				c-4.2,1.2-9.1,2.5-11.7,2.5c-0.4,0-0.6,0-0.6,0c-7.6-1.6-10.5-5.6-12.9-8.8c-1.8-2.4-4-5.4-8-5.4c-0.9,0-1.7,0.2-2.5,0.5
				c-4.5,1.6-6.7,6.2-8.9,10.7c-0.9,1.7-2.2,4.6-3.1,5.5c-0.6,0-1.1,0.1-1.5,0.1c-1.5,0-1.9-0.2-2.8-0.6c-1-0.4-2.4-1-4.4-1.2
				c-0.3,0-0.5,0-0.8,0c-2.6,0-4.6,1.1-5.7,1.7c-0.1,0-0.1,0.1-0.2,0.1c-0.5-0.3-0.5-0.5-0.6-2.3c-0.1-2.8-0.5-9.4-8.6-11.7
				c-1.3-0.4-2.6-0.6-3.9-0.6c-5.2,0-9.2,2.9-12.4,5.2c-1.7,1.2-3.9,2.8-5,2.8c0,0-0.1,0-0.1,0c-0.9-0.1-1.6-0.5-3.3-1.8
				c-2.4-1.8-5.7-4.4-11.2-4.6c-0.2,0-0.5,0-0.7,0c-3.4,0-6,0.9-8.4,1.7c-2.5,0.9-4.6,1.6-8,1.6c-1,0-2.1-0.1-3.2-0.2
				c-4.4-0.5-7.6-0.5-10.2-0.6c-3.9,0-4.9-0.1-6.1-0.9c-11.7-8-17.3-13.6-21.8-18.1c-2.1-2.1-3.9-4-6-5.6c-3.7-3-7-4.9-9.7-6.3
				c1.8-0.4,4.1-0.9,7-1.3c0.2,0,0.3,0,0.5,0c1.7,0,4.3,0.8,7,1.7c4.2,1.3,9.3,3,15.2,3c5.5,0,10.5-1.4,15.5-4.3
				c4.6-2.7,7.9-7.5,11.4-12.7c5.1-7.6,10.5-15.4,19.3-15.8c0.4,0,0.8,0,1.2,0c5.2,0,8,1.5,11.3,3.1c3.1,1.6,6.6,3.4,11.4,3.4
				c1.5,0,3-0.2,4.6-0.5c9-2,12.1-8.5,14.6-13.8c1.3-2.7,2.5-5.3,4.5-7.5c2.2-2.5,3.3-3.1,4.3-3.8c2.1-1.3,3.8-2.6,6.5-6.8
				c2.2-3.3,2.9-5.8,3.3-7.4c0.1-0.2,0.1-0.4,0.2-0.6c0.1-0.1,0.3-0.3,0.7-0.5c0.2-0.1,0.9-0.4,2.9-0.4c1.4,0,3.1,0.2,4.8,0.3
				c1.9,0.2,3.8,0.4,5.7,0.4c9.9,0,12.7-6,13.5-9.6c1.2-5.3-0.5-8.7-2-10.6c-1.7-2.2-5.2-4.7-11.9-4.7c-2.1,0-3.7,0.3-4,0.3
				c0,0,0,0-0.1,0c0,0-1.1,0.2-2.4,0.2c-0.4,0-0.8,0-1.1,0c1.1-1.8,3.1-4.4,4.6-6.5l0.6-0.8c1.2-1.6,2.3-3.2,3.6-5
				c2.7-3.9,5.6-7.9,8.6-11.1c9.4-10.2,25.2-19.9,32.8-23.3c7.4-3.3,12.3-5.7,25.3-13.6c4.2-2.5,9.5-4,14.2-5.3c3.8-1,7-1.9,9.7-3.3
				c6.9-3.5,8.5-8.3,9.9-12.2c0.7-2,1.3-3.9,2.8-6C270.1,10,277.4,6,282.7,6L282.7,6 M282.7,0C275.1,0,266,5.3,262,11.2
				c-4.9,7.3-2.8,12.3-10.4,16.2c-5.2,2.7-16,3.8-24.2,8.7c-12.9,7.8-17.5,10.1-24.7,13.2c-8.9,3.9-25.2,14.3-34.8,24.7
				c-4.7,5-8.8,11.6-12.6,16.6c-4.9,6.6-8.7,11.4-6.7,14.2c1.6,2.2,4.8,2.7,7.4,2.7c2,0,3.5-0.3,3.5-0.3s1.3-0.2,3-0.2
				c3.8,0,9.6,1.1,8.1,8.1c-0.9,4-3.9,5-7.7,5c-3.3,0-7.1-0.7-10.5-0.7c-2.3,0-4.4,0.3-6,1.3c-4.8,3-2.1,4.4-6,10.3
				c-4.3,6.4-4.3,3.2-10.3,9.8c-6.7,7.5-6.1,17.3-15.8,19.4c-1.2,0.3-2.3,0.4-3.3,0.4c-7.6,0-10.8-6.5-22.7-6.5c-0.5,0-0.9,0-1.4,0
				c-18.5,0.8-24,23.8-33.4,29.3c-4.4,2.6-8.6,3.5-12.5,3.5c-8.9,0-16.3-4.7-22.2-4.7c-0.5,0-1,0-1.4,0.1
				c-10.7,1.6-16.6,3.8-17.2,6.3c-1.1,4.3,5.6,2.7,17,11.9c5.8,4.7,10.5,12,28.2,24c4.5,3,8.2,1.3,19,2.5c1.4,0.2,2.7,0.2,3.8,0.2
				c8.1,0,11.1-3.4,16.4-3.4c0.2,0,0.3,0,0.5,0c6.8,0.3,8.4,5.9,14.2,6.4c0.2,0,0.4,0,0.5,0c6.1,0,10.9-8,17.4-8
				c0.7,0,1.5,0.1,2.3,0.3c7.9,2.3,0.8,9.4,8.1,13.6c1.1,0.6,2,0.9,2.8,0.9c2.4,0,3.8-2,5.9-2c0.1,0,0.2,0,0.3,0
				c2.6,0.2,3.2,1.8,7.7,1.8c0.8,0,1.7,0,2.7-0.2c5.9-0.6,8.1-14.7,12.9-16.5c0.2-0.1,0.3-0.1,0.5-0.1c3.1,0,5,11,19.7,14
				c0.5,0.1,1.2,0.2,1.9,0.2c6.8,0,19.6-5.3,26.4-5.3c0.7,0,1.2,0,1.8,0.2c6.8,1.4,6.4,6,11.3,12.9c4.8,6.8,11.7,12.3,16.2,13.6
				c0.6,0.2,1.1,0.3,1.5,0.3c1.8,0,2.3-1.5,7.3-3.1c0.4-0.1,0.8-0.2,1.2-0.2c5.7,0,11.2,12.3,17.9,12.3c0.1,0,0.2,0,0.4,0
				c7.4-0.5,3.3-12.2,2-22.5c-1.5-11.7-12.5-17.6-11.6-24.7c0.9-7.4,6.8-11,10.8-11c2.2,0,3.8,1,3.8,3.1c0,3.7-5.1,2.3-6.8,6.3
				c-1.8,4.1,20.6,16.5,22.7,24.7c1.8,7-0.1,15.8,3.9,33.8c2.9,12.8,7.4,21.1,8.5,27.9c1.4,8.7-3.8,11.4-2.5,19.1
				c1.2,7,2.8,2.7,5.8,10.1c2.5,6.3-5.9,5.4,9.3,23.9c9.7,11.7,53.4,36.7,74.3,44.4c9.9,3.6,16,9.1,18,9.8c0,0,0.1,0,0.1,0
				c1.9,0,1.4-19-0.1-26.5c-1.5-7.6-3.5-5-11.1-14.3c-4.4-5.4,5.7-9.7,5-14.8c-0.9-7.4-15.8-4.4-18-17.7c-1.5-9.2,9.4-6.3,5.2-20.6
				c-1.8-6.3-12.1-4.3-19.7-8.8c-7.6-4.6,5.3-13.2,0-20c-1.9-2.4-4-3.2-6.1-3.2c-3.1,0-6.3,1.6-9.2,1.6c-0.6,0-1.2-0.1-1.7-0.2
				c-5.1-1.5-2.8-11.4-10.4-13.2c-0.6-0.1-1.2-0.2-1.6-0.2c-5.7,0-4.4,8.7-9.8,10.1c-0.4,0.1-0.8,0.2-1.2,0.2
				c-4.7,0-5.3-8.4-8.2-16.4c-3-8.6-10.1-13.2-12.2-18.3c-2-5.1,2.5-6.6,3.5-11.4s-0.6-10.2,3-12.2c0.2-0.1,0.4-0.2,0.6-0.2
				c2.2,0,4.9,6.4,8,6.4c0.5,0,1-0.1,1.5-0.5c4.1-2.8-4.8-21.1-1.2-28.3c3.2-6.3,17.3-4,19.6-6.5c2.3-2.5-0.8-4.2-5.1-9.8
				c-4.3-5.6-1.7-10.4-4.3-18.5c-2.5-8.1-8.7-31.7-10-39.5c-1.3-7.9,13.7-19,9.1-26.6c-1.7-2.8-4.3-3.7-7.1-3.7
				c-5,0-10.8,2.7-14.3,2.8c-0.2,0-0.4,0-0.6,0c-4.9,0-3.7-3.3-9.1-4.8c-0.5-0.1-0.9-0.2-1.3-0.2c-2.2,0-3.7,1.6-5.9,1.6
				c-1.1,0-2.4-0.4-4-1.6c-6.2-4.6-1.2-13.6-11.5-21.2c-6.2-4.6-19.4-0.2-18.1-7.5c0.5-2.8,2-3.7,4-3.7c3.8,0,9.4,3.4,12.9,3.4
				c0.4,0,0.7,0,1-0.1c4.8-1.3,2.3-10.5,5.1-15.4c1-1.8,2.8-2.3,4.7-2.3c2.5,0,5.5,0.8,7.8,0.8c0.7,0,1.4-0.1,2-0.3
				c4.5-1.7,3.4-8.5,10.3-11.9c6.6-3.3,10.5,0,11.3-8.1c1.1-12.1-16.5-5.5-20.5-10.1c-4.1-4.6,1.9-6.9-5.5-15C289.1,1,286,0,282.7,0
				L282.7,0z"/>
		</g>
		<g>
			<path d="M157.4,32.2c-0.2,0.5-0.5,1-0.7,1.5c-1.2,2.7-2.7,5.7-2.8,9.1c0,0.5,0,1,0,1.5c-1-0.4-2.1-1.1-2.8-2.3
				c-1.5-2.7-1.8-6.1-1.5-7.5c1-0.4,1.6-0.4,2.3-0.5c1.2-0.1,2.7-0.3,4.8-1.3C156.9,32.5,157.2,32.4,157.4,32.2 M161.3,23.7
				C161.2,23.7,161.2,23.7,161.3,23.7c-2.1,0.1-5.1,2.4-7.3,3.6c-2.2,1.1-3,0.1-7.3,1.8s-3.9,10.3-0.8,15.8
				c2.7,4.7,7.8,5.9,11.1,5.9c1.4,0,2.5-0.2,2.9-0.5c1.3-1-0.1-4,0-7.3s2.4-6.7,3.7-10.1C164.9,29.6,164.9,23.7,161.3,23.7
				L161.3,23.7z"/>
		</g>
		<g>
			<path d="M329.2,245.6c-0.2,0-0.5,0-0.7,0.1c-1.9,0.3-3.6,1.3-5.3,5.6c-1.7,4.3,2,6.3,3.3,8.8
				c1.7,3.6,1.1,6.1,3.7,6.1c0.4,0,0.9-0.1,1.6-0.2c2.6-0.6-0.6-3.8-0.4-6.6c0.5-4.7,2.9-3.3,2.9-7.5
				C334.4,249.3,332.5,245.6,329.2,245.6L329.2,245.6z"/>
		</g>
	</g>
</g>
</svg>
