<svg xmlns="http://www.w3.org/2000/svg" viewBox="0 0 530 345" enable-background="new 0 0 530 345"><path d="M526.4 152.3c-.2-5.1 2.4-19.2 1.7-23.6-.5-2.7-5.4-5.9-11.1-10.7-11.9-10.1-25.3-22.8-33.8-26-2.8-1.1-11.7 3.6-20.8 7.4-9.1 3.8-13.4 7.6-13.2 15.9.1 5.5 2.8 5 4.6 7.3 1.8 2.3 1.5 4.6 0 7.9-1.5 3.3-11 6-15.9 9.4-5 3.5-6.2 8.8-11.8 7.9-3.5-.5-9.3-5-13.7-1.6-4.4 3.4 7.8 12.4-3 20.4-8 6-13.3-21.3-31.1-33.7-7.9-5.5-11.6-2.5-19.1-.7-6 1.4-8.6-2.5-15.5 1.2-8.9 4.7 4.9 12.7-2 16.1-8.3 4.2-14.2 3.4-28.4-2.7-8.9-3.8-20.2 3.4-30.2 4.2-10.1.7-2.1-10.3-5.1-15.1-3-4.8-6 .6-6.6-6.5-.6-7 3.3-22.1-4.5-31.4-5.5-6.5-15.5-4.6-24.4-4.1-7.5.4-11.3-17.2-28.6-16.2-11 .6-14.8 22.2-25.3 28.3-6.4 3.8-14.8-.5-25.7 1.9-8.7 1.9-11.4 6.2-15.6 9.1s-15.3.6-28.3 10.5c-12.9 9.8-1.8 17.6-11 20.7-7.5 2.6-33-5.9-36.5-3.2-4.9 3.8 1.5 17.7-7.2 20.6-4.1 1.3-7.5-3.1-12.9-6.1-4.5-2.6-8.1.8-12.6-1.1s-1.9-17.1-7.4-16.9c-4 .1-3.3 12.1-4.9 16.4-2.1 5.6-6.9 5.6-10.4 8.7-4.7 4.1 1.6 17.7-3.7 23.6C9.3 193.7.3 197 2 207c1.1 6.5 12 2.5 17.8 14 2.7 5.3-1.8 37.7-1.8 42.3 0 4.6 2 9 2.3 15.3.1 3.1-1.2 25.1-1.4 35.6 0 2.3 5 .4 6.2 1.7 3.4 3.7 14.1 10.3 20.2 14.8 5.8 4.3 16.8 13.2 22.7 13.2 5.6 0 15.7-9.5 18.2-14.2 3.1-5.6 10.6-12.1 13.9-14 6.2-3.6 19.7-.7 27.2-.3 9.8.4 24.9-2.1 30.1-2.6 9.8-1 7.6 2.4 10.9 3.6 3.4 1.2 16.8-14.3 24.1-19.5 8.4-6 13.2-6.6 18.5-12.2 3.5-3.8 4.1-6.2 9.3-10.8 5.3-4.5 17-9.7 23-15.1 3.9-3.5 6.2-10.4 12.5-13.1 5.5-2.3 15.4 1.2 20.6 1.3 2.7 0 8.9-.9 11.6-1 3.1-.2 10.2 1.1 13.3 1.1 3.9 0 10.2-1 14-1.2 3.8-.3 12.4 2.2 19.7 2.2 5.4 0 11.3-3.3 16.6-3.3 8 0 30.6 6.2 43.3 3.9 8.1-1.5 19-15.2 22.7-18.3 5.2-4.3 13.8-4.7 19.8-10.9 3.2-3.4 1-4.5 5.3-7.7 4.3-3.3 16.6-.9 25.6-.2 6 .5 18.2 1.1 21.7-.7 8.8-4.6 18.3-14.7 21.6-18.3 3.3-3.6 14.2-13.2 16.4-18s-1.4-17.2-1.5-22.3zM414.6 81.8c5.2 1.3 5.6-6.1 9.4-8.8s4.6-.6 7.9-3.9 8.4-7.2 7.5-10.9-3.4-4.4-.5-5.9 11.2-2.1 18.4-1.4c5.2.5 12-5.9 10.5-11.1s.8-7.5-3.5-5.9-7.9 6.5-9.6 6.1-4.4-2.5-6.6-1.2-3.1 3.1-5.7 3.2-3.2-.9-4.7 1.9 2 6.6-1 6-6.1-6-12-3-2.8 3.5-7 4.9c-3.2 1.1-9.5-4.5-11.4-2s4.3 4.4 2.2 6.1c-5 4.1-8.8-1.6-12.4.9s-6.5 12.9-1.6 19c3.6 4.6 10.7 3.7 20.1 6zM440.1 96.5c6.9.1 19.6-5.3 20.2-7.4 1.2-3.9-4.8-6.8-8.6-7.4s-10.2 1.8-14.5 2.8-1.8-5.2-6.4-4.5c-2.2.3-2.8.9-6.1 6.5s6.8 2.6 10.4 2.1-1.1 7.8 5 7.9zM189.5 72.4c1.1 8.1 8 .5 13.6-1.1 6.4-1.8 13.8.2 18.4-6.1 3.2-4.4 4.4-5.4 1.9-8.3s-4-1.3-8.3-5.7c-3.2-3.3-3.9-11.2-10.1-7-6.4 4.4-4.5 10.6-5.4 15.1-1.6 8.5-10.7 9-10.1 13.1zM166.5 40.5c3.4 2.5-1.1 4.8.4 10.2s8.1 3.4 10.4 4.2c4 1.5 6.9 4 12.2 3.3 7.8-1.1 4.2-14.1 5.9-21.6 1.8-8-7.4-5-10.1-8.9s1.7-6.3 2.3-9.6c1.2-6.1-6.7-16.6-10.2-16.6-2.2 0-2.8 2.4-3.2 5.8s-7.2.9-11.2 12.2c-1.6 4.7-6 6.6-3.8 14.1.6 2.4 3.9 4.4 7.3 6.9z"/></svg>