<svg xmlns="http://www.w3.org/2000/svg" viewBox="0.1 76.2 595 689.2" enable-background="new 0.1 76.2 595 689.2"><path d="M577.9 86.1c-11.1 2.8-13.2 8.8-29.2 7.6-15.3-.9-45.4-17.6-63-17.6-23.4 0-22.2 6-36.4 7.6-15.3 1.9-29.4-3.7-43.8 3.7-14.4 7.4-19.7 21.1-31 22-13.7.9-31.3-6.5-37.3 2.5-6.3 9.5 9.7 12.5-2.8 25.2-8.6 8.8-19.9-10-28.7-4.6-5.8 3.5 3.2 10.4-5.1 12.3-10 2.3-11.1-4.6-15.3-3.9-7.9 1.4-5.1 12-17.8 13.7-9.3 1.2-16.7-3.2-23.2 3-6.5 6.3-3.5 8.6-6.5 14.4-3 5.8-8.8 5.3-8.8 14.6s-5.1 26.6 4.2 41c9.5 14.4 32 41.2 45.8 38 12.5-3 4.4-29.2 10.2-46.1 9.3-26.2 42.6-47.7 85.7-60.9 42.8-13.2 79.4-31.5 96.8-32.2 40.1-1.6 58.8 2.3 76.9 2.5 23.4.5 45.1-6.3 46.3-24.1 1.1-13.8-5.9-21.4-17-18.7zM549.2 508.2c-4.9-2.8-14.6 9.5-19.2 6-6.3-4.9 1.9-18.8 3.9-26.4 4.2-15.5-5.6-22.7-12-22.9-14.1-.5-24.1 24.1-36.6 39.8-6 7.6-13.2 6.5-23.8 18.3-7.4 8.3-11.3 12-25.9 15.5-7.6 1.9-19 3.5-27.6 9.7-8.6 6.3-12.3-5.3-26.9-15-14.8-9.7-31.5-24.1-23.6-29.6 9.3-6.5 13.4 15.3 37 15.7 12 .2 24.3-10.9 32.9-18.1 11.8-9.7 21.8-11.8 27.1-13.7 5.6-2.1 5.1-8.3 6.3-13.2 1.2-4.9 7.2-6.5 10.4-12.3 3.2-5.8-2.8-13.2-1.4-26.6 2.3-22.9 19.2-32 33.6-64.8 4.4-10.2 4.2-16.2 5.1-32.9 1.4-20.6 34.3-22.5 34.3-45.6 0-14.6-14.8-10.9-16.7-20.6-1.9-9.7 22-6.7 21.1-16.7-.7-8.6-8.8-10-19.2-5.8-15 6-41.7 38-59.5 47.7-11.3 6.3-24.1 6.5-36.8 14.1-10.4 6.3-11.6 10.4-11.1 27.3.5 17.1-14.6 13.2-19.4 26.6-4.9 13.4-.9 20.8 7.2 42.8 8.1 22-17.8 28-25 23.2-10.7-7.2-10.2-42.8-38.9-79.4-12-15.3-33.3-32.9-39.6-40.5-6.3-7.9-1.9-29.4-17.1-28.2-13.4 1.2-4.6 32.4-3.9 47.9.7 15.5-11.8 29.2-22.9 24.8-9.3-3.7.9-19.4-15.7-25.9-10.7-3.9-22.5 1.6-32.9 2.8-10.4 1.2-7.9-11.8-21.3-6.9-7.4 2.8-4.9 12.3-12.5 18.1-10.9 8.1-13.2 13-32.2 19.4-9.3 3.2-14.8 8.6-32.9 21.3-18.3 12.7-5.6 19-29.4 33.6-9.1 5.3-21.1 4.9-29.7 11.1-8.3 6.3-27.1 25-31 32.4-3.9 7.4-21.5 6.5-23.2 15-1.2 6 5.3 11.8 8.8 19.4 8.1 17.8 17.1 16.9 25.9 20.1 12.7 4.6 28.9 14.8 41 29.2 9.5 11.8-6.7 41.4.7 66.5 3.5 11.8 18.8 16.2 37.5 33.1 15 13.7 19.2 18.3 28 28 6.5 7.2 17.6 5.6 27.1 12.5s8.1 8.8 16.9 19.2c10 11.8 16 9.5 24.3 16.9 11.6 10.4 18.1 17.8 28 27.1 10 9.3 18.8 15 39.1 16.9 10.2.9 48.9-6.5 78.3-6.5 15.7 0 63 9 89.6 6 19.7-2.1 36.6-17.6 64.8-42.1 16.2-13.9 29.4-18.3 33.6-26.9 4.4-8.6 5.1-33.3 4.4-52.3-.9-23.8 2.8-27.6 4.2-42.4.7-7.9-7.9-22.9-8.6-30.8-1.3-15.3 14.9-56.1 5.4-61.9z"/></svg>