<?xml version="1.0" encoding="utf-8"?>
<!-- Generator: Adobe Illustrator 18.1.0, SVG Export Plug-In . SVG Version: 6.00 Build 0)  -->
<!DOCTYPE svg PUBLIC "-//W3C//DTD SVG 1.1//EN" "http://www.w3.org/Graphics/SVG/1.1/DTD/svg11.dtd">
<svg version="1.1" id="Слой_1" xmlns="http://www.w3.org/2000/svg" xmlns:xlink="http://www.w3.org/1999/xlink" x="0px" y="0px"
	 viewBox="17.1 98.3 560.8 649.2" enable-background="new 17.1 98.3 560.8 649.2" xml:space="preserve">
<g id="large" display="none">
	<g display="inline">
		<g>
			<path d="M474.9,111.3c6.6,0,18.3,4.3,28.6,8.1c11,4.1,21.3,7.9,29.9,8.4c1.5,0.1,3,0.2,4.5,0.2
				c10.3,0,16.1-2.9,20.8-5.2c2.1-1.1,3.8-1.9,6.1-2.5c0.2,0.9,0.3,2.2,0.2,4.2c-0.1,1.3-0.3,3.9-5.8,6.6c-5.3,2.6-13.4,4-22.7,4
				c-0.6,0-1.2,0-1.9,0c0,0-0.1,0-0.1,0c-5.2-0.1-10.8-0.5-17.1-1c-9.7-0.8-21.7-1.7-37.9-1.7c-5.8,0-11.9,0.1-18.1,0.4
				c-11.6,0.5-27,6.3-48.3,14.5c-13.9,5.3-29.6,11.3-46.2,16.4c-47.7,14.6-79.4,37.9-89.2,65.5c0,0,0,0.1,0,0.1
				c-2.9,8.4-3,17.5-3,25.5c0,2.3-0.1,5.2-0.2,7.7c-2.4-1.4-5.8-4-10.1-8.4c-6.8-6.8-12.8-14.8-16.2-20c-4.2-6.5-3.3-15.3-2.5-23
				c0.3-2.8,0.6-5.5,0.6-8.1c1.7-1.5,4.6-4,6.8-8.2c2.1-3.9,2.6-7.2,2.9-9.1c0-0.1,0-0.2,0.1-0.3c0.1-0.1,0.2-0.2,0.3-0.3
				c0,0,0,0,0.1,0c0.9,0,2.1,0.1,3.3,0.2c1.9,0.2,4.1,0.4,6.5,0.4c1.7,0,3.3-0.1,4.9-0.3c9.6-1.2,14.8-6,17.8-10.1
				c2.2,0.8,4.9,1.5,8.2,1.5c2.1,0,4.2-0.3,6.5-0.8c6.5-1.5,9.9-5.1,11.6-8.1c3.5,1.9,7.6,3.5,12.4,3.5c5.4,0,10.4-2.1,14.3-6.2
				c9.4-9.6,9.1-18.2,7.4-23.9c1.7,0.2,3.5,0.4,5.4,0.6c4.1,0.5,8.7,1.1,13.3,1.1c1.1,0,2.2,0,3.3-0.1c0.1,0,0.1,0,0.2,0
				c10.6-0.9,17.5-7.7,23-13.1c3.5-3.5,6.9-6.8,11.2-9c3.2-1.6,6.5-2.3,11.6-2.3c2.4,0,4.9,0.1,7.5,0.3c3,0.2,6,0.3,9.3,0.3
				c3,0,5.7-0.2,8.4-0.5c7.1-0.8,11.5-2.6,14.9-4.1C461.1,112.7,464.2,111.3,474.9,111.3 M474.9,98.3c-22,0-20.9,5.7-34.2,7.2
				c-2.3,0.3-4.6,0.4-6.8,0.4c-5.7,0-11.3-0.6-16.8-0.6c-5.9,0-11.7,0.7-17.6,3.8c-13.5,7-18.5,19.9-29.2,20.7
				c-0.8,0.1-1.6,0.1-2.4,0.1c-7.3,0-15.5-1.9-22-1.9c-4.6,0-8.5,1-10.7,4.3c-5.9,8.9,9.2,11.8-2.6,23.8c-1.6,1.6-3.3,2.2-5,2.2
				c-6,0-12.8-7.5-18.8-7.5c-1.1,0-2.2,0.3-3.3,0.9c-5.5,3.3,3.1,9.8-4.8,11.6c-1.3,0.3-2.5,0.4-3.6,0.4c-5.8,0-7.3-4.2-10.3-4.2
				c-0.2,0-0.4,0-0.5,0c-7.4,1.3-4.8,11.3-16.8,12.9c-1.1,0.1-2.2,0.2-3.3,0.2c-3.6,0-6.8-0.6-9.9-0.6c-3.1,0-6,0.6-8.7,3.2
				c-6.1,5.9-3.3,8.1-6.1,13.5c-2.8,5.5-8.3,5-8.3,13.7c0,8.7-4.8,25.1,3.9,38.6c8.2,12.8,27.6,36,40.9,36c0.8,0,1.6-0.1,2.3-0.3
				c11.8-2.8,4.1-27.5,9.6-43.4c8.7-24.6,40.1-44.9,80.7-57.4c40.4-12.4,74.8-29.7,91.2-30.3c6.4-0.3,12.2-0.4,17.6-0.4
				c26.1,0,40.7,2.6,54.8,2.8c0.7,0,1.4,0,2.1,0c21.2,0,40.5-6.4,41.5-22.7c0.8-11.3-4-18.2-12.1-18.2c-1.3,0-2.6,0.2-4.1,0.5
				c-9.6,2.4-12,7.3-23.9,7.3c-1.1,0-2.3,0-3.6-0.1C519.8,114,491.4,98.3,474.9,98.3L474.9,98.3z"/>
		</g>
		<g>
			<path d="M500.6,287.8c2.7,8.1,9.4,11.5,13.1,13.4c0.5,0.2,1.1,0.5,1.5,0.8c-0.1,3.9-2.8,6.4-11.1,12.2
				c-8.5,6-20.1,14.2-21.1,29.6c0,0.1,0,0.1,0,0.2c-0.1,1.9-0.2,3.7-0.3,5.4c-0.6,11.1-0.8,14.9-3.5,21.4
				c-5.4,12.4-11.4,21-16.6,28.6c-7.4,10.7-14.4,20.9-16,36.2c-0.9,8.3,0.6,14.9,1.5,19.2c0.1,0.6,0.3,1.3,0.4,2
				c-0.4,0.4-0.9,0.8-1.3,1.1c-2.7,2.3-7.3,6-8.8,12.6c0,0,0,0.1,0,0.1c-0.3,1.5-0.5,2.8-0.7,4c0,0,0,0.1,0,0.1
				c-6.1,1.9-15.5,5.2-26.3,14.1c0,0-0.1,0-0.1,0.1c-0.6,0.5-1.1,1-1.7,1.4c-5.6,4.7-14.8,12.5-20.6,12.5l-0.1,0
				c-7.2-0.1-10.9-3.6-15.2-7.6c-4.1-3.7-9.1-8.4-16.8-8.4c-3.8,0-7.3,1.2-10.7,3.5c0,0,0,0,0,0c-4.8,3.4-7.5,8.6-7.4,14.4
				c0.1,3.8,0.3,15.5,30,35c4,2.6,7.1,5.6,9.7,8.2c4.7,4.6,10.1,9.8,18.4,9.8c4.2,0,8.2-1.4,12-4.2c4.5-3.3,11.3-4.8,17.2-6.1
				c1.4-0.3,2.8-0.6,4.1-0.9c16.6-4,22.5-8.9,31.1-18.6c3.9-4.3,6.9-6,10.3-7.8c3.8-2.1,8.4-4.6,12.7-10c3.8-4.8,7.2-10.1,10.5-15.2
				c3.2-4.9,6.1-9.6,9-13c1.8-2.2,3.1-3.3,3.9-3.9c0.2,0.8,0.3,2.3-0.3,4.7c-0.3,1.1-1.1,3.1-1.8,4.9c-1.5,4-3.3,8.5-4.1,13.1
				c-2,11.7,3.4,17.9,6.8,20.5c0.1,0,0.1,0.1,0.2,0.1c2.8,2.1,6.1,3.2,9.7,3.2c1.7,0,3.3-0.2,4.7-0.6c-0.8,4-1.7,8.2-2.4,11.4
				c-2.4,11.1-4.8,21.5-4.1,29.4c0.4,5,2.5,10.4,4.6,16c1.3,3.3,3.3,8.8,3.5,10.9c-0.4,4-1,7.1-1.6,10.3c-1.4,7.3-2.9,14.8-2.3,31
				c0.9,24-1.1,39.5-2.7,42.9c-0.8,1.6-5.8,4.9-9.8,7.5c-5.2,3.4-11.6,7.7-18.8,13.8c0,0,0,0-0.1,0.1l-4,3.5
				c-22.7,19.8-36.4,31.7-50,33.1c0,0-0.1,0-0.1,0c-2.9,0.3-6.4,0.5-10.3,0.5c-14.1,0-31.9-2.1-46.3-3.8
				c-11.4-1.4-20.3-2.4-26.4-2.4c-16.3,0-35.1,2.3-50.2,4.1c-9,1.1-17.6,2.1-21.6,2.1c-0.5,0-0.8,0-0.8,0
				c-16.3-1.5-21.9-5.7-29.2-12.5c-3.9-3.7-7.2-7-10.8-10.5c-4.6-4.6-9.4-9.4-15.8-15.2c0,0,0,0-0.1-0.1c-4.7-4.2-8.9-6.1-12.2-7.6
				c-3.6-1.6-5.7-2.6-9.4-7c-2.6-3.1-4.1-5.3-5.5-7.2c-3.3-4.7-5.8-7.9-12.7-13c0,0-0.1-0.1-0.1-0.1c-6.1-4.4-12.2-6.1-17.1-7.5
				c-2.6-0.7-5.6-1.6-6.4-2.4l-0.2-0.2c-8.4-9.2-12.6-13.9-27.1-27.1c-7.6-6.8-14.6-11.7-20.2-15.5c-5.5-3.8-10.7-7.4-11.4-9.7
				c-2.7-9-0.9-19.8,0.8-30.2c2.1-13.2,4.3-26.8-3.8-36.8c-0.1-0.1-0.1-0.1-0.2-0.2c-11.6-13.8-28-25.5-44.1-31.3
				c-2-0.7-3.9-1.3-5.5-1.7c-5.5-1.6-7.8-2.2-11.6-10.4c-1.5-3.3-3.3-6.2-4.8-8.5c0,0,0,0,0,0c5.8-2,13.8-4.8,18-12.5
				c0.5-0.9,3.4-5,10.9-12.7c5.4-5.6,11.2-10.9,14.6-13.4c2.3-1.6,6.2-2.6,10.3-3.7c5.1-1.3,10.9-2.8,16.4-6.1c0,0,0,0,0.1,0
				c14.5-8.9,18.5-16.3,21.5-23.7c1.4-3.4,2-5,6.8-8.3c5.1-3.6,9.3-6.6,12.6-9c8.1-5.9,11.1-8,15.2-9.5c15.8-5.4,21.7-10.3,28-15.6
				c1.8-1.5,3.6-3,5.8-4.6c0,0,0.1,0,0.1-0.1c5.3-4,7.8-9,9.3-12.7c2.9,2.4,7.2,5,13.5,5c0.9,0,1.7-0.1,2.6-0.1
				c3.8-0.4,7.3-1.2,10.8-2c4-0.9,7.8-1.8,10.9-1.8c1.3,0,2.3,0.2,3.2,0.5c0.8,0.3,1.2,0.6,1.3,0.7c0.3,0.6,0.5,2.6,0.6,3.9
				c0.5,5,1.7,15.4,12.7,19.8c2.8,1.1,5.8,1.7,8.9,1.7c7.3,0,14.4-3.2,20-9.1c7-7.4,11-18,10.5-28.6c-0.1-2.1-0.3-4.4-0.6-6.8
				c2.8,3,6.5,6.5,10.9,10.7c7.8,7.3,17.4,16.5,23.6,24.4c14.5,18.4,20.4,37,24.8,50.5c3.9,12.1,7,21.7,14.8,27
				c3.6,2.4,8.3,3.7,13.5,3.7c8.6,0,20.2-3.5,27-13.2c5.4-7.7,6.3-17.5,2.6-27.5c-0.8-2.2-1.6-4.2-2.3-6.2c-6-16-6.8-18.8-4.5-25.2
				c0.5-1.2,1.1-1.7,4.3-3.7c5.4-3.4,15.3-9.7,14.9-26.2c-0.2-6.7,0-10.6,0.5-11.6c0.1-0.1,0.6-0.8,3.7-2.6c5-3,10.3-4.5,16-6.2
				c5.9-1.7,12-3.5,18.3-6.9c9.5-5.2,20.1-15,30.4-24.5C496.8,291.4,498.7,289.6,500.6,287.8 M523.8,259.1c-2.7,0-5.9,0.7-9.4,2.1
				c-14.2,5.7-39.3,35.8-56.1,44.9c-10.7,5.9-22.7,6.1-34.7,13.3c-9.8,5.9-10.9,9.6-10.5,25.7c0.4,16.1-13.5,12.4-18.3,25.1
				c-4.6,12.7-0.9,19.6,6.8,40.4c6,16.3-7.9,23.3-17.3,23.3c-2.6,0-4.8-0.5-6.2-1.5c-10-6.8-9.6-40.4-36.6-74.8
				c-11.3-14.4-31.4-31-37.3-38.2c-5.7-7.2-2-26.7-15.1-26.7c-0.3,0-0.7,0-1.1,0c-12.7,1.1-4.4,30.5-3.7,45.2
				c0.6,12.7-8.3,24.1-17.5,24.1c-1.4,0-2.7-0.3-4.1-0.8c-8.7-3.5,0.9-18.3-14.8-24.4c-2.6-0.9-5.2-1.3-7.8-1.3
				c-7.8,0-15.8,3.1-23.1,3.9c-0.4,0-0.8,0.1-1.2,0.1c-7,0-7-7.6-13.9-7.6c-1.4,0-3,0.3-5,1c-7,2.6-4.6,11.6-11.8,17
				c-10.3,7.6-12.4,12.2-30.3,18.3c-8.7,3.1-13.7,8.1-31,20.1c-17.2,12-5.2,17.9-27.7,31.6c-8.3,5-19.6,4.6-27.7,10.5
				c-7.9,5.9-25.5,23.6-29.2,30.5c-3.7,7-20.3,6.1-21.8,14.2c-1.1,5.7,5,11.1,8.3,18.3c7.6,16.8,16.1,15.9,24.4,19
				c12,4.4,27.3,14,38.6,27.5c8.9,11.1-6.3,39,0.7,62.6c3.3,11.1,17.7,15.3,35.3,31.2c14.2,12.9,18.1,17.2,26.4,26.4
				c6.1,6.8,16.4,5.2,25.5,11.8c8.9,6.5,7.6,8.3,15.9,18.1c9.4,11.1,15.1,8.9,22.9,15.9c10.9,9.8,17,16.8,26.4,25.5
				c9.4,8.7,17.7,14.2,36.9,15.9c0.6,0.1,1.2,0.1,2,0.1c11.9,0,45.7-6.2,71.8-6.2c12.7,0,47.2,6.3,72.6,6.3c4.2,0,8.2-0.2,11.8-0.6
				c18.5-2,34.5-16.6,61.1-39.7c15.3-13.1,27.5-17.2,31.6-25.3c4.1-8.1,4.8-31.4,4.1-49.3c-0.9-22.5,2.6-26,3.9-39.9
				c0.7-7.4-7.4-21.6-8.1-29c-1.3-14.6,14-53,5-58.2c-0.5-0.3-1-0.4-1.6-0.4c-4.2,0-10.5,6.6-14.7,6.6c-0.7,0-1.3-0.2-1.9-0.6
				c-5.9-4.6,1.7-17.7,3.7-24.9c3.9-14.6-5.2-21.4-11.3-21.6c-0.1,0-0.2,0-0.4,0c-13.1,0-22.4,22.8-34.1,37.5
				c-5.7,7.2-12.4,6.1-22.5,17.2c-7,7.9-10.7,11.3-24.4,14.6c-7.2,1.7-17.9,3.3-26,9.2c-1.6,1.2-3,1.7-4.3,1.7
				c-5.4,0-9.8-8.5-21-15.8c-14-9.2-29.7-22.7-22.2-27.9c1.1-0.8,2.2-1.1,3.2-1.1c6.9,0,12.3,15.6,31.7,16c0.1,0,0.2,0,0.3,0
				c11.2,0,22.6-10.3,30.6-17c11.1-9.2,20.5-11.1,25.5-12.9c5.2-2,4.8-7.6,5.9-12.4c1.1-4.6,7-6.1,9.8-11.6
				c3.1-5.5-2.6-12.4-1.3-25.1c2.2-21.6,18.1-30.1,31.6-61.1c4.1-9.8,3.9-15.5,4.8-31.2c1.3-19.4,32.3-21.2,32.3-43
				c0-13.7-14-10.3-15.7-19.4s20.7-6.3,19.9-15.7C532,261.5,528.7,259.1,523.8,259.1L523.8,259.1z"/>
		</g>
	</g>
</g>
<g id="small">
	<g>
		<g>
			<path d="M474.9,104.3c7.9,0,20.2,4.5,31,8.6c10.5,3.9,20.4,7.5,27.9,8c1.4,0.1,2.7,0.2,4,0.2
				c8.7,0,13.4-2.4,17.7-4.5c2.4-1.2,4.6-2.3,7.7-3.1c0.9-0.2,1.8-0.4,2.6-0.4c2.1,0,3.2,0.8,3.8,1.5c1.8,1.9,2.6,5.7,2.3,10.3
				c-0.3,5.4-3.6,9.4-9.8,12.4c-6.4,3.1-15.3,4.7-25.7,4.7c-0.7,0-1.3,0-2,0c-5.5-0.1-11.1-0.5-17.6-1c-9.6-0.8-21.5-1.7-37.3-1.7
				c-5.7,0-11.7,0.1-17.8,0.4c-10.4,0.4-26.2,6.4-46.1,14c-14,5.3-29.8,11.4-46.6,16.6c-21.1,6.5-39.8,15.1-54,24.9
				c-15.7,10.9-26,23-30.7,36.2c0,0,0,0,0,0.1c-2.5,7.3-2.6,15.8-2.7,23.3c-0.1,6.2-0.2,15.5-2.6,16.2c-0.3,0.1-0.6,0.1-0.9,0.1
				c-8.6,0-25.5-17.2-35.8-33.3c-5.6-8.6-4.4-19.1-3.5-27.6c0.3-2.8,0.6-5.5,0.6-7.8c0-2.7,0.5-3.1,2.4-4.8c1.5-1.3,3.6-3.1,5.2-6.2
				c1.5-2.9,1.9-5.3,2.2-7c0.3-1.9,0.4-2.7,2.8-5c1.2-1.2,2.4-1.6,4.5-1.6c1.2,0,2.5,0.1,4,0.3c1.8,0.2,3.7,0.3,5.9,0.3
				c1.4,0,2.7-0.1,4-0.2c9.7-1.2,13.1-7,15.2-10.5c0.6-1,1-1.6,1.2-1.9c1.9,1.4,5.1,3.8,10.5,3.8c1.5,0,3.2-0.2,4.9-0.6
				c4.4-1,9.3-3.9,7.9-12.1c1.5,0.5,3.5,1.7,5.2,2.7c3.7,2.2,7.8,4.6,12.5,4.6c3.5,0,6.7-1.4,9.3-4c9.7-9.9,6-17.3,3.9-21.3
				c-1.2-2.4-1.2-2.4-0.6-3.4c0.3-0.4,1.1-1.6,5.7-1.6c2.8,0,6.1,0.4,9.7,0.9c4,0.5,8.2,1.1,12.4,1.1c1,0,1.9,0,2.8-0.1
				c0,0,0.1,0,0.1,0c8.1-0.7,13.4-6,18.6-11.1c3.7-3.7,7.6-7.6,12.9-10.3c4.2-2.2,8.6-3.1,14.8-3.1c2.6,0,5.2,0.1,7.9,0.3
				c2.9,0.2,5.8,0.3,8.9,0.3c2.7,0,5.2-0.1,7.5-0.4c6.2-0.7,9.8-2.2,13.1-3.6C458.7,106.1,462.8,104.3,474.9,104.3 M474.9,98.3
				c-22,0-20.9,5.7-34.2,7.2c-2.3,0.3-4.6,0.4-6.8,0.4c-5.7,0-11.3-0.6-16.8-0.6c-5.9,0-11.7,0.7-17.6,3.8
				c-13.5,7-18.5,19.8-29.2,20.7c-0.8,0.1-1.6,0.1-2.4,0.1c-7.3,0-15.5-1.9-22-1.9c-4.6,0-8.5,1-10.7,4.3
				c-5.9,8.9,9.2,11.8-2.6,23.8c-1.6,1.6-3.3,2.2-5,2.2c-6,0-12.8-7.5-18.8-7.5c-1.1,0-2.2,0.3-3.3,0.9c-5.5,3.3,3.1,9.8-4.8,11.6
				c-1.3,0.3-2.5,0.4-3.6,0.4c-5.8,0-7.3-4.2-10.3-4.2c-0.2,0-0.4,0-0.5,0c-7.4,1.3-4.8,11.3-16.8,12.9c-1.1,0.1-2.2,0.2-3.3,0.2
				c-3.6,0-6.8-0.6-9.9-0.6c-3.1,0-6,0.6-8.7,3.2c-6.1,5.9-3.3,8.1-6.1,13.5c-2.8,5.5-8.3,5-8.3,13.7c0,8.7-4.8,25.1,3.9,38.6
				c8.2,12.8,27.6,36,40.9,36c0.8,0,1.6-0.1,2.3-0.3c11.8-2.8,4.1-27.5,9.6-43.4c8.7-24.6,40.1-44.9,80.7-57.4
				c40.4-12.4,74.8-29.7,91.2-30.3c6.4-0.3,12.2-0.4,17.6-0.4c26.1,0,40.7,2.6,54.8,2.8c0.7,0,1.4,0,2.1,0
				c21.2,0,40.5-6.4,41.5-22.7c0.8-11.3-4-18.2-12.1-18.2c-1.3,0-2.6,0.2-4.1,0.5c-9.6,2.4-12,7.3-23.9,7.3c-1.1,0-2.3,0-3.6-0.1
				C519.8,114,491.4,98.3,474.9,98.3L474.9,98.3z"/>
		</g>
		<g>
			<path d="M523.8,265.1c2.2,0,2.5,0.5,2.6,1.6c-1.2,0.8-4.1,1.7-6,2.2c-3,0.9-6,1.8-8.6,3.4
				c-4.2,2.6-6,6.7-5.2,11.2c1.3,6.9,6.7,9.6,10.3,11.5c4.2,2.1,5.3,2.9,5.3,6.8c0,7.8-5.4,12-14.1,18.2
				c-8.1,5.7-17.4,12.2-18.2,24.4c0,0,0,0,0,0.1c-0.1,1.9-0.2,3.7-0.3,5.4c-0.6,11.4-0.8,16.2-4,23.8c-5.7,13.1-11.9,22-17.3,29.8
				c-7.2,10.4-13.4,19.4-14.8,33c-0.7,7.2,0.5,12.9,1.4,17c0.5,2.5,1.1,5,0.7,5.8c0,0.1-0.1,0.1-0.1,0.2c-0.8,1.5-2.2,2.7-3.8,4.1
				c-2.4,2-5.5,4.6-6.5,8.9c0,0,0,0,0,0.1c-0.3,1.2-0.5,2.4-0.6,3.5c-0.6,3.6-0.9,4.4-1.5,4.6c-0.6,0.2-1.4,0.5-2.2,0.7
				c-5.5,1.7-14.7,4.6-25,13.2c0,0,0,0,0,0c-0.6,0.5-1.1,0.9-1.7,1.4c-7.1,6-16.8,14.2-25.1,14.2l-0.2,0c-9.8-0.2-15.1-5.1-19.8-9.4
				c-3.5-3.2-7.1-6.6-12-6.6c-2.3,0-4.5,0.7-6.7,2.2c-2.9,2.1-4.5,5.1-4.4,8.6c0.1,4.7,3.2,9.8,9.7,16c4.4,4.2,10.5,8.9,17.2,13.2
				c4.6,3,7.9,6.2,10.8,9c4.3,4.2,8.1,7.8,13.5,7.8c2.7,0,5.3-0.9,7.9-2.8c5.7-4.2,13.6-5.9,19.9-7.3c1.4-0.3,2.7-0.6,4-0.9
				c14.9-3.5,19.6-7.5,27.5-16.4c4.7-5.3,8.5-7.3,12.2-9.3c3.5-1.9,7.2-3.9,10.6-8.2c3.6-4.5,6.9-9.6,10.1-14.6
				c6.2-9.7,13.3-20.6,19.3-20.6c0.1,0,0.1,0,0.2,0c1.3,0,3.3,1,4.7,2.9c1.9,2.6,2.3,6.5,1,11.2c-0.4,1.5-1.2,3.5-2,5.6
				c-3.2,8.2-7.5,19.4,0.4,25.5c0,0,0.1,0,0.1,0.1c1.6,1.2,3.4,1.8,5.5,1.8c3.8,0,7.2-2.2,10.6-4.3c0.7-0.4,1.6-1,2.5-1.5
				c0.1,1.3,0.1,3.6-0.4,7.2c-0.7,5.3-2.1,11.7-3.5,17.9c-2.3,10.5-4.5,20.5-3.9,27.2c0.4,4.1,2.2,9,4.2,14.2
				c1.8,4.6,4.1,11,3.9,13.7c-0.4,4.5-1.1,7.8-1.8,11.3c-1.4,6.9-2.8,14-2.2,29.4c0.8,21.7-0.6,40.8-3.5,46.3
				c-1.7,3.2-6,6.1-12.1,10.2c-5,3.3-11.3,7.5-18.1,13.3l-4,3.4c-23.8,20.7-38.1,33.2-53.9,34.8c-3.2,0.4-6.9,0.5-11.1,0.5
				c-14.5,0-32.6-2.2-47.1-3.9c-10.7-1.3-19.9-2.4-25.5-2.4c-15.9,0-34.5,2.2-49.4,4c-9.6,1.2-18,2.2-22.4,2.2c-0.6,0-1.1,0-1.4-0.1
				c-18.4-1.7-25.4-7-33.3-14.3c-4-3.7-7.4-7.1-10.9-10.7c-4.6-4.6-9.3-9.3-15.5-14.9c-3.9-3.5-7.4-5.1-10.5-6.5
				c-3.8-1.8-7.2-3.3-11.8-8.8c-2.8-3.4-4.5-5.7-5.9-7.7c-2.7-3.8-4.6-6.6-11.1-11.4c0,0,0,0-0.1,0c-5.1-3.7-10.3-5.2-14.9-6.5
				c-4.2-1.2-7.5-2.1-9.6-4.5l-0.2-0.2c-8.2-9.1-12.3-13.6-26.6-26.6c-7.3-6.5-14-11.2-19.5-15c-7.7-5.3-12.7-8.8-14.1-13.5
				c-3.1-10.5-1.1-22.6,0.6-33.3c2-12.2,3.8-23.7-2.3-31.3c0,0-0.1-0.1-0.1-0.1C82.4,523.3,67,512.4,52,506.9
				c-1.7-0.6-3.4-1.1-5-1.6c-6.4-1.8-11-3.1-16-14.3c-1.3-2.9-3-5.5-4.5-7.8c-1.6-2.5-3.6-5.6-3.4-6.9c0.6-1.1,5-2.6,7.2-3.3
				c5.3-1.8,11.2-3.9,14.1-9.2c3.1-5.8,19.7-22.6,27.5-28.5c3.4-2.5,7.9-3.6,12.7-4.8c4.9-1.2,9.9-2.5,14.6-5.3
				c12.8-7.8,15.9-13.6,18.7-20.4c1.6-3.9,2.8-6.9,9.3-11.4c5.1-3.5,9.2-6.5,12.5-8.9c7.8-5.7,11.7-8.5,17-10.4
				c14.6-5,19.8-9.3,25.9-14.3c1.8-1.5,3.7-3.1,6.1-4.9c4.9-3.7,6.6-8.5,7.9-12c1.1-3.2,1.5-3.9,2.4-4.2c1.5-0.5,2.4-0.7,2.9-0.7
				c0.6,0,0.7,0,2.4,1.8c2,2.2,5.3,5.8,11.5,5.8c0.6,0,1.2,0,1.9-0.1c3.4-0.4,6.7-1.2,10-1.9c4.4-1,8.6-2,12.5-2
				c2.2,0,4,0.3,5.7,0.9c5.3,2.1,5.8,4.8,6.4,10.4c0.5,4.5,1.2,11.2,8.3,14c2,0.8,4.1,1.2,6.3,1.2c5.3,0,10.6-2.5,14.9-7
				c5.7-6,8.9-14.8,8.6-23.4c-0.2-3.9-0.8-8.5-1.5-13.4c-0.8-6.1-1.7-12.4-1.8-17.6c0-6.1,1.1-7.7,1.3-7.9c0,0,0.1,0,0.2,0
				c0.2,0,0.4,0,0.6,0c2.6,0,3.6,1.4,5.4,10.5c1,4.9,1.9,10.1,5,13.9c0,0,0,0,0.1,0.1c2.6,3.2,7.1,7.5,12.9,12.9
				c7.9,7.5,17.8,16.8,24.3,25.1c15.2,19.4,21.4,38.7,25.9,52.7c3.6,11.3,6.2,19.4,12.1,23.4c3.1,2.1,6.9,2.5,9.6,2.5
				c6.5,0,15.9-2.7,21.2-10.2c2.8-4.1,5.4-11,1.7-21.1c-0.8-2.2-1.6-4.2-2.3-6.1c-6.2-16.5-7.7-21.2-4.5-30.1
				c1.4-3.6,3.8-5.1,7.1-7.2c5-3.2,12-7.6,11.6-20.1c-0.4-15.1,0.5-16.2,7.6-20.4c5.8-3.5,11.5-5.1,17.7-6.9
				c5.5-1.6,11.3-3.3,16.8-6.3c8.7-4.8,19.1-14.3,29-23.5c9.9-9.1,20-18.5,26.4-21.1C520.1,265.4,522.5,265.1,523.8,265.1
				 M523.8,259.1c-2.7,0-5.9,0.7-9.4,2.1c-14.2,5.7-39.3,35.8-56.1,44.9c-10.7,5.9-22.7,6.1-34.7,13.3c-9.8,5.9-10.9,9.6-10.5,25.7
				c0.4,16.1-13.5,12.4-18.3,25.1c-4.6,12.7-0.9,19.6,6.8,40.4c6,16.3-7.9,23.3-17.3,23.3c-2.6,0-4.8-0.5-6.2-1.5
				c-10-6.8-9.6-40.4-36.6-74.8c-11.3-14.4-31.4-31-37.3-38.2c-5.7-7.2-2-26.7-15.1-26.7c-0.3,0-0.7,0-1.1,0
				c-12.7,1.1-4.4,30.5-3.7,45.2c0.6,12.7-8.3,24.1-17.5,24.1c-1.4,0-2.7-0.3-4.1-0.8c-8.7-3.5,0.9-18.3-14.8-24.4
				c-2.6-0.9-5.2-1.3-7.8-1.3c-7.8,0-15.8,3.1-23.1,3.9c-0.4,0-0.8,0.1-1.2,0.1c-7,0-7-7.6-13.9-7.6c-1.4,0-3,0.3-5,1
				c-7,2.6-4.6,11.6-11.8,17c-10.3,7.6-12.4,12.2-30.3,18.3c-8.7,3.1-13.7,8.1-31,20.1s-5.2,17.9-27.7,31.6
				c-8.3,5-19.6,4.6-27.7,10.5c-7.9,5.9-25.5,23.6-29.2,30.5c-3.7,7-20.3,6.1-21.8,14.2c-1.1,5.7,5,11.1,8.3,18.3
				c7.6,16.8,16.1,15.9,24.4,19c12,4.4,27.3,14,38.6,27.5c8.9,11.1-6.3,39,0.7,62.6c3.3,11.1,17.7,15.3,35.3,31.2
				c14.2,12.9,18.1,17.2,26.4,26.4c6.1,6.8,16.4,5.2,25.5,11.8c8.9,6.5,7.6,8.3,15.9,18.1c9.4,11.1,15.1,8.9,22.9,15.9
				c10.9,9.8,17,16.8,26.4,25.5c9.4,8.7,17.7,14.2,36.9,15.9c0.6,0.1,1.2,0.1,2,0.1c11.9,0,45.7-6.2,71.8-6.2
				c12.7,0,47.2,6.3,72.6,6.3c4.2,0,8.2-0.2,11.8-0.6c18.5-2,34.5-16.6,61.1-39.7c15.3-13.1,27.5-17.2,31.6-25.3
				c4.1-8.1,4.8-31.4,4.1-49.3c-0.9-22.5,2.6-26,3.9-39.9c0.7-7.4-7.4-21.6-8.1-29c-1.3-14.6,14-53,5-58.2c-0.5-0.3-1-0.4-1.6-0.4
				c-4.2,0-10.5,6.6-14.7,6.6c-0.7,0-1.3-0.2-1.9-0.6c-5.9-4.6,1.7-17.7,3.7-24.9c3.9-14.6-5.2-21.4-11.3-21.6c-0.1,0-0.2,0-0.4,0
				c-13.1,0-22.4,22.8-34.1,37.5c-5.7,7.2-12.4,6.1-22.5,17.2c-7,7.9-10.7,11.3-24.4,14.6c-7.2,1.7-17.9,3.3-26,9.2
				c-1.6,1.2-3,1.7-4.3,1.7c-5.4,0-9.8-8.5-21-15.8c-14-9.2-29.7-22.7-22.2-27.9c1.1-0.8,2.2-1.1,3.2-1.1c6.9,0,12.3,15.6,31.7,16
				c0.1,0,0.2,0,0.3,0c11.2,0,22.6-10.3,30.6-17c11.1-9.2,20.5-11.1,25.5-12.9c5.2-2,4.8-7.6,5.9-12.4c1.1-4.6,7-6.1,9.8-11.6
				c3.1-5.5-2.6-12.4-1.3-25.1c2.2-21.6,18.1-30.1,31.6-61.1c4.1-9.8,3.9-15.5,4.8-31.2c1.3-19.4,32.3-21.2,32.3-43
				c0-13.7-14-10.3-15.7-19.4c-1.7-9.2,20.7-6.3,19.8-15.7C532,261.5,528.7,259.1,523.8,259.1L523.8,259.1z"/>
		</g>
	</g>
</g>
</svg>
