<svg xmlns="http://www.w3.org/2000/svg" viewBox="9.6 158.9 576.9 524.3" enable-background="new 9.6 158.9 576.9 524.3"><path d="M582.3 207.8c1-7.9 4-28.1 1-31.8-5.2-6.4-10.8-1.9-18.7-5.9-7.1-3.5-16.2-11.1-24.6-11.1-24.4 0-33.3 15.3-40.9 24.8-13.6 17-24.9 8.1-36 14.1-9.4 5.1-17.8 18.5-28 21s-16.7 3-25.3 7.4c-15.5 7.7-15.5 18.4-22.2 20.4s-15.2.7-20.4 7.4c-3.7 4.7-4.7 30.1-21 33s-47.7-3.4-61.6-7.7c-17-5.7-37.4-5.2-37.4-5.2s3.7 3.2 4.2 12c.8 13.3-1.2 23.6-4.2 25.4-5.4 3.2-21-17-36.4-18.9-9.9-1.3-23.4 9.3-29.3 10.9s-15 .7-23.4 3.7c-6.1 2.2-50.2 29-50.9 47.5-.5 14.8 16.8 26.1 12.5 36.9-3.2 7.9-31.8 16-39.6 29.6-3.9 6.9-1.2 17.3-9.6 25.8s-11.6 10.1-16.7 4.7-4.4-10.1-7.4-12.3-11.8 5.1-17.2 10.1-14.2 13.3-13.4 17.7c1.7 8.6 27.3 14 26.4 32-.7 15.2-15.2 15-20.2 22.2-5.1 7.2 4 16.5 2.4 22.7-1.7 6.2-14.8 10.8-14.8 20.7 0 6.7 13.1 16 15.5 23.6s1.5 16.8 6.7 26.3c3.9 7.1 5.1 4 8.1 10.8s-1.2 12.3 2.2 14.3 9.8 8.3 18.2 12.6c9.6 4.9 14.8 4.9 20.5 8.8 6.9 4.7 8.9 12 15.7 18.4 6.7 6.4 13 3.2 18-.7 7.1-5.4 10.9-1.7 17.8-6.6 8.4-5.9 6.9-13.8 16-16.8 15.5-5.2 21.6 3.7 29 .3s9.1-5.2 18.4-5.1c10.1.2 17.3 6.9 25.8 3.5s7.4-8.4 15-11.5c7.6-3 14.3-3.9 20.4-11.5s3.9-6.1 11.1-11.6c7.2-5.6 11.6-5.4 20-11.3 6.7-4.7 13.1-11.5 20.4-18.9 4.5-4.7 12.6-9.1 17.7-14.3 7.2-7.4 13.6-13.1 19-18.2 8.3-7.7 16.8-7.4 18.5-11.1 1.7-3.7 2.5-8.6 1.9-17-1.9-24.6 3.7-32.8 3.4-39.6s-4-15.3-3.2-32.7c1-24.2 7.1-27.6 3.4-34.4-4.7-8.1-26.3-18-26.3-28.1 0-18.4 20.2-17.2 28.3-24.1 7.9-6.7 14-17.3 22.6-24.1 5.4-4.2 22.9-12.5 29.1-18.4s10.9-12.1 10.1-16.8c-.8-4.7-3.7-9.9 1.2-12.8 4.9-3 8.9-5.2 12.6-9.9 3.7-4.7 6.4-9.3 9.8-10.1s11.6 4.9 18.7-6.1c7.1-10.9 3.7-27.3-5.2-35.7-4.2-3.9 2.7-6.7 15.3-3.5 4.4 1 4.5-11.8 9.1-9.3 4.5 2.5 1.9 13.3 2.2 21.6.3 7.9 2 13.3 3.7 19.5 2 7.4 2.4 9.6 4 16.3s3.4 17.7 10.3 25.6c8.4 9.8 39.9 17.8 52.5 11.8 9.9-4.7 15.5-10.9 15.8-42.9.2-9.8 3.7-24.9 3.7-34s-5-27.6-4.3-33.4z"/></svg>