<svg xmlns="http://www.w3.org/2000/svg" viewBox="9.6 158.9 576.9 524.3" enable-background="new 9.6 158.9 576.9 524.3"><path d="M540 171.9c2.4 0 8 3.5 11.4 5.5 2.4 1.5 4.8 3 7.3 4.2 5.1 2.6 9.5 3.1 12.9 3.3-.1 4-.8 10.2-1.9 18.6-.1.9-.2 1.8-.3 2.5v.2c-.5 4.6.4 10.5 2 19.7.9 5.4 2.1 12.1 2.1 15.5 0 3.7-.9 9.5-1.7 15.1-.9 6.4-1.9 13-2 18.7v.1c-.1 13.1-1.2 22-3.2 26.7-.9 2.2-1.7 3.1-5.2 4.7h-.1c-.6.3-2.6.8-6.1.8-13.2 0-28.2-6.2-30.9-9.4v-.1c-3.8-4.3-5.4-11.3-6.7-16.9-.3-1.2-.5-2.3-.8-3.3-.6-2.5-1-4.3-1.5-6.1-.7-2.9-1.3-5.7-2.6-10.5-.2-.6-.4-1.3-.5-1.9-1.4-5.1-2.5-9.1-2.7-14.8-.1-1.8.1-4.2.2-6.4.5-8 1.3-20.2-9.1-25.9-2.3-1.3-4.9-2-7.4-2-5.2 0-9.9 2.7-12.9 7.4-.2.3-.4.7-.6 1-1.4-.1-2.8-.2-4.1-.2-12.8 0-17.3 6.6-18.8 10.5-2.3 5.8-.6 12.3 4.3 16.9 4.4 4.2 6.8 13.6 3.2 19.2-.2.4-.4.6-.6.8-.4-.1-.9-.2-1.4-.2-1.4-.2-3-.6-5-.6-1.4 0-2.7.2-4 .5-7.2 1.8-11.3 7.3-14.9 12.1-.6.9-1.3 1.8-2 2.6-1.8 2.3-3.8 3.5-7.7 5.9l-1.5.9c-5.4 3.2-8.6 8.4-9 14.6-.3 3.8.6 7.2 1.3 9.6 0 .1.1.3.1.4-.7 1.1-2.3 3.3-5.9 6.7-2.5 2.4-10.3 6.8-15.4 9.7-5.3 3-9.8 5.6-12.8 7.9-5.7 4.5-10.2 10-14.2 14.8-3 3.7-5.9 7.2-8.8 9.6-.9.7-4.2 1.9-6.3 2.7-4.8 1.8-10.9 3.9-16 8.2-6.9 5.7-10.5 13.6-10.5 23.1 0 12.5 11.1 21.1 20.1 28 2.2 1.7 5.4 4.2 7.1 5.8-.1.6-.3 1.4-.5 2-1.3 5.1-3.2 12.9-3.8 26.1-.6 13.3 1.1 22.3 2.3 28.3.4 2.3.8 4.3.9 5.5 0 .7-.5 2.7-.8 4.3-1.5 6.9-3.9 17.3-2.5 35.6v.1c.3 3.2.3 5.8 0 7.7-4 1.6-10.2 4.2-16.3 9.9-1.2 1.1-2.4 2.3-3.7 3.5-4.6 4.3-9.9 9.1-15.7 15.1-1.8 1.9-4.7 4-7.5 6-3.5 2.5-7.1 5.2-10.1 8.3l-1.6 1.6c-6.3 6.4-11.7 12-16.9 15.6-3.1 2.2-5.5 3.3-8.2 4.5-3.5 1.6-7.4 3.4-12.3 7.1-5.9 4.5-7 5.5-10.3 9.8-.7 1-1.7 2.2-3.1 4-2.3 2.9-4.5 3.8-9.7 5.6-1.6.6-3.4 1.2-5.3 1.9-6.7 2.7-10 6.5-12.1 9.1-1.4 1.6-1.5 1.8-2.9 2.3h-.1c-1 0-3.3-.7-5.4-1.4-4-1.3-9.1-3-15.2-3.1h-1.4c-9.7 0-14.4 2.3-19.4 4.7-.7.3-1.4.7-2.1 1-.6-.1-1.3-.4-1.9-.5-3.2-.9-7.6-2.1-13.2-2.1-4.5 0-9 .8-13.7 2.3-9.7 3.2-13.6 10-15.9 14.1-1.4 2.4-2 3.5-3.4 4.4h-.1c-.7.5-.7.5-2.8.8-3.4.4-9 1.2-15.4 6.1-.7.5-1.2.9-1.6 1.1-1.8-1.8-3.2-3.9-4.8-6.2-2.8-4-6.2-9-12-13-4.4-3-8.5-4.4-12.3-5.7-2.9-1-5.8-2-9.5-3.9-4.4-2.3-8.4-5.4-11.5-7.9-.2-.2-.4-.3-.6-.5.1-3.3-.2-7.6-2.3-12.3-2.3-5.1-4.5-7.6-7.3-10l-.3-.3c-.1-.1-.4-.5-.9-1.5v-.1c-2.2-3.9-2.8-8.1-3.5-13-.5-3.5-1-7.1-2.2-10.8-1.9-6.1-6.2-11-10.4-15.8-1.1-1.3-2.6-3-3.7-4.4 1-1 2.4-2.3 3.4-3.1 3.8-3.3 8.4-7.3 10.2-13.7 1.8-6.7-.5-12.6-2.1-17-.3-.7-.6-1.6-.9-2.4.7-.4 1.6-.9 2.2-1.3 6.4-3.5 18.3-10 19-27.1.9-18.4-13.7-28.1-22.4-33.9-.3-.2-.7-.5-1-.7 2.2-2.2 4.7-4.6 6-5.8l.3-.3c1-1 2-1.8 2.9-2.6.9 1.3 2 2.8 3.3 4.2 1.7 1.8 6.8 7.2 14.9 7.2 8.2 0 14.1-5.3 20.5-11.6 8.1-8.1 9.7-17.5 10.7-23.6.3-1.7.7-4.2 1.1-4.9 2.5-4.3 12.5-9.8 19.1-13.4 10.1-5.5 18.1-9.9 21.2-17.7 4.7-11.7-1.5-21.8-6.1-29.3-2.7-4.3-5.5-8.8-5.4-12 .2-1.8 3.9-8.7 18.2-20 10.7-8.4 21.6-14.7 24.2-15.8 3.2-1.1 7.2-1.4 11.1-1.7 3.8-.3 7.6-.6 11.4-1.7 3.3-.9 6.6-2.7 10.4-4.8 3.7-2 10.5-5.7 13.5-5.7H209.9c4.7.6 11.8 5.9 17 9.8 6.7 5.1 12.5 9.5 19.6 9.5 2.8 0 5.6-.7 8-2.2l.1-.1c4.9-3 8.1-8.7 9.6-17.3.9-5 1.2-10.9 1-17.1 5.1.7 10.8 1.7 15.9 3.5.1 0 .2.1.3.1 11.2 3.5 36.2 9.1 55.7 9.1 4.5 0 8.6-.3 12.1-.9 6.3-1.1 15.1-4.8 21.6-16.2 3.5-6.2 5.5-13.1 6.9-18.2.3-1.2.8-2.7 1.1-3.8 1-.4 3.5-.8 5.2-1 2.5-.4 5.3-.7 8.2-1.6 7.2-2.2 10.9-7.4 13.5-11.3 2.6-3.7 4.8-6.9 10.8-9.9h.1c4.8-2.4 8.7-3.3 14.7-4.6 2.3-.5 5-1.1 7.9-1.8 9.1-2.3 16-8.9 22.1-14.7 3.2-3 6.4-6.2 8.9-7.5h.1c1.4-.8 3.4-.9 6.8-1.1 8.3-.4 20.8-1 33.1-16.3.9-1.1 1.8-2.2 2.6-3.3 5.6-8.4 11.8-16.5 27.2-16.5m0-13c-24.4 0-33.3 15.3-40.9 24.8-13.6 17-24.9 8.1-36 14.1-9.4 5.1-17.9 18.5-28 21-10.1 2.5-16.7 3-25.3 7.4-15.5 7.7-15.5 18.4-22.2 20.4-6.7 2-15.2.7-20.4 7.4-3.7 4.7-4.7 30.1-21 33-2.9.5-6.2.7-9.8.7-17 0-40.3-4.9-51.8-8.5-14.5-4.9-31.3-5.2-36.1-5.2h-1.3s3.7 3.2 4.2 12c.8 13.3-1.2 23.6-4.2 25.4-.4.2-.8.3-1.3.3-6.3 0-20.8-17.5-35-19.2-.6-.1-1.2-.1-1.8-.1-9.7 0-22 9.5-27.5 11.1-5.9 1.7-15 .7-23.4 3.7-6.1 2.2-50.2 29-50.9 47.5-.5 14.8 16.8 26.1 12.5 36.9-3.2 7.9-31.8 16-39.6 29.6-3.9 6.9-1.2 17.3-9.6 25.8-5.2 5.2-8.4 7.8-11.3 7.8-1.8 0-3.5-1-5.4-3.1-5.1-5.4-4.4-10.1-7.4-12.3-.4-.3-.9-.4-1.4-.4-3.8 0-11.1 6.1-15.8 10.5-5.4 5.1-14.3 13.3-13.5 17.7 1.7 8.6 27.3 14 26.4 32-.7 15.2-15.2 15-20.2 22.2-5.1 7.2 4 16.5 2.4 22.7-1.7 6.2-14.8 10.8-14.8 20.7 0 6.7 13.1 16 15.5 23.6 2.4 7.6 1.5 16.8 6.7 26.3 3.9 7.1 5.1 4 8.1 10.8 3 6.7-1.2 12.3 2.2 14.3 3.4 2 9.8 8.3 18.2 12.6 9.6 4.9 14.8 4.9 20.5 8.8 6.9 4.7 8.9 12 15.7 18.4 2.8 2.6 5.5 3.6 8 3.6 3.6 0 7-2 10-4.3 7.1-5.4 10.9-1.7 17.9-6.6 8.4-5.9 6.9-13.8 16-16.8 3.7-1.2 6.8-1.7 9.6-1.7 6.9 0 11.4 2.8 15.7 2.8 1.2 0 2.4-.2 3.6-.8 7.1-3.2 8.9-5.1 17.2-5.1h1.1c8.1.1 14.3 4.5 20.8 4.5 1.6 0 3.3-.3 4.9-.9 8.4-3.4 7.4-8.4 15-11.5 7.6-3 14.3-3.9 20.4-11.5 6.1-7.6 3.9-6.1 11.1-11.6 7.2-5.6 11.6-5.4 20-11.3 6.7-4.7 13.1-11.5 20.4-18.9 4.5-4.7 12.6-9.1 17.7-14.3 7.2-7.4 13.6-13.1 19-18.2 8.3-7.7 16.8-7.4 18.5-11.1 1.7-3.7 2.5-8.6 1.9-17-1.9-24.6 3.7-32.8 3.4-39.6-.3-6.7-4-15.3-3.2-32.7 1-24.2 7.1-27.6 3.4-34.4-4.7-8.1-26.3-18-26.3-28.1 0-18.4 20.2-17.2 28.3-24.1 7.9-6.7 14-17.3 22.6-24.1 5.4-4.2 22.9-12.5 29.1-18.4 6.2-5.9 10.9-12.1 10.1-16.8-.8-4.7-3.7-9.9 1.2-12.8 4.9-3 8.9-5.2 12.6-9.9 3.7-4.7 6.4-9.3 9.8-10.1.2-.1.5-.1.8-.1 1.7 0 4.2.8 7 .8 3.4 0 7.3-1.3 10.9-6.8 7.1-10.9 3.7-27.3-5.2-35.7-2.9-2.7-.5-4.9 5.6-4.9 2.6 0 5.9.4 9.7 1.4.2 0 .3.1.5.1 3.5 0 4.1-9.6 7.5-9.6.3 0 .7.1 1.1.3 4.5 2.5 1.9 13.3 2.2 21.6.3 7.9 2 13.3 3.7 19.5 2 7.4 2.4 9.6 4 16.3 1.7 6.7 3.4 17.7 10.3 25.6 6.4 7.4 26.1 13.9 40.8 13.9 4.6 0 8.7-.6 11.7-2.1 9.9-4.7 15.5-10.9 15.8-42.9.2-9.8 3.7-24.9 3.7-34 0-9.1-4.9-27.8-4.2-33.7 1-7.9 4-28.1 1-31.8-5.2-6.4-10.8-1.9-18.7-5.9-6.9-3.4-16-11-24.5-11z"/></svg>