<svg xmlns="http://www.w3.org/2000/svg" viewBox="0 0 238 169.1" enable-background="new 0 0 238 169.1"><path d="M237.9 61.1c-.8-3.7-9.9.3-10-6.4-.1-6.4 10-2.2 9.3-7.5-.5-3.8-8.6-3.6-16.1-3.4s-4.2-1.7-11.4-2.4c-6.2-.7-9.5-.1-15.7-.5-7.7-.4-5.8-2.3-12.3-2.8-9.4-.6-17.5 9.1-23.2 4.8-3.9-3-6.1-8.5-1.6-14.8s11.5-.5 15 .8 9.8-5.7 8.2-12.9c-1.2-5.8-4.6-7.5-7.3-9.5-3.8-2.6-1.2-6.5-5.6-6.5-3 0-1.9 9.9-4.6 12.8-3.1 3.2-8 3.5-12 6.7s-5 7.9-10 11.4-10.5-3.6-14-7.1-8.5-3.5-14.7-2.5-8.8-2.4-17.3-1c-5.7.9-6.1 8.6-12.5 8.6-7.2 0-8.2-14.4-7.8-18.9 0 0 .6-4.7-5.4-3.8-6.7 1-2 6.2-3.4 12.6-2.4 10.5-10.2 6.4-13.2 1.5-2.5-4.1-2.5-8.2-2.5-8.2s-3.7 3.1-8 5.8c-3.8 2.3-8.1 4-10.8 5.9-6.8 4.8-7.2 11.3-14.9 16.6C10.7 43.9 0 45.1 0 52.4c0 8.4 11.9 8.4 14.9 17.4 2.8 8.3-2 11.6-2 23.3 0 10.8.9 9.3 1.3 16.4.5 8.7-1.2 10.1-.8 17.8.2 3.8.2 5.8-.4 11.3-.5 4.5 3.2 3.7 9.7 8.6 6.5 5 10.4 15.5 25.3 18.3 8.3 1.5 18.7-1 25.1-.9 9.1.2 15.2 3.1 24.5 4.3 6.9.9 14-4.7 16.2-6.6 5.9-5.1 10.1-4.8 14.6-10.9 5.9-8.1 13-14.4 19.6-19.3 3.8-2.8 7.2-3.8 12-7 6.3-4.1 11.2-10.9 15.8-14.5 6-4.7 14.3-4.5 18.7-9.5 4.4-4.9 6.8-8.3 10.9-12.4 8.1-7.9 17.9-13.7 25-16.3 4.5-1.6 2.6-3.3 3.8-6.1 1.6-3.3 4.3-2.4 3.7-5.2zM207.9 30c9.2 1.1 10.6-2 10.7-6.1.2-5.6-1.4-10.2-6.8-10.2-7.7 0-12.8 5.5-13.5 9.6-.4 2.9.1 5.6 9.6 6.7z"/></svg>