<svg xmlns="http://www.w3.org/2000/svg" viewBox="0 0 169.7 187.3" enable-background="new 0 0 169.7 187.3"><path d="M147.7 128.9s-3.2-6.2-1.5-8.8c1.8-2.7 6.5-1.8 8.3-5.3s5-14.4 2.9-17.4c-2.1-2.9-7.4-4.6-6.4-8.1.8-2.7 2.3-2.2 2.9-6.3.6-4.1-1.2-3.8 1.5-5.9 2.7-2.1 12.6-5.6 14.1-8.8 1.5-3.2-3.8-10.9-7.1-13.3-3.2-2.4-4.4 1.2-5.9-1.5s.9-4.1-1.2-5.9c-2.1-1.8-6.6-2.7-6.3-6.2.3-3.5 4.9-8.3 2-12.1-4.2-5.6-8.7-2.4-12.9-6.9-3.8-4-2.9-7-9.9-11.9-5-3.5-6.4-.1-10.3-3.8-3-2.9-5.3-6.7-9.6-6.6-3.1.1-4.6 7.5-11.9 10.7-7.4 3.2-7.4 5.1-14.2 4-5-.8-14.7-7.2-20-6.8-4.5.3-9.4 6-12.1 7.1-5.6 2.2-7.1-2.7-11.1-.8-2.8 1.4-2.4 7.6-5.4 8.2-2.9.6-9.4 3.3-16.2.8-5.1-1.9-9.9-9.7-14-7.4S-.2 27.1 1.9 34.8s.8 5.2 2.3 15.9C5.3 59.4 0 73.5 0 73.5s8.4 5.1 10.9 8.8c3.9 5.9 3.4 9.9 7 14.4 3.5 4.5 10.5 8.3 11.7 14.2 1.2 5.9 1.6 15.2 3.7 19.2 3.4 6.4 11.2 6.3 13 14.2 1.1 4.8-4.9 6.4-3.2 12.3 2.1 7.6 6.5 5.9 6.5 10.6 0 4.7-5 17.1-1.8 19.2 3.2 2.1 23.3 0 23.3 0s.2-13.1 4.7-20.9c5.6-9.6 13.7-12.1 16.5-18.3 3.2-7-2.7-11.2 1.8-15.6 4.4-4.4 5.8-2.3 11.5-4.1 4.2-1.4 11.5-4.6 17.7-4.6 6.2 0 24.4 6 24.4 6z"/></svg>