<?xml version="1.0" encoding="utf-8"?>
<!-- Generator: Adobe Illustrator 18.1.0, SVG Export Plug-In . SVG Version: 6.00 Build 0)  -->
<!DOCTYPE svg PUBLIC "-//W3C//DTD SVG 1.1//EN" "http://www.w3.org/Graphics/SVG/1.1/DTD/svg11.dtd">
<svg version="1.1" id="contyr" xmlns="http://www.w3.org/2000/svg" xmlns:xlink="http://www.w3.org/1999/xlink" x="0px" y="0px"
	 viewBox="0 0 169.7 187.3" enable-background="new 0 0 169.7 187.3" xml:space="preserve">
<g>
	<path d="M147.7,128.9c0,0-3.2-6.2-1.5-8.8c1.8-2.7,6.5-1.8,8.3-5.3s5-14.4,2.9-17.4c-2.1-2.9-7.4-4.6-6.4-8.1
		c0.8-2.7,2.3-2.2,2.9-6.3c0.6-4.1-1.2-3.8,1.5-5.9c2.7-2.1,12.6-5.6,14.1-8.8c1.5-3.2-3.8-10.9-7.1-13.3c-3.2-2.4-4.4,1.2-5.9-1.5
		s0.9-4.1-1.2-5.9c-2.1-1.8-6.6-2.7-6.3-6.2c0.3-3.5,4.9-8.3,2-12.1c-4.2-5.6-8.7-2.4-12.9-6.9c-3.8-4-2.9-7-9.9-11.9
		c-5-3.5-6.4-0.1-10.3-3.8c-3-2.9-5.3-6.7-9.6-6.6c-3.1,0.1-4.6,7.5-11.9,10.7C89,14,89,15.9,82.2,14.8c-5-0.8-14.7-7.2-20-6.8
		c-4.5,0.3-9.4,6-12.1,7.1c-5.6,2.2-7.1-2.7-11.1-0.8c-2.8,1.4-2.4,7.6-5.4,8.2c-2.9,0.6-9.4,3.3-16.2,0.8c-5.1-1.9-9.9-9.7-14-7.4
		s-3.6,11.2-1.5,18.9s0.8,5.2,2.3,15.9C5.3,59.4,0,73.5,0,73.5s8.4,5.1,10.9,8.8c3.9,5.9,3.4,9.9,7,14.4c3.5,4.5,10.5,8.3,11.7,14.2
		c1.2,5.9,1.6,15.2,3.7,19.2c3.4,6.4,11.2,6.3,13,14.2c1.1,4.8-4.9,6.4-3.2,12.3c2.1,7.6,6.5,5.9,6.5,10.6c0,4.7-5,17.1-1.8,19.2
		c3.2,2.1,23.3,0,23.3,0s0.2-13.1,4.7-20.9c5.6-9.6,13.7-12.1,16.5-18.3c3.2-7-2.7-11.2,1.8-15.6c4.4-4.4,5.8-2.3,11.5-4.1
		c4.2-1.4,11.5-4.6,17.7-4.6C129.5,122.9,147.7,128.9,147.7,128.9z"/>
</g>
</svg>
