<?xml version="1.0" encoding="utf-8"?>
<!-- Generator: Adobe Illustrator 18.1.0, SVG Export Plug-In . SVG Version: 6.00 Build 0)  -->
<!DOCTYPE svg PUBLIC "-//W3C//DTD SVG 1.1//EN" "http://www.w3.org/Graphics/SVG/1.1/DTD/svg11.dtd">
<svg version="1.1" id="contyr" xmlns="http://www.w3.org/2000/svg" xmlns:xlink="http://www.w3.org/1999/xlink" x="0px" y="0px"
	 viewBox="0 0 234.8 217" enable-background="new 0 0 234.8 217" xml:space="preserve">
<g>
	<path d="M148.8,0c9.9-2.4,14.6,3.8,19.9,8.3s7.3,5.7,8.8,11.3c2.7,9.9-2.9,25-1.3,35.4c2,12.8,7.8,12.4,15.3,17.1
		c7.5,4.7,5.7,6.3,10,9c4.3,2.7,15,1.4,17.7,11.6c2.7,10.2,0.2,12.7-0.7,18.7c-0.8,6,1.9,19,0.2,26.7s-4.8,8.5-1.1,15.8
		c3.7,7.3,10.9,5.7,13,10.2c2.2,4.8,1.5,6.5,1.8,12.1c0.4,5.9,4.1,6.2,1.4,7.6c-4.1,2.1-8.1-6.9-15-5c-4.9,1.3-0.6,5.8-5.9,8.9
		c-5.3,3.2-10.8-1.2-12.1,4.3c-1.3,5.5,7.9,10.7,7,15.2c-1.3,6.6-9.1,11.9-12.1,9.8c-6.9-5-5.4-7.6-10.1-8.1s-8.2,2.6-11.5-3.5
		s-1.9-11.4-6.4-14.4c-4.6-3.1-5.1-0.5-6.9-1.8c-4.3-3.1-1.3-4.8-7.4-7.2c-8.1-3.2-12-1.2-17.8-3.1c-4.8-1.6-4.2-6.6-7.8-7.8
		c-3.3-1.2-6.3,1.5-6.8-2.5c-0.4-4.2,2.1-6.9,1.2-12.8c-0.8-5.8-18.8-28.1-26.3-29.1c-21.1-2.9-33.9-2.2-37.6,0.4
		c-4.3,3-5.9,6.7-11.4,3.2c-4.3-2.8-0.1-14.3-1.8-15.8c-3.4-2.8-3.3,2.3-9.5,2.3c-7.1,0-5.9-0.6-8.5,1.7c-2.6,2.3-3,4.3-5.2,2.7
		c-4.6-3.5-6-9.5-9.2-10.8c-2-0.9-2.9-0.4-4.4-1.9c-2.2-2.1,0.8-2.5-3.2-6c-2.6-2.3-4.1-0.6-5.2-5c-0.9-3.5,3.6-4,3.5-8.7
		C3.7,81.7-1.9,81.3,0.6,78s8.4-1.5,12.7-5s3.5-9.3,9.4-10.4c7.3-1.3,9.3,0.3,14.5,0.2c5.2-0.2,7.7-2.1,13-2c9.8,0.2,7.6,2.6,14,1.9
		c7-0.8,6-4.1,10.4-6.9c5.8-3.8,5.9-1,11.9-5.8c4.8-3.9,5.3-7.7,9.2-9.4c3.5-1.5,1.5,0.9,12.3-7.1c11.8-8.7,16.2-13.9,21.8-19.7
		C136,7.3,142.8,1.4,148.8,0z"/>
</g>
</svg>
