<svg xmlns="http://www.w3.org/2000/svg" viewBox="0 0 234.8 217" enable-background="new 0 0 234.8 217"><path d="M148.8 0c9.9-2.4 14.6 3.8 19.9 8.3s7.3 5.7 8.8 11.3c2.7 9.9-2.9 25-1.3 35.4 2 12.8 7.8 12.4 15.3 17.1 7.5 4.7 5.7 6.3 10 9s15 1.4 17.7 11.6c2.7 10.2.2 12.7-.7 18.7-.8 6 1.9 19 .2 26.7s-4.8 8.5-1.1 15.8c3.7 7.3 10.9 5.7 13 10.2 2.2 4.8 1.5 6.5 1.8 12.1.4 5.9 4.1 6.2 1.4 7.6-4.1 2.1-8.1-6.9-15-5-4.9 1.3-.6 5.8-5.9 8.9-5.3 3.2-10.8-1.2-12.1 4.3-1.3 5.5 7.9 10.7 7 15.2-1.3 6.6-9.1 11.9-12.1 9.8-6.9-5-5.4-7.6-10.1-8.1s-8.2 2.6-11.5-3.5-1.9-11.4-6.4-14.4c-4.6-3.1-5.1-.5-6.9-1.8-4.3-3.1-1.3-4.8-7.4-7.2-8.1-3.2-12-1.2-17.8-3.1-4.8-1.6-4.2-6.6-7.8-7.8-3.3-1.2-6.3 1.5-6.8-2.5-.4-4.2 2.1-6.9 1.2-12.8-.8-5.8-18.8-28.1-26.3-29.1-21.1-2.9-33.9-2.2-37.6.4-4.3 3-5.9 6.7-11.4 3.2-4.3-2.8-.1-14.3-1.8-15.8-3.4-2.8-3.3 2.3-9.5 2.3-7.1 0-5.9-.6-8.5 1.7-2.6 2.3-3 4.3-5.2 2.7-4.6-3.5-6-9.5-9.2-10.8-2-.9-2.9-.4-4.4-1.9-2.2-2.1.8-2.5-3.2-6-2.6-2.3-4.1-.6-5.2-5-.9-3.5 3.6-4 3.5-8.7.3-7.1-5.3-7.5-2.8-10.8s8.4-1.5 12.7-5 3.5-9.3 9.4-10.4c7.3-1.3 9.3.3 14.5.2 5.2-.2 7.7-2.1 13-2 9.8.2 7.6 2.6 14 1.9 7-.8 6-4.1 10.4-6.9 5.8-3.8 5.9-1 11.9-5.8 4.8-3.9 5.3-7.7 9.2-9.4 3.5-1.5 1.5.9 12.3-7.1 11.8-8.7 16.2-13.9 21.8-19.7 6.2-6.5 13-12.4 19-13.8z"/></svg>