<svg xmlns="http://www.w3.org/2000/svg" viewBox="0 0 239.6 290.3" enable-background="new 0 0 239.6 290.3"><path d="M231 82.8c-1.9 4.9-2.6 9.4-29.7 26.9-8.1 5.2-17.9 7.7-19.8 14.1-1.9 6.4-.8 10.2-1.4 16.6-.4 4.7-1.2 9.6-.1 12.8 1.1 3.2 1.5 6.9 1.1 11.6-.4 4.7-2.4 28.2.2 31.2s6.6 3.6 10.5 6.8c3.8 3.2 6 5.5 9.8 8.8 3.8 3.2 13.2 4.3 16.4 10 3.2 5.8 6.5 7.7 5.9 12.6-.6 4.9-2.9 8.6-1.2 15.6s-.9 10.9 2.7 12.5c4.6 2.1 4.9-.5 7.7 1.5 3.8 2.7 7.8 4.1 6.2 6.2-1.7 2.1-8.8 1-16 6-8.9 6.2-20 12.6-32.7 14.1-13.4 1.6-18.8-4.5-24.7-9-5.5-4.2-7.3-.5-13.3-5.5-5.7-4.7-2-4-5.5-7.5-3.2-3.1-4.8-2.6-5.4-5.9-.9-5.3-.4-11.7-6.6-13.8-6.2-2.1-17.4-1.3-22-2.6-6.9-2-8.7-9.2-14.7-9.2s-9.2 3.8-12.8.3c-3.6-3.4-5.5-29.2-10.5-45.4-5.6-17.9-16.8-30.1-25.8-29.2-14.9 1.6-17.8 4.8-22.3 1.7-8.3-5.7-3.8-8.5-8.8-12.4-7.5-5.8-17.1-5.5-17.9-8.3-2-6.7 9-14.7 7.9-18.2-2.6-7.8-8.5-6-7.6-7.7s5.1-2.1 8.3-5.3c3.2-3.2 2.8-3.6 8.3-7.9S37.7 93.4 40.5 88c2-3.9-1.7-3.1-1.9-9.2-.3-7.4 3.9-7.2 3.4-16.2-.7-13.2-4.7-30.1 7.9-30.9 9.8-.6 5.2 4.3 13.1 4.4 15.9.1 12.9-2.1 27.6-2.6 23.2-.7 32.1 3.9 42.4 2.8 15.9-1.8 18.1-5 26.2-12.8 10.5-10.3 15.1-10.6 18.9-15.1 4-4.7 5.8-9.4 10.5-8.2 4.7 1.3 3.2 3.8 8.8 7.5 2.8 1.8 31 18.9 33.5 26.3 2.9 8.9 1 46.3.1 48.8z"/></svg>