<?xml version="1.0" encoding="utf-8"?>
<!-- Generator: Adobe Illustrator 18.1.0, SVG Export Plug-In . SVG Version: 6.00 Build 0)  -->
<!DOCTYPE svg PUBLIC "-//W3C//DTD SVG 1.1//EN" "http://www.w3.org/Graphics/SVG/1.1/DTD/svg11.dtd">
<svg version="1.1" id="contyr" xmlns="http://www.w3.org/2000/svg" xmlns:xlink="http://www.w3.org/1999/xlink" x="0px" y="0px"
	 viewBox="0 0 239.6 290.3" enable-background="new 0 0 239.6 290.3" xml:space="preserve">
<g>
<path d="M231,82.8c-1.9,4.9-2.6,9.4-29.7,26.9c-8.1,5.2-17.9,7.7-19.8,14.1c-1.9,6.4-0.8,10.2-1.4,16.6c-0.4,4.7-1.2,9.6-0.1,12.8
	c1.1,3.2,1.5,6.9,1.1,11.6c-0.4,4.7-2.4,28.2,0.2,31.2c2.6,3,6.6,3.6,10.5,6.8c3.8,3.2,6,5.5,9.8,8.8c3.8,3.2,13.2,4.3,16.4,10
	c3.2,5.8,6.5,7.7,5.9,12.6c-0.6,4.9-2.9,8.6-1.2,15.6c1.7,7-0.9,10.9,2.7,12.5c4.6,2.1,4.9-0.5,7.7,1.5c3.8,2.7,7.8,4.1,6.2,6.2
	c-1.7,2.1-8.8,1-16,6c-8.9,6.2-20,12.6-32.7,14.1c-13.4,1.6-18.8-4.5-24.7-9c-5.5-4.2-7.3-0.5-13.3-5.5c-5.7-4.7-2-4-5.5-7.5
	c-3.2-3.1-4.8-2.6-5.4-5.9c-0.9-5.3-0.4-11.7-6.6-13.8c-6.2-2.1-17.4-1.3-22-2.6c-6.9-2-8.7-9.2-14.7-9.2s-9.2,3.8-12.8,0.3
	c-3.6-3.4-5.5-29.2-10.5-45.4c-5.6-17.9-16.8-30.1-25.8-29.2c-14.9,1.6-17.8,4.8-22.3,1.7c-8.3-5.7-3.8-8.5-8.8-12.4
	c-7.5-5.8-17.1-5.5-17.9-8.3c-2-6.7,9-14.7,7.9-18.2c-2.6-7.8-8.5-6-7.6-7.7s5.1-2.1,8.3-5.3c3.2-3.2,2.8-3.6,8.3-7.9
	s20.5-10.8,23.3-16.2c2-3.9-1.7-3.1-1.9-9.2c-0.3-7.4,3.9-7.2,3.4-16.2c-0.7-13.2-4.7-30.1,7.9-30.9c9.8-0.6,5.2,4.3,13.1,4.4
	c15.9,0.1,12.9-2.1,27.6-2.6c23.2-0.7,32.1,3.9,42.4,2.8c15.9-1.8,18.1-5,26.2-12.8c10.5-10.3,15.1-10.6,18.9-15.1
	c4-4.7,5.8-9.4,10.5-8.2c4.7,1.3,3.2,3.8,8.8,7.5c2.8,1.8,31,18.9,33.5,26.3C233.8,42.9,231.9,80.3,231,82.8z"/>
</g>
</svg>
