<?xml version="1.0" encoding="utf-8"?>
<!-- Generator: Adobe Illustrator 18.1.0, SVG Export Plug-In . SVG Version: 6.00 Build 0)  -->
<!DOCTYPE svg PUBLIC "-//W3C//DTD SVG 1.1//EN" "http://www.w3.org/Graphics/SVG/1.1/DTD/svg11.dtd">
<svg version="1.1" xmlns="http://www.w3.org/2000/svg" xmlns:xlink="http://www.w3.org/1999/xlink" x="0px" y="0px"
	 viewBox="0 0 239.6 290.3" enable-background="new 0 0 239.6 290.3" xml:space="preserve">
<g id="large" display="none">
	<g display="inline">
		<path d="M187.8,16.9c0.7,0.6,1.5,1.1,2.4,1.7c0.3,0.2,0.9,0.6,1.7,1.1C211.3,31.9,217,37.2,218.6,39
			c1.4,7.3,0.7,33.1-0.2,40.2c-0.5,1.3-0.8,1.9-2.6,3.7c-3.7,3.7-11,9-21.6,15.9c-2,1.3-4.3,2.4-6.7,3.6c-7,3.5-15.7,7.9-18.6,17.6
			c-1.8,6-1.8,10.6-1.7,14.4c0,1.7,0,3.2-0.1,4.8c-0.1,0.8-0.1,1.6-0.2,2.3c-0.5,4.9-1.1,10.4,0.7,15.7c0.4,1.1,0.8,2.9,0.5,6.3
			c-3,33.5,0.5,37.5,3.3,40.8c3,3.6,6.6,5.3,9.1,6.7c1.2,0.6,2.2,1.1,2.9,1.7c1.7,1.4,3,2.6,4.4,3.9c1.6,1.5,3.2,3,5.4,4.8
			c3,2.5,6.5,3.9,9.6,5.2c1.3,0.5,3.3,1.3,4.2,1.9c1.3,2.2,2.5,3.9,3.4,5.1c0.1,0.1,0.2,0.2,0.3,0.4c-0.1,0.3-0.2,0.7-0.2,1
			c-0.9,3.8-2.3,9.6-0.4,17.7c0.3,1.3,0.3,2.4,0.3,3.9c0,2-0.1,6.6,2.3,10.8c-6.3,4.1-14.6,8.6-23.5,9.6c-1,0.1-1.9,0.2-2.7,0.2
			c-4.2,0-6-1.3-10.1-4.6c-0.8-0.6-1.6-1.3-2.4-1.9c-5.4-4.2-10.1-4.7-12.6-5c0,0-0.1,0-0.1,0c-0.1,0-0.1-0.1-0.2-0.2
			c-0.1,0-0.1-0.1-0.2-0.1c-0.9-2.4-2.4-4.4-4.6-6.6c-0.8-0.8-1.5-1.4-2.1-1.9c-0.7-5.5-2.5-16.7-14.8-20.9
			c-5.2-1.8-11.3-2.1-16.7-2.4c-1.9-0.1-4.7-0.2-5.8-0.4c-0.4-0.3-1.3-1.2-1.9-1.8c-2.8-2.8-8-8-16.5-8c-1.2,0-2.4,0.1-3.4,0.2
			c-0.6-2.9-1.1-6.2-1.6-9c-1.5-8.8-3.2-18.8-5.8-27.1c-3.1-10-7.8-18.9-13.6-25.7c-7.1-8.3-15.3-12.7-23.6-12.7c0,0,0,0,0,0
			c-0.8,0-1.6,0-2.4,0.1c-6.4,0.7-11,1.7-14,2.3c-0.2,0-0.4,0.1-0.5,0.1c-0.8-2.6-2.4-6.8-7.3-10.5c-2.9-2.2-5.9-3.8-8.6-5
			c2.6-3.9,5-9.1,3-15.3c-0.2-0.6-0.4-1.2-0.6-1.7c0.3-0.4,0.6-0.7,0.9-1c1-1.1,1.5-1.6,4.3-3.8c1.2-1,4.2-2.7,6.9-4.2
			c10-5.7,16.7-9.9,20-16.4c2.9-5.5,2.7-11-0.4-16.2c0.1-0.2,0.2-0.3,0.2-0.5c1.7-3.5,3.5-7.9,3.1-15.4c-0.1-2.4-0.3-4.8-0.6-7.2
			c-0.2-2.1-0.4-4.9-0.5-7.5c2.3,1.1,5.2,1.8,9,1.8c0.5,0,0.9,0,1.3,0c8.8,0,12.7-0.8,16.2-1.4c2.6-0.5,4.8-1,10.6-1.1
			c1.4,0,2.9-0.1,4.3-0.1c9.4,0,15.8,1,21.5,1.8c4.3,0.6,8.5,1.3,12.8,1.3c1.6,0,3.2-0.1,4.8-0.3c18.4-2,24-6.8,32.3-15
			c0.5-0.5,1-1,1.5-1.5c5-4.9,8.2-7,11.1-8.9C182,22.1,184.9,20.2,187.8,16.9 M187,0c-3.7,0-5.5,4.2-9,8.4
			c-3.7,4.5-8.4,4.9-18.9,15.1c-8,7.8-10.3,11.1-26.2,12.8c-1.1,0.1-2.2,0.2-3.3,0.2c-8.3,0-16.9-3.1-34.3-3.1c-1.5,0-3,0-4.7,0.1
			c-14.3,0.4-11.9,2.6-26.4,2.6c-0.4,0-0.8,0-1.2,0c-7.4-0.1-3.9-4.4-11.5-4.4c-0.5,0-1,0-1.6,0.1c-12.6,0.8-8.6,17.7-7.9,30.9
			c0.5,9-3.8,8.8-3.4,16.2c0.3,6,3.9,5.3,1.9,9.2c-2.8,5.4-17.7,11.9-23.3,16.2c-5.5,4.3-5.1,4.7-8.3,7.9c-3.2,3.2-7.4,3.6-8.3,5.3
			c-0.9,1.7,5.1,0,7.6,7.7c1.1,3.4-9.9,11.5-7.9,18.2c0.8,2.8,10.5,2.5,17.9,8.3c5,3.9,0.6,6.8,8.8,12.4c1.4,0.9,2.6,1.3,4.1,1.3
			c3.3,0,7.9-1.9,18.2-3c0.3,0,0.7-0.1,1-0.1c8.9,0,19.4,12,24.8,29.2c5,16.1,6.9,42,10.5,45.4c1.1,1.1,2.2,1.4,3.4,1.4
			c2.5,0,5.3-1.8,9.4-1.8c6,0,7.9,7.2,14.7,9.2c4.6,1.4,15.8,0.5,22,2.6c6.2,2.1,5.6,8.5,6.6,13.8c0.6,3.3,2.2,2.8,5.4,5.9
			c3.5,3.4-0.2,2.7,5.5,7.5c6,5,7.8,1.3,13.3,5.5c5.2,4,10,9.3,20.4,9.3c1.3,0,2.7-0.1,4.3-0.3c12.6-1.5,23.8-7.9,32.7-14.1
			c7.2-5,14.3-3.8,16-6c1.7-2.1-2.4-3.5-6.2-6.2c-0.9-0.7-1.6-0.8-2.2-0.8c-0.6,0-1.3,0.2-2.1,0.2c-0.8,0-1.9-0.2-3.4-0.9
			c-3.7-1.7-1-5.5-2.7-12.5s0.6-10.7,1.2-15.6c0.6-4.9-2.7-6.8-5.9-12.6c-3.2-5.8-12.6-6.8-16.4-10c-3.8-3.2-6-5.5-9.8-8.8
			c-3.8-3.2-7.9-3.8-10.5-6.8c-2.6-3-0.6-26.5-0.2-31.2c0.4-4.7,0-8.4-1.1-11.6c-1.1-3.2-0.3-8.1,0.1-12.8
			c0.6-6.3-0.6-10.2,1.4-16.6c1.9-6.4,11.7-8.9,19.8-14.1c27.1-17.5,27.7-22,29.7-26.9c1-2.5,2.9-39.9-0.2-48.9
			c-2.5-7.3-30.7-24.4-33.5-26.3c-5.5-3.6-4.1-6.2-8.8-7.5C187.9,0.1,187.4,0,187,0L187,0z"/>
	</g>
</g>
<g id="small">
	<g>
		<path d="M187.3,6.1C187.3,6.1,187.3,6.1,187.3,6.1c0.2,0.2,0.4,0.5,0.6,0.7c1,1.4,2.6,3.6,6.1,5.9
			c0.3,0.2,0.8,0.5,1.6,1c25.5,16,29,21.2,29.5,22.2c2.4,7.1,1,40.2,0.1,45c-0.1,0.1-0.1,0.3-0.2,0.4c-1.3,3.4-2.9,7.7-27,23.3
			c-2.3,1.5-4.8,2.8-7.3,4c-6.4,3.2-13,6.5-15,13.4c-1.5,5-1.5,8.7-1.4,12.3c0,1.8,0,3.5-0.1,5.5c-0.1,0.8-0.2,1.6-0.2,2.4
			c-0.4,4.4-0.9,8.9,0.4,12.8c0.9,2.7,1.1,5.6,0.8,9.1c-2.8,30.5,0.1,33.8,1.6,35.6c2.1,2.5,4.7,3.8,7,5c1.5,0.8,2.9,1.5,4.2,2.5
			c1.8,1.5,3.2,2.8,4.7,4.2c1.5,1.4,3.1,2.9,5.2,4.6c2.2,1.8,5,2.9,7.7,4c2.8,1.1,6.4,2.6,7.3,4.3c1.2,2.2,2.4,3.8,3.4,5.2
			c1.9,2.6,1.9,2.9,1.8,3.7c-0.1,1.1-0.4,2.2-0.7,3.4c-0.9,3.6-1.9,8-0.4,14.4c0.5,2.2,0.5,3.9,0.5,5.6c0,2.9-0.1,8.3,5.6,10.9
			c0.6,0.3,1.1,0.5,1.7,0.7c-1.5,0.7-3.1,1.5-4.7,2.6c-7.1,4.9-17.8,11.6-29.9,13.1c-1.2,0.1-2.4,0.2-3.5,0.2
			c-6.8,0-10.2-2.7-14.5-6.2c-0.7-0.6-1.5-1.2-2.3-1.8c-3.9-3-7-3.4-9.1-3.6c-1.6-0.2-2.2-0.3-4-1.8c-1-0.8-1.5-1.4-1.7-1.6
			c-0.5-1.7-1.2-3.4-3.4-5.5c-1.5-1.5-2.8-2.4-3.6-3c0,0-0.1-0.1-0.1-0.1c-0.1-0.7-0.2-1.5-0.3-2.3c-0.6-4.8-1.6-12.8-10.2-15.8
			c-4.3-1.5-9.8-1.8-14.7-2c-2.9-0.1-6.2-0.3-7.5-0.7c-1.7-0.5-2.9-1.7-4.8-3.5c-2.5-2.5-6-5.9-11.6-5.9c-3.2,0-5.7,0.7-7.6,1.3
			c-0.3,0.1-0.7,0.2-1.1,0.3c-1.1-3-2.4-10.5-3.3-16.2c-1.5-8.6-3.2-18.3-5.6-26.2c-6.1-19.7-18.7-33.4-30.5-33.4c0,0,0,0,0,0
			c-0.5,0-1.1,0-1.6,0.1c-6.1,0.6-10.2,1.5-13.3,2.2c-1.9,0.4-3.5,0.7-4.3,0.7c-0.3,0-0.3,0-0.7-0.3c-2.8-1.9-3-2.7-3.4-4.2
			c-0.5-2-1.3-5.1-5.1-8c-5-3.9-10.4-5.4-14.4-6.5c-0.3-0.1-0.6-0.2-1-0.3c0.8-1.6,2.5-3.8,3.3-5c2.7-3.6,5.5-7.4,4-11.8
			c-0.7-2.2-1.7-3.9-2.7-5.3c0.6-0.5,1.3-1,1.9-1.6c1.1-1.1,1.9-2,2.5-2.7c1.1-1.3,1.9-2.1,5.3-4.7c1.6-1.2,4.5-2.9,7.6-4.7
			c8.9-5.1,14.9-8.8,17.3-13.5c2.7-5.2,0.4-8.6-0.6-10c-0.5-0.7-0.7-1-0.7-2.2c-0.1-2,0.3-2.7,1-4.3c1.2-2.4,2.7-5.6,2.4-11.9
			c-0.1-2.3-0.3-4.6-0.5-6.9c-0.5-5.8-1.3-14.5,0.7-16.9c0.1-0.2,0.5-0.6,2.1-0.7c0.4,0,0.8,0,1.2,0c0.7,0,1.1,0,1.3,0.1
			c0.1,0.1,0.1,0.1,0.2,0.2c1.9,2.1,4.5,4.1,10,4.2c0.4,0,0.9,0,1.3,0c8.1,0,11.5-0.7,14.8-1.3c2.8-0.5,5.4-1.1,11.8-1.3
			c1.5,0,3-0.1,4.5-0.1c9.9,0,16.6,1,22.6,1.9c4.3,0.6,7.9,1.2,11.8,1.2c1.4,0,2.7-0.1,4-0.2c16.2-1.8,20.3-5.3,28.2-13
			c0.5-0.5,1-1,1.5-1.5c5.5-5.4,9.2-7.8,12.2-9.7c2.5-1.6,4.9-3.2,7.1-5.8c1-1.2,1.9-2.4,2.6-3.4C185.8,7.9,186.7,6.7,187.3,6.1
			 M187,0c-3.7,0-5.5,4.2-9,8.4c-3.7,4.5-8.4,4.9-18.9,15.1c-8,7.8-10.3,11.1-26.2,12.8c-1.1,0.1-2.2,0.2-3.3,0.2
			c-8.3,0-16.9-3.1-34.3-3.1c-1.5,0-3,0-4.7,0.1c-14.3,0.4-11.9,2.6-26.4,2.6c-0.4,0-0.8,0-1.2,0c-7.4-0.1-3.9-4.4-11.5-4.4
			c-0.5,0-1,0-1.6,0.1c-12.6,0.8-8.6,17.7-7.9,30.9c0.5,9-3.8,8.8-3.4,16.2c0.3,6,3.9,5.3,1.9,9.2c-2.8,5.4-17.7,11.9-23.3,16.2
			c-5.5,4.3-5.1,4.7-8.3,7.9c-3.2,3.2-7.4,3.6-8.3,5.3s5.1,0,7.6,7.7c1.1,3.4-9.9,11.5-7.9,18.2c0.8,2.8,10.5,2.5,17.9,8.3
			c5,3.9,0.6,6.8,8.8,12.4c1.4,0.9,2.6,1.3,4.1,1.3c3.3,0,7.9-1.9,18.2-3c0.3,0,0.7-0.1,1-0.1c8.9,0,19.4,12,24.8,29.2
			c5,16.1,6.9,42,10.5,45.4c1.1,1.1,2.2,1.4,3.4,1.4c2.5,0,5.3-1.8,9.4-1.8c6,0,7.9,7.2,14.7,9.2c4.6,1.4,15.8,0.5,22,2.6
			s5.6,8.5,6.6,13.8c0.6,3.3,2.2,2.8,5.4,5.9c3.5,3.4-0.2,2.7,5.5,7.5c6,5,7.8,1.3,13.3,5.5c5.2,4,10,9.3,20.4,9.3
			c1.3,0,2.7-0.1,4.3-0.3c12.6-1.5,23.8-7.9,32.7-14.1c7.2-5,14.3-3.8,16-6c1.7-2.1-2.4-3.5-6.2-6.2c-0.9-0.7-1.6-0.8-2.2-0.8
			c-0.6,0-1.3,0.2-2.1,0.2c-0.8,0-1.9-0.2-3.4-0.9c-3.7-1.7-1-5.5-2.7-12.5s0.6-10.7,1.2-15.6c0.6-4.9-2.7-6.8-5.9-12.6
			c-3.2-5.8-12.6-6.8-16.4-10c-3.8-3.2-6-5.5-9.8-8.8c-3.8-3.2-7.9-3.8-10.5-6.8c-2.6-3-0.6-26.5-0.2-31.2s0-8.4-1.1-11.6
			c-1.1-3.2-0.3-8.1,0.1-12.8c0.6-6.3-0.6-10.2,1.4-16.6c1.9-6.4,11.7-8.9,19.8-14.1c27.1-17.5,27.7-22,29.7-26.9
			c1-2.5,2.9-39.9-0.2-48.9c-2.5-7.3-30.7-24.4-33.5-26.3c-5.5-3.6-4.1-6.2-8.8-7.5C187.9,0.1,187.4,0,187,0L187,0z"/>
	</g>
</g>
</svg>
