<svg xmlns="http://www.w3.org/2000/svg" viewBox="0 0 239.6 290.3" enable-background="new 0 0 239.6 290.3"><path d="M187.3 6.1c.2.2.4.5.6.7 1 1.4 2.6 3.6 6.1 5.9.3.2.8.5 1.6 1 25.5 16 29 21.2 29.5 22.2 2.4 7.1 1 40.2.1 45-.1.1-.1.3-.2.4-1.3 3.4-2.9 7.7-27 23.3-2.3 1.5-4.8 2.8-7.3 4-6.4 3.2-13 6.5-15 13.4-1.5 5-1.5 8.7-1.4 12.3 0 1.8 0 3.5-.1 5.5-.1.8-.2 1.6-.2 2.4-.4 4.4-.9 8.9.4 12.8.9 2.7 1.1 5.6.8 9.1-2.8 30.5.1 33.8 1.6 35.6 2.1 2.5 4.7 3.8 7 5 1.5.8 2.9 1.5 4.2 2.5 1.8 1.5 3.2 2.8 4.7 4.2 1.5 1.4 3.1 2.9 5.2 4.6 2.2 1.8 5 2.9 7.7 4 2.8 1.1 6.4 2.6 7.3 4.3 1.2 2.2 2.4 3.8 3.4 5.2 1.9 2.6 1.9 2.9 1.8 3.7-.1 1.1-.4 2.2-.7 3.4-.9 3.6-1.9 8-.4 14.4.5 2.2.5 3.9.5 5.6 0 2.9-.1 8.3 5.6 10.9.6.3 1.1.5 1.7.7-1.5.7-3.1 1.5-4.7 2.6-7.1 4.9-17.8 11.6-29.9 13.1-1.2.1-2.4.2-3.5.2-6.8 0-10.2-2.7-14.5-6.2-.7-.6-1.5-1.2-2.3-1.8-3.9-3-7-3.4-9.1-3.6-1.6-.2-2.2-.3-4-1.8-1-.8-1.5-1.4-1.7-1.6-.5-1.7-1.2-3.4-3.4-5.5-1.5-1.5-2.8-2.4-3.6-3l-.1-.1c-.1-.7-.2-1.5-.3-2.3-.6-4.8-1.6-12.8-10.2-15.8-4.3-1.5-9.8-1.8-14.7-2-2.9-.1-6.2-.3-7.5-.7-1.7-.5-2.9-1.7-4.8-3.5-2.5-2.5-6-5.9-11.6-5.9-3.2 0-5.7.7-7.6 1.3-.3.1-.7.2-1.1.3-1.1-3-2.4-10.5-3.3-16.2-1.5-8.6-3.2-18.3-5.6-26.2-6.1-19.7-18.7-33.4-30.5-33.4-.5 0-1.1 0-1.6.1-6.1.6-10.2 1.5-13.3 2.2-1.9.4-3.5.7-4.3.7-.3 0-.3 0-.7-.3-2.8-1.9-3-2.7-3.4-4.2-.5-2-1.3-5.1-5.1-8-5-3.9-10.4-5.4-14.4-6.5-.3-.1-.6-.2-1-.3.8-1.6 2.5-3.8 3.3-5 2.7-3.6 5.5-7.4 4-11.8-.7-2.2-1.7-3.9-2.7-5.3.6-.5 1.3-1 1.9-1.6 1.1-1.1 1.9-2 2.5-2.7 1.1-1.3 1.9-2.1 5.3-4.7 1.6-1.2 4.5-2.9 7.6-4.7 8.9-5.1 14.9-8.8 17.3-13.5 2.7-5.2.4-8.6-.6-10-.5-.7-.7-1-.7-2.2-.1-2 .3-2.7 1-4.3 1.2-2.4 2.7-5.6 2.4-11.9-.1-2.3-.3-4.6-.5-6.9-.5-5.8-1.3-14.5.7-16.9.1-.2.5-.6 2.1-.7h1.2c.7 0 1.1 0 1.3.1l.2.2c1.9 2.1 4.5 4.1 10 4.2h1.3c8.1 0 11.5-.7 14.8-1.3 2.8-.5 5.4-1.1 11.8-1.3 1.5 0 3-.1 4.5-.1 9.9 0 16.6 1 22.6 1.9 4.3.6 7.9 1.2 11.8 1.2 1.4 0 2.7-.1 4-.2 16.2-1.8 20.3-5.3 28.2-13l1.5-1.5c5.5-5.4 9.2-7.8 12.2-9.7 2.5-1.6 4.9-3.2 7.1-5.8 1-1.2 1.9-2.4 2.6-3.4.1-1 1-2.2 1.6-2.8M187 0c-3.7 0-5.5 4.2-9 8.4-3.7 4.5-8.4 4.9-18.9 15.1-8 7.8-10.3 11.1-26.2 12.8-1.1.1-2.2.2-3.3.2-8.3 0-16.9-3.1-34.3-3.1-1.5 0-3 0-4.7.1-14.3.4-11.9 2.6-26.4 2.6H63c-7.4-.1-3.9-4.4-11.5-4.4-.5 0-1 0-1.6.1-12.6.8-8.6 17.7-7.9 30.9.5 9-3.8 8.8-3.4 16.2.3 6 3.9 5.3 1.9 9.2-2.8 5.4-17.7 11.9-23.3 16.2-5.5 4.3-5.1 4.7-8.3 7.9-3.2 3.2-7.4 3.6-8.3 5.3s5.1 0 7.6 7.7c1.1 3.4-9.9 11.5-7.9 18.2.8 2.8 10.5 2.5 17.9 8.3 5 3.9.6 6.8 8.8 12.4 1.4.9 2.6 1.3 4.1 1.3 3.3 0 7.9-1.9 18.2-3 .3 0 .7-.1 1-.1 8.9 0 19.4 12 24.8 29.2 5 16.1 6.9 42 10.5 45.4 1.1 1.1 2.2 1.4 3.4 1.4 2.5 0 5.3-1.8 9.4-1.8 6 0 7.9 7.2 14.7 9.2 4.6 1.4 15.8.5 22 2.6s5.6 8.5 6.6 13.8c.6 3.3 2.2 2.8 5.4 5.9 3.5 3.4-.2 2.7 5.5 7.5 6 5 7.8 1.3 13.3 5.5 5.2 4 10 9.3 20.4 9.3 1.3 0 2.7-.1 4.3-.3 12.6-1.5 23.8-7.9 32.7-14.1 7.2-5 14.3-3.8 16-6 1.7-2.1-2.4-3.5-6.2-6.2-.9-.7-1.6-.8-2.2-.8-.6 0-1.3.2-2.1.2s-1.9-.2-3.4-.9c-3.7-1.7-1-5.5-2.7-12.5s.6-10.7 1.2-15.6-2.7-6.8-5.9-12.6-12.6-6.8-16.4-10c-3.8-3.2-6-5.5-9.8-8.8-3.8-3.2-7.9-3.8-10.5-6.8-2.6-3-.6-26.5-.2-31.2s0-8.4-1.1-11.6c-1.1-3.2-.3-8.1.1-12.8.6-6.3-.6-10.2 1.4-16.6 1.9-6.4 11.7-8.9 19.8-14.1 27.1-17.5 27.7-22 29.7-26.9 1-2.5 2.9-39.9-.2-48.9-2.5-7.3-30.7-24.4-33.5-26.3-5.5-3.6-4.1-6.2-8.8-7.5-.6.1-1.1 0-1.5 0z"/></svg>