<?xml version="1.0" encoding="utf-8"?>
<!-- Generator: Adobe Illustrator 18.1.0, SVG Export Plug-In . SVG Version: 6.00 Build 0)  -->
<!DOCTYPE svg PUBLIC "-//W3C//DTD SVG 1.1//EN" "http://www.w3.org/Graphics/SVG/1.1/DTD/svg11.dtd">
<svg version="1.1" id="contyr" xmlns="http://www.w3.org/2000/svg" xmlns:xlink="http://www.w3.org/1999/xlink" x="0px" y="0px"
	 viewBox="0 0 221.5 206.5" enable-background="new 0 0 221.5 206.5" xml:space="preserve">
<g>
<path d="M115.5,0c2.7,0.1,1,5,4.4,7.8s4.5,7,8.5,8.4c4,1.4,19.8,8.5,20.9,13.9s-0.4,7.3-1,13s-1.5,12.4,1.6,16.1
	c3.1,3.7,14,10.5,18.6,14.2c4.5,3.7,6.9,10.4,12.9,13c6,2.6,5.3,2.1,10.6,5.8c4.6,3.3,4.4,4.2,8.4,7.6s6.9,3.8,10,6.9
	c3.1,3.1,2.1,4.9,5.7,6.8c4.3,2.3,6.8,4.5,4.9,5.8c-2.5,1.7-8.5,3.9-9,9.1c-0.2,2.6-0.5,13.8,1.2,22.5c1.2,6.2-4.6,11.2-3.9,17.7
	c0.5,4.5,4.7,5.6,3,8.2c-1.7,2.6-8.8,7.7-17.2,11.1c-6.5,2.7-19.8,17.5-22.4,18.4c-2.6,0.9-4.2-4.5-8-4.8c-12-0.9-14.1,2.5-22.9,1.4
	c-8.8-1.1-18.7-5.9-26.5-6.4c-7.1-0.5-11.3,0.2-18.4-2.9s-20.3-3.1-41.5-15.3c-11.1-6.5-14.6-8.9-14.6-14.5s3.7-7.8,3.1-17.2
	c-0.6-9.4-1.2-10.3-0.6-18.2s4.4-13.7,0.7-20.3c-7.2-12.8-12.1-9-20.3-15c-8.2-6-3.9-5.6-10.8-9.3c-6.8-3.7-9.2-1.2-12-12.8
	s1.6-13.8,1.8-21.9c0.1-8-0.2-13.5,1.8-14.1c2-0.6,2.8,0.5,8.2,1.1c7.6,0.9,22.3-1,28.8,0.1s13.8,4.6,23.2,3.5
	c7.3-0.9,5.3-3.1,13.3-8.2c8.2-5.1,7.9-5.1,16.5-12.7C106.7,7.9,108.4-0.3,115.5,0z"/>
</g>
</svg>
