<svg xmlns="http://www.w3.org/2000/svg" viewBox="0 0 221.5 206.5" enable-background="new 0 0 221.5 206.5"><path d="M115.5 0c2.7.1 1 5 4.4 7.8s4.5 7 8.5 8.4c4 1.4 19.8 8.5 20.9 13.9s-.4 7.3-1 13-1.5 12.4 1.6 16.1c3.1 3.7 14 10.5 18.6 14.2 4.5 3.7 6.9 10.4 12.9 13 6 2.6 5.3 2.1 10.6 5.8 4.6 3.3 4.4 4.2 8.4 7.6s6.9 3.8 10 6.9c3.1 3.1 2.1 4.9 5.7 6.8 4.3 2.3 6.8 4.5 4.9 5.8-2.5 1.7-8.5 3.9-9 9.1-.2 2.6-.5 13.8 1.2 22.5 1.2 6.2-4.6 11.2-3.9 17.7.5 4.5 4.7 5.6 3 8.2-1.7 2.6-8.8 7.7-17.2 11.1-6.5 2.7-19.8 17.5-22.4 18.4-2.6.9-4.2-4.5-8-4.8-12-.9-14.1 2.5-22.9 1.4-8.8-1.1-18.7-5.9-26.5-6.4-7.1-.5-11.3.2-18.4-2.9s-20.3-3.1-41.5-15.3c-11.1-6.5-14.6-8.9-14.6-14.5s3.7-7.8 3.1-17.2c-.6-9.4-1.2-10.3-.6-18.2s4.4-13.7.7-20.3c-7.2-12.8-12.1-9-20.3-15-8.2-6-3.9-5.6-10.8-9.3C6.1 80.1 3.7 82.6.9 71s1.6-13.8 1.8-21.9c.1-8-.2-13.5 1.8-14.1 2-.6 2.8.5 8.2 1.1 7.6.9 22.3-1 28.8.1s13.8 4.6 23.2 3.5c7.3-.9 5.3-3.1 13.3-8.2 8.2-5.1 7.9-5.1 16.5-12.7C106.7 7.9 108.4-.3 115.5 0z"/></svg>