<svg xmlns="http://www.w3.org/2000/svg" viewBox="0 0 221.5 206.5" enable-background="new 0 0 221.5 206.5"><path d="M112.6 7.8c.7 1.5 1.7 3.2 3.4 4.7.8.7 1.5 1.6 2.3 2.7 1.6 2.2 3.8 5.2 8 6.7 5.4 1.9 15.4 7.2 17.2 9.8.4 2.1.2 3.2-.3 5.5-.3 1.4-.6 3.2-.9 5.4l-.1 1.1c-.6 6.2-1.4 14 3.1 19.4 2.3 2.7 6.6 5.9 12.9 10.3 2.5 1.8 5 3.5 6.4 4.7 1.2 1 2.5 2.6 3.7 4.4 2.4 3.3 5.5 7.3 10.5 9.5.7.3 1.4.6 1.9.8 3.4 1.4 3.4 1.4 7.5 4.4 2.2 1.6 3 2.4 4.1 3.5.9.9 2 2.1 3.9 3.7 2.4 2 4.4 3.2 6.1 4.1 1.5.9 2.5 1.4 3.6 2.5.7.7 1 1.2 1.4 2 .7 1.3 1.7 3.3 4.3 5.1-2.7 2.1-5.4 5.2-5.9 9.9-.3 3.2-.6 15 1.3 24.2.3 1.3-.4 2.9-1.5 5.4-1.3 3.1-3 7-2.5 11.8.3 2.5 1.2 4.5 2.1 5.9-2.4 1.9-6.9 4.9-12.6 7.2-4.5 1.9-10.2 7-17 13.4-1.1 1-2.3 2.2-3.4 3.2-1.6-1.5-3.9-3.2-7.2-3.5-1.4-.1-2.9-.2-4.2-.2-4.5 0-7.7.6-10.2 1.1-2 .4-3.5.7-5.4.7-.9 0-1.8-.1-2.7-.2-3.7-.5-8-1.8-12.1-3.1-4.9-1.5-10-3.1-14.7-3.4-1.7-.1-3.3-.2-4.7-.2-4.4-.2-7.3-.3-11.7-2.2-2.7-1.2-5.8-1.9-9.4-2.8-7.4-1.8-17.6-4.2-31.5-12.3-11-6.4-11.6-7.4-11.6-9.3 0-1.3.3-2.2 1-4 1.1-2.9 2.5-6.9 2.1-13.6-.2-2.8-.3-4.9-.5-6.6-.3-3.9-.5-5.7-.1-10.9.2-2.1.6-4.2 1.1-6.3 1.2-5.1 2.5-10.9-1.2-17.4C43.7 95.4 39 93.1 33.3 91c-2.1-.8-4-1.4-6.2-3-3.3-2.4-3.9-3.3-4.5-4.1-1.5-2.1-2.9-3.5-6.9-5.6-2-1.1-3.7-1.7-5-2.2-1.2-.5-1.8-.7-2-.9-.3-.3-1-1.6-2.1-5.8-1.4-5.7-.7-8 .3-11.3.7-2.3 1.6-5.2 1.6-9.1v-3.1c0-1.4 0-3 .1-4.4.9.2 2 .3 3.3.5 1.6.2 3.6.3 5.9.3 2.9 0 6-.1 9.1-.3 2.9-.1 5.9-.2 8.4-.2 2.2 0 3.9.1 5 .3 1.6.3 3.5.8 5.4 1.3 4.3 1.2 9.2 2.5 15.1 2.5 1.5 0 3-.1 4.5-.3 6-.7 8.1-2.5 10.7-5 1.1-1.1 2.4-2.3 5-4 7.7-4.8 8.3-5.4 15-11.3l2.3-2c5.3-4.7 8.8-9 11.3-12.2 1.4-1.4 2.3-2.5 3-3.3m2.5-7.8c-6.7 0-8.6 8.1-20.5 18.7-8.6 7.6-8.2 7.6-16.5 12.7-8 5-6 7.3-13.3 8.2-1.3.2-2.6.2-3.8.2-7.7 0-13.8-2.7-19.5-3.7-1.6-.3-3.7-.4-6.1-.4-5.3 0-12 .5-17.5.5-2 0-3.7-.1-5.3-.2-4.4-.5-5.7-1.3-7.2-1.3-.3 0-.7 0-1.1.2-2 .6-1.7 6.1-1.8 14.1-.1 8.1-4.6 10.3-1.8 21.9 2.8 11.7 5.2 9.1 12 12.8 6.8 3.7 2.5 3.4 10.8 9.3 8.2 6 13.1 2.2 20.3 15 3.8 6.7-.1 12.4-.7 20.3-.6 8 0 8.9.6 18.2.6 9.4-3.1 11.5-3.1 17.2s3.4 8.1 14.6 14.5c21.1 12.3 34.4 12.2 41.5 15.3 7.1 3.1 11.3 2.4 18.4 2.9 7.8.6 17.7 5.3 26.5 6.4 1.3.2 2.4.2 3.5.2 5.3 0 8.3-1.8 15.6-1.8 1.1 0 2.4 0 3.8.1 3.6.3 5.2 4.9 7.5 4.9.2 0 .4 0 .6-.1 2.6-.9 15.9-15.7 22.4-18.4 8.3-3.5 15.5-8.6 17.2-11.1 1.7-2.6-2.5-3.7-3-8.2-.7-6.6 5.1-11.5 3.9-17.7-1.8-8.7-1.5-19.9-1.2-22.5.5-5.2 6.5-7.4 9-9.1 2-1.4-.6-3.6-4.9-5.8-3.6-1.9-2.6-3.7-5.7-6.8-3.1-3.1-6-3.5-10-6.9-4-3.4-3.8-4.4-8.4-7.6-5.3-3.8-4.6-3.2-10.6-5.8-6-2.6-8.3-9.3-12.9-13-4.5-3.7-15.4-10.5-18.6-14.2-3.1-3.7-2.2-10.4-1.6-16.1.6-5.7 2.1-7.6 1-13s-17-12.5-20.9-13.9-5-5.5-8.5-8.4c-3.4-2.8-1.7-7.7-4.4-7.8-.1.2-.2.2-.3.2z"/></svg>