<svg xmlns="http://www.w3.org/2000/svg" viewBox="0 0 362.6 288.3" enable-background="new 0 0 362.6 288.3"><path d="M285.9 143.1c.2-13.8.5-15.9-1.1-30.1-1.8-15.7-18.2-19.8-23.6-32-6.8-15.4-8.3-28.1-14.4-35.5C236 32.2 217.2 33.1 209.1 35s-4.2 17.2-13.1 21.4c-11.8 5.5-17.5-9-21.4-11-4.7-2.5-12.2 10.4-19.4 3.3-6.4-6.3 3.8-10.5 1.9-13.9-1.1-1.9-5.6.7-7.1-2.4-2.1-4.3 2.3-4.3 1.1-10.1S123 0 123 0s-1.2 2.6-7.4 3c-5.2.3-12.6-2.9-19.1-1.8s-4.4 8.6-31.4 30.3c-8.5 6.8-13 8.4-24 16.1-8.8 6.2-24 21.1-31.4 28.5-4.4 4.4-6.6 3.7-8.5 5.4-2.4 2.1-.7 4.6-1.2 10.6-.3 3.7 9.1 7.5 26.9 18.6 15 9.4 7.5 11.7 13.1 15 4 2.3 14-2.7 30.5 8.5 17.9 12.1 33.8 34.4 47.6 41.4 8.6 4.3 18.2-4 29.8-3.9 15.9.1 14 14.2 30.4 16 15.2 1.6 17.7-5.7 28.2-17.5 11.3-12.6 12.9-9.6 15.8-6.5 4.4 4.8 6.8 7.6 5.3 19.5s2.7 9.3 4.2 18.7c1.4 8.9-1.7 9.6.2 15.5 4.6 14.8-9.1 9.9-14.4 11.1-3.7.9-10.9 10.7-7.2 15 6.1 7.2 9.2 8.5 10.7 15.8s3.1 2.2 5.4 9.5c2.3 7.3-1.3 6.6-5.2 9.3-3.8 2.7 3.9 8.1 6 9.9 1.8 1.5 5.3-3.2 6.3-9 1.2-7.2-.9-14.7 5.6-15.5 7-.8 6.6 1.9 17 2.5 9.7.5 19.9-14.4 24.3-27.5 3.6-11 3.7-20.2 4.5-32.1s3.7-26.6 3.2-37c-.5-9.9-2.5-14.8-2.3-26.3zM358.4 123.6c-3.3-5.1-3.9-5.5-5.6-5.7-3.5-.3-2.5 3.6-4.7 3.9-5.1.8-4.5-3-10.2-5.8-7.2-3.5-8.4-.4-13.3-4.1-4.9-3.7-1.4-7-5.1-14.9-3.1-6.6-8.1-10.8-3.7-14.9 5.8-5.3 12.2-1.2 17.4 1.3s5.8-1.2 2.8-5.1c-3.1-3.8-16-5.2-30.5-16.5-8.4-6.5-12.8-9.7-20-15-5.8-4.4-7.4-4.1-12.8-9.6-4.2-4.3-1.5-7.5-5.8-11.2-2.9-2.4-7.3-3-13.9-5.3-6.3-2.2-4.5-1.1-5.1-7.9-.6-6.8-7.2-9-13.9-2.4-2.2 2.2-.6 4.2 2.1 5.3 2.7 1.1 6.6 1.3 9.3 4.2 3.9 4.2 1.2 5-.9 9.8-1.4 3.3.4 4.2 7 10s2.7 5.5 10.6 15.6c4.8 6.2 7.1 4.9 13.8 10.6 4.3 3.7 2.7 2.3 8.3 9.8 5 6.6 7.4 7.5 10.7 14.8 7 15.7 9 14.9 15.5 19.7 4.5 3.3 4.2 6.6 6.8 11.3 4.6 8.3 4.4 3.8 9.7 9.1 4.3 4.3 2.4 6.8 5 10.6 3.8 5.5 3.9 5.9 11.9 7 1.6.2-1.2-3.7-4-12.5-2.1-6.6 2.3-4.3 7.8-6.6 7.1-3 8 3.4 12.6 4.6 4.7 1.4 1.5-5-1.8-10.1z"/></svg>