<svg xmlns="http://www.w3.org/2000/svg" viewBox="0 0 362.6 288.3" enable-background="new 0 0 362.6 288.3"><g><path d="M99.6 7c2.3 0 4.8.5 7.3 1 2.6.5 5.4 1 8 1h1.1c3.1-.2 5.5-.9 7.3-1.7 9.8 6.2 20 13.7 22 16.6 0 .3-.1.5-.4 1-.9 1.7-2.8 5.1-.3 10.1.7 1.4 1.9 3 3.9 4-1.8 3.5-2.8 8.7 2.4 13.9 3.2 3.2 6.7 3.9 9 3.9 4.4 0 8-2.3 10.9-4.2.5-.3 1.1-.7 1.6-1 .3.4.7.9 1 1.3 3.3 4 8.7 10.7 17.3 10.7 2.5 0 5.1-.6 7.7-1.8 7.1-3.3 8.9-10.4 10.2-15.6.4-1.8 1.2-4.7 1.8-5.4 2.5-.6 5.6-.9 8.6-.9 12.7 0 19.5 5.1 22.9 9.4 2.8 3.5 4.6 9 6.9 16 1.7 5.4 3.7 11.5 6.7 18.1 2.8 6.3 7.6 10.6 12.3 14.7 5.4 4.7 10.1 8.8 10.9 15.6 1.4 11.9 1.3 14.9 1.2 24.5 0 1.4-.1 3-.1 4.8-.1 7.1.6 11.9 1.2 16.5.5 3.2.9 6.3 1 10.2.3 5.8-.7 13.7-1.7 21.2-.6 5.1-1.3 10.3-1.6 15.1-.1 1.6-.2 3.1-.3 4.6-.6 9.6-1 17.3-3.9 26-4.4 13.4-13.2 23.4-18.1 23.4h-.2c-4.3-.2-6.2-.8-8.1-1.4-1.8-.6-3.8-1.2-6.8-1.2-1 0-2 .1-3.1.2-3.6.4-6.4 2.2-8.2 5-.9-1.5-1.9-2.4-3-3.2-.1-.3-.2-.7-.3-1.3-1.5-7.1-4.4-10.2-8.1-14.2-1-1.1-2.1-2.3-3.4-3.7.3-1.7 2.5-4.9 3.9-5.8h5.5c2.3 0 8.6 0 12.1-4.7 3.7-5.1 1.6-11.8.9-14-.5-1.5-.4-2-.1-3.7.4-2.3 1-5.4.1-10.9-.8-4.9-2.3-7.5-3.3-9.4-1-1.7-1.5-2.6-.9-7.7 1.8-13.9-1.4-18.5-6.8-24.4l-.4-.4c-1.4-1.6-3.9-4.3-8.1-4.3-4.5 0-8.9 3-16.2 11.2-2 2.2-3.6 4.2-5.1 6-6.2 7.5-8.3 9.7-14.7 9.7-1 0-2.1-.1-3.3-.2-5.8-.6-8.2-3.1-11.5-6.6-4-4.2-8.9-9.4-19.5-9.5h-.2c-5.8 0-10.9 1.6-15.4 3.1-3.3 1.1-6.3 2-8.7 2-1.1 0-1.9-.2-2.8-.6-6.3-3.2-13.8-10.7-21.8-18.7-7.9-8-16.2-16.2-25.2-22.3-12.9-8.7-22.5-8.8-28.3-8.9-.7 0-1.7 0-2.3-.1-.8-3.9-2.7-8.3-13.1-14.8-5.5-3.4-10.2-6.1-14-8.4-4.1-2.4-8.4-4.9-10.1-6.3.1-1.9 0-3.5-.1-4.7v-.5c2.2-.9 4.7-2.1 8-5.4 6.3-6.3 21.9-21.7 30.6-27.8 4.6-3.2 8-5.3 11.1-7.2 4.3-2.7 8-5 13.2-9.1 16.2-13 22.4-21.1 26-26 1.1-.8 2.3-2.4 2.7-2.6h.2c.6-.1 1.2-.2 2-.2M123 0s-1.2 2.6-7.4 3h-.8c-4.3 0-9.9-2-15.3-2-1 0-2 .1-3 .3-6.5 1.1-4.4 8.6-31.4 30.2-8.5 6.8-13 8.4-24 16.1-8.8 6.2-24 21.1-31.4 28.5-4.4 4.4-6.6 3.7-8.5 5.4-2.4 2.1-.7 4.6-1.2 10.6-.3 3.7 9.1 7.5 26.9 18.6 15 9.4 7.5 11.7 13.1 15 4 2.3 14-2.7 30.5 8.5 17.9 12.1 33.8 34.4 47.6 41.4 1.8.9 3.6 1.3 5.5 1.3 7.1 0 15-5.1 24.1-5.1h.2c15.9.1 14 14.2 30.4 16 1.4.2 2.7.2 4 .2 11.8 0 14.8-7.1 24.3-17.7 6.3-7.1 9.6-9.2 11.8-9.2 1.7 0 2.7 1.4 4 2.7 4.4 4.8 6.8 7.6 5.3 19.5s2.7 9.3 4.2 18.7c1.4 8.9-1.7 9.6.2 15.5 3.1 9.9-2 10.9-7.3 10.9-1.5 0-3-.1-4.4-.1-1 0-1.9 0-2.7.2-3.7.9-10.9 10.7-7.2 15 6.1 7.2 9.2 8.5 10.7 15.8 1.5 7.3 3.1 2.2 5.4 9.5 2.3 7.3-1.3 6.6-5.2 9.3-3.8 2.7 3.9 8.1 6 9.9.2.2.5.3.7.3 1.9 0 4.7-4.2 5.5-9.3 1.2-7.2-.9-14.7 5.6-15.5.9-.1 1.7-.2 2.4-.2 4.7 0 5.5 2.1 14.6 2.6h.5c9.5 0 19.5-14.6 23.8-27.5 3.6-11 3.7-20.2 4.5-32.1.8-11.9 3.7-26.6 3.2-37-.4-9.9-2.4-14.7-2.2-26.3.2-13.8.5-15.9-1.1-30.1-1.8-15.7-18.2-19.8-23.6-32-6.8-15.4-8.3-28.1-14.4-35.5-7.4-9.1-18.7-11.6-27.6-11.6-4 0-7.5.5-10 1.1-8.1 1.9-4.2 17.2-13.1 21.4-1.9.9-3.6 1.2-5.2 1.2-8.4 0-13-10.5-16.3-12.2-.4-.2-.9-.3-1.3-.3-3.6 0-8.3 5.8-13.3 5.8-1.6 0-3.2-.6-4.8-2.2-6.4-6.3 3.8-10.5 1.9-13.9-.4-.6-1.1-.8-2.1-.8h-1.5c-1.4 0-2.8-.2-3.5-1.7-2.1-4.3 2.3-4.3 1.1-10.1C150 16.5 123 0 123 0zM252.6 27.1c1.5.5 2.9.9 4.2 1.3 2.9.9 5.2 1.5 6.2 2.4.6.5.7.6 1 2.1.4 2.1 1.1 5.3 4.4 8.7 4 4 6.3 5.5 8.8 7.1 1.3.8 2.7 1.7 4.7 3.1 1.9 1.4 3.5 2.6 5.1 3.8 4.6 3.4 8.6 6.3 14.7 11.1 4.8 3.7 9.4 6.4 13.6 8.5-1.3.7-2.5 1.5-3.7 2.6-3 2.8-4.2 6.5-3.4 10.3.6 2.6 1.9 4.9 3.4 7.3.8 1.4 1.7 2.8 2.4 4.2 1.2 2.6 1.3 4.3 1.5 6.2 0 .4.1.7.1 1.1-.5-.5-1.1-.9-1.7-1.4-1.2-.9-2.2-1.6-3.1-2.2-3.7-2.5-5.4-3.6-10.5-15.1-2.6-5.8-4.8-8.3-7.4-11.3-1.2-1.4-2.4-2.8-4-4.8-1.6-2.1-2.6-3.4-3.3-4.4-2.1-2.9-2.5-3.4-5.9-6.2-3.3-2.8-5.7-4.2-7.7-5.3-2.2-1.2-3.3-1.8-5.3-4.4-3.3-4.2-4.2-6.2-4.9-7.9-1.2-2.8-2.3-4.9-6.4-8.5-.9-.8-1.8-1.5-2.5-2.2-.8-.7-1.7-1.5-2.4-2.1.2-.4.5-.8.7-1.2.6-.8 1.1-1.8 1.4-2.8m69.1 90.2c3.6 2.5 6.4 2.7 8.5 2.8 1.5.1 2.7.2 5.2 1.4 1.5.7 2.2 1.4 3.1 2.4.3.4.7.8 1.2 1.2-1.8.5-3.8 1.5-5.2 3.7l-.6 1.2c-.7-1.1-1.6-2.2-2.7-3.4-2.8-2.7-4.6-3.7-6.4-4.4-.1 0-.2-.1-.3-.1-.2-.2-.8-1-2-3.2-.4-.6-.6-1.1-.8-1.6M241.8 6.7c-2.3 0-5.1 1.2-7.9 4-2.2 2.2-.6 4.2 2.1 5.3 2.7 1.1 6.6 1.3 9.3 4.2 3.9 4.2 1.2 5-.9 9.8-1.4 3.3.4 4.2 7 10s2.7 5.5 10.6 15.6c4.8 6.2 7.1 4.9 13.8 10.6 4.3 3.7 2.7 2.3 8.3 9.8 5 6.6 7.4 7.5 10.7 14.8 7 15.7 9 14.9 15.5 19.7 4.5 3.3 4.2 6.6 6.8 11.3 4.6 8.3 4.4 3.8 9.7 9.1 4.3 4.3 2.4 6.8 5 10.6 3.8 5.5 3.9 5.9 11.9 7h.1c1.3 0-1.4-3.9-4.1-12.5-2.1-6.6 2.3-4.3 7.8-6.6 1.3-.6 2.4-.8 3.4-.8 4.2 0 5.5 4.4 9.2 5.4.4.1.7.2 1 .2 3.1 0 .2-5.8-2.8-10.4-3.3-5.1-3.9-5.5-5.6-5.7h-.4c-3 0-2.2 3.6-4.3 3.9-.5.1-.9.1-1.3.1-3.8 0-3.7-3.3-9-5.9-7.2-3.5-8.4-.4-13.3-4.1-4.9-3.7-1.4-7-5.1-14.9-3.1-6.6-8.1-10.8-3.7-14.9 2-1.9 4.2-2.6 6.3-2.6 3.9 0 7.7 2.3 11.1 3.9 1.2.6 2.1.8 2.8.8 2.5 0 2.3-2.9-.1-5.9-3.1-3.8-16-5.2-30.5-16.5-8.4-6.5-12.8-9.7-20-15-5.8-4.4-7.4-4.1-12.8-9.6-4.2-4.3-1.5-7.5-5.8-11.2-2.9-2.4-7.3-3-13.9-5.3-6.3-2.2-4.5-1.1-5.1-7.9-.1-3.9-2.5-6.3-5.8-6.3z"/></g></svg>