<svg xmlns="http://www.w3.org/2000/svg" viewBox="0 328.8 595.3 513.1" enable-background="new 0 328.8 595.3 513.1"><path d="M592.9 641c-1.2-17.9-6.6-24.8-4.2-41.3 4.4-28.3 9.6-36.1 4.7-75-2.7-21.1-18.9-47.7-29.7-57.5-15.5-13.8-32.7-11.3-49.6-27.8-16.5-16-17.9-25.8-32.2-38.8-14.3-13-60-32.7-75.7-43-12.3-7.9-10.3-17.2-22.1-24.8-8.1-5.2-17.9 1-37.9 1.2-16 .2-28.3-2.9-38.3-2.9-10.1 0-17.7 6.6-34.7 3.4-16.5-3.2-32.4-9.8-48.7-2.2-12.8 6.1-8.4 20.9-25.8 32.7-10.6 7.1-35.4 19.7-47.2 29.5-11.8 9.8-27.8 27.3-39.1 37.9-10.1 9.3-25.8 15-44.7 29.2-13.8 10.3-39.1 35.4-46.2 40.8-5.7 4.2-11.1 1-11.1 1s.5 34.7.7 53.6c0 18.2-13.8 28.5-10.8 86 1.2 24.6 22.1 26.1 41.3 43 13.5 12 16.7 19.9 31 29.5 16.2 11.1 24.6 13.5 40.1 24.6 11.1 7.9 23.1 26.5 39.3 37.1s58.2 33.9 68.3 47.7c3.9 5.4-2.5 17-2.5 17s32.7-11.6 48.2-10.6c22.6 1.2 37.1 9.6 53.6 8.1 9.3-.7 53.1-49.6 80.4-60.5 25.6-10.1 55.3-32.4 66.6-41.8 11.3-9.3 11.6-23.8 25.8-30.5 22.9-10.6 40.3-1.2 58-2.5 19.4-1.2 43.5-2.5 43.5-2.5s-3.7-4.9-4.4-21.6c-1-16.6 4.4-24.7 3.4-39z"/></svg>