<svg xmlns="http://www.w3.org/2000/svg" viewBox="0 0 242.2 208.7" enable-background="new 0 0 242.2 208.7"><path d="M98.1 6c2.3 0 4.9.6 7.7 1.2l4.2.9c1.6.3 3.2.5 4.7.5 3.2 0 5.7-.7 7.7-1.2 1.2-.3 2.1-.6 2.8-.6 1.4 0 3.1.2 5.1.5 2.8.3 6.2.8 10.1.8h.4c3.9 0 7-.6 9.2-1 1.2-.2 2.4-.4 3-.4h.1c1.1.7 1.5 1.5 2.3 2.8 1.2 2 2.8 4.7 6.5 7.1 2.7 1.8 6.9 3.9 11.8 6.4 6.8 3.5 15.2 7.7 18.2 10.5 2.4 2.2 3.7 4 5.3 6.4 1.8 2.6 3.9 5.6 7.7 9.3 4.5 4.4 9.2 6.1 12.9 7.5 2.9 1.1 5.3 2 7.4 3.9 3.5 3.1 9.3 12.8 10.1 19.7 1.4 11.3.7 15.3-.6 21.9-.4 2-.8 4.2-1.2 6.9-.8 5.2-.1 8.6.6 11.9.4 1.9.8 3.8 1 6.3.1 2.1-.2 3.8-.6 5.9-.5 2.5-1.1 5.7-.8 9.9.1 1.1.1 2 .2 2.9-3.2.2-7 .4-10.5.6h-.9c-1.6 0-3.4-.2-5.3-.5-2.2-.3-4.7-.6-7.5-.6-4.3 0-8.2.9-12.1 2.6-5.1 2.3-7.3 6.3-9 9.3-1 1.7-1.7 3.1-2.8 4-4.7 3.9-16.2 12.4-25.5 16.1-7.4 2.9-16.4 10.9-23.7 17.4-2.8 2.5-6.6 5.8-8.2 6.9h-.3c-2.2 0-4.7-.6-7.5-1.3-3.5-.8-7.4-1.8-12.3-2.1h-1c-3.4 0-7.9.9-11.9 2-.3-.7-.6-1.4-1.1-2-3.5-4.9-12.3-10.4-23.4-17.1-2.4-1.5-4.5-2.8-6-3.7-3.1-2-5.9-5.1-8.6-8.1-2.4-2.6-4.7-5.1-7.2-6.9-3.5-2.5-6.3-4-8.9-5.5-2.3-1.3-4.6-2.6-7.5-4.6-2.8-1.9-4.2-3.5-6.2-5.7-1.5-1.7-3.2-3.6-5.8-5.8-2.9-2.6-5.8-4.3-8.3-5.8-5.2-3.2-6.3-4.2-6.5-7.4-.7-14.3 1.2-20.5 2.7-25.5.9-3 1.7-5.8 1.7-9.2 0-4.5-.1-11.4-.2-16.2.7-.3 1.4-.7 2-1.2 1.4-1.1 3.7-3.1 7.2-6.4 3.8-3.5 8.6-7.9 11.6-10.2 3.5-2.6 6.8-4.5 9.7-6.2 3.3-1.9 6.4-3.7 9-6.1 2-1.9 4.3-4.1 6.7-6.6 3.2-3.2 6.4-6.5 9-8.7 2.7-2.2 7.8-5.2 11.9-7.5 2.7-1.6 5-2.9 6.8-4.1 5.1-3.4 7-7.6 8.3-10.3C93.4 7.4 93.6 7 94 6.9c1.2-.6 2.6-.9 4.1-.9m0-6c-2.2 0-4.5.4-6.7 1.4-5.2 2.5-3.4 8.5-10.5 13.2-4.3 2.9-14.4 7.9-19.2 12-4.9 4.1-11.3 11.2-16 15.4-4.2 3.9-10.6 6.1-18.2 11.9-5.6 4.2-15.8 14.4-18.8 16.6-.9.7-1.8.9-2.6.9-1.1 0-1.9-.5-1.9-.5s.2 14.1.3 21.8c.1 7.4-5.5 11.6-4.4 35 .5 9.9 9 10.6 16.8 17.5 5.5 4.9 6.8 8.1 12.6 12 6.6 4.5 10 5.6 16.3 10 4.5 3.2 9.4 10.8 16 15.1 6.6 4.3 23.8 13.8 27.8 19.4 1.6 2.2-1 6.9-1 6.9s12.3-4.4 18.8-4.4h.7c8.5.5 14.1 3.4 20.2 3.4.5 0 1.1 0 1.6-.1 3.8-.4 21.6-20.2 32.7-24.6 10.4-4.1 22.5-13.2 27.1-17 4.6-3.8 4.7-9.8 10.5-12.4 3.4-1.6 6.6-2.1 9.6-2.1 4.5 0 8.6 1.1 12.7 1.1h1.3c8-.5 17.7-1 17.7-1s-1.5-2.1-1.8-8.8c-.3-6.8 1.8-10.1 1.4-15.9-.5-7.4-2.7-10.1-1.7-16.8 1.8-11.5 3.8-14.7 1.9-30.5-1.1-8.6-7.7-19.4-12.1-23.4-6.3-5.6-13.3-4.6-20.2-11.3-6.7-6.5-7.3-10.4-13.1-15.8-5.8-5.3-24.4-13.3-30.8-17.5-5-3.2-4.1-7-9-10.1-1-.6-2-.8-3.1-.8-2.8 0-6.5 1.3-12.3 1.4h-.4C134 2 129 .8 125 .8c-3.3 0-6 1.8-10.5 1.8-1.1 0-2.3-.1-3.6-.4-4.1-.8-8.4-2.2-12.8-2.2z"/></svg>