<svg xmlns="http://www.w3.org/2000/svg" viewBox="0 324.1 595.3 517.8" enable-background="new 0 324.1 595.3 517.8"><path d="M587 576c-.4-45.2 5.4-77.4 2-94.8-3.4-17.4-48.7-37.1-61.3-46.3-12.5-9.2-21.9-19-36.9-33.3-6.5-6.3-29.3-12.1-41.6-21.9-12.3-9.6-17-16.8-30.6-28.2-17.7-15-27.1-25.3-32.4-27.5-5.4-2-26.6 6.5-51.4 4.7-15.9-1.1-52.1-4.5-60.8-1.3-8.7 3.2-5.6 12.5-22.4 23.7-12.1 7.8-28.6 11.9-39.4 21-11 9.2-22.6 35.3-57.9 36.9-33.3 1.6-74.7-7.4-86.5-6.9-11.9.4-29.3 5.1-38.9 6.7-9.6 1.6-28.8-6-28.8-6S7 414 14.2 423.6c7.2 9.6 44.9 22.4 60.4 33.5 19.2 13.9 27.1 29.5 39.6 42s42.7 21 51.2 30.9c12.3 14.1 21 32 24.8 50.8 4.5 21.7 4.9 30-.4 57-5.4 27.1-2 32.2.4 48.3 2.9 20.8-8.7 38-4 46.5 9.4 17.2 13.9 6.9 30.6 22.6 23.9 22.6 60.4 52.3 71.8 62.6 11.4 10.3 20.1 5.4 28.2 10.7 8.1 5.4 6.5 13.6 13.4 13.6s61-57.7 72.9-67.5c15.2-12.7 54.6-37.1 70-48.7 42.3-31.8 50.8-58.6 61.9-61.9 20.6-6.3 47.9 8.7 55.9 2.2 11.8-9.9-3.4-52.4-3.9-90.2z"/></svg>