<svg xmlns="http://www.w3.org/2000/svg" viewBox="0 0 266.2 231.7" enable-background="new 0 0 266.2 231.7"><path d="M170.9 6.1c1 .8 2.7 2.3 4.2 3.7 2.2 2 4.9 4.5 8.3 7.3 2.8 2.3 4.7 4.2 6.5 6 2.1 2.1 4.2 4.2 7.3 6.7 3.6 2.8 8.2 4.8 12.3 6.6 2 .9 5.1 2.2 5.8 2.8 1.3 1.2 2.5 2.4 3.6 3.5 4.8 4.7 8.6 8.3 13.4 11.9 1.8 1.4 4.6 2.9 7.9 4.7 3.8 2.1 8.2 4.6 11.7 7.1 4.7 3.3 5.4 5 5.5 5.2.6 3.4.3 9.2-.2 16.6-.4 6.8-.9 15.2-.8 24.8.1 7 1.2 14.2 2.2 20.6.7 4.6 1.8 11.2 1.5 14.3-1.2-.2-2.8-.5-4.4-.8-3.5-.7-7.4-1.5-11.5-1.5-2.5 0-4.8.3-6.9.9-3.9 1.2-6.3 4.3-9.7 8.6-4 5.1-9.4 12.1-19.9 20-2.7 2-7.3 5.1-12.3 8.4-7.4 5-15.1 10.1-19.3 13.6-2 1.7-5.9 5.5-10.8 10.4-4.8 4.7-12.7 12.7-17.2 16.6-.8-1.1-1.9-2.3-3.5-3.3-2.6-1.8-5.3-2.1-7.2-2.4-2-.3-3.1-.4-4.7-1.9-1.8-1.7-4.9-4.3-8.8-7.6-6.9-5.9-16.3-13.9-23.2-20.4-4.4-4.1-7.6-5.2-9.8-5.9-1.4-.5-1.6-.5-2.6-2.3 0-.8.5-2.6.8-4 1-3.9 2.3-9.2 1.4-15.3-.2-1.5-.5-2.7-.7-3.9-.8-4.4-1.3-7 .4-15.7 2.6-12.8 2.3-17.5.2-27.9-1.9-9.4-6.3-18.4-12.4-25.4-2.7-3.1-7.2-5.3-12.4-7.8-4.1-2-8.7-4.2-10.8-6.3-1.8-1.8-3.4-3.8-5.1-5.9-3.4-4.2-7.2-9-13.4-13.5-3.5-2.6-8.8-5-13.9-7.4-2-.9-4.7-2.2-7.1-3.4 1.1-.2 2.3-.5 3.6-.7 3.7-.8 8.2-1.8 11.3-1.9h.2c1.7 0 5.4.5 9.3 1 7 .9 16.5 2.2 25.3 2.2 1.3 0 2.6 0 3.8-.1 14.8-.7 22.2-9.5 26.6-14.8 1.1-1.3 2.1-2.5 2.8-3.1 2-1.7 5.1-3.1 8.3-4.5 2.9-1.3 6-2.7 8.8-4.5 5.4-3.6 7.3-7 8.6-9.3.1-.2.3-.5.4-.7.5-.1 1.7-.2 3.9-.2 5 0 11.9.5 16.9.9 1.4.1 2.6.2 3.6.3 1.2.1 2.3.1 3.5.1 5.9 0 11-1 14.8-1.7 1.7-.4 3-.6 3.9-.7m.7-6.1c-3.1 0-10.3 2.3-18.8 2.3-1 0-2.1 0-3.1-.1-5-.4-14.4-1.2-21-1.2-2.8 0-5.1.2-6.3.6-3.9 1.4-2.4 5.6-10 10.6-5.3 3.6-12.8 5.3-17.6 9.4S84.8 37.5 69 38.2c-1.2.1-2.3.1-3.5.1-13.7 0-29.2-3.2-34.6-3.2h-.5c-5.3.2-13 2.3-17.4 3-.4.1-.9.1-1.4.1C7 38.2 0 35.4 0 35.4s3 4.6 6.2 8.9 20.1 10 27 15c8.6 6.3 12.2 13.3 17.7 18.8C56.4 83.8 70 87.5 73.8 92c5.4 6.3 9.3 14.4 11.1 22.7 2 9.7 2.2 13.4-.2 25.5-2.4 12.1-.9 14.4.2 21.6 1.4 9.2-3.9 16.9-1.8 20.8 4.2 7.7 6.2 3.1 13.7 10.1 10.7 10.1 27.1 23.4 32.1 28 5.1 4.6 8.9 2.4 12.6 4.8 3.6 2.4 2.9 6.1 6 6.1s27.3-25.7 32.6-30.2c6.8-5.7 24.5-16.7 31.3-21.8 18.8-14.2 22.7-26.2 27.7-27.7 1.6-.5 3.4-.7 5.1-.7 6.3 0 13 2.4 17 2.4 1.2 0 2.2-.2 2.8-.8 5.3-4.3-1.5-23.4-1.7-40.3-.2-20.2 2.3-34.7.9-42.4-1.4-7.7-21.8-16.5-27.4-20.7-5.6-4.1-9.8-8.5-16.5-14.9-2.9-2.8-13.1-5.4-18.6-9.8-5.5-4.4-7.6-7.5-13.7-12.6C179 5.5 174.9.8 172.5-.2c-.1.2-.5.2-.9.2z"/></svg>