<?xml version="1.0" encoding="utf-8"?>
<!-- Generator: Adobe Illustrator 18.1.0, SVG Export Plug-In . SVG Version: 6.00 Build 0)  -->
<!DOCTYPE svg PUBLIC "-//W3C//DTD SVG 1.1//EN" "http://www.w3.org/Graphics/SVG/1.1/DTD/svg11.dtd">
<svg version="1.1" id="contyr" xmlns="http://www.w3.org/2000/svg" xmlns:xlink="http://www.w3.org/1999/xlink" x="0px" y="0px"
	 viewBox="0 0 249.8 272.4" enable-background="new 0 0 249.8 272.4" xml:space="preserve">
<g>
	<path d="M149.7,0c3,0.1,3.3,8.1,10.5,11.4s10.4,4,17.9,2.9s17.8-6.5,20.9-5.5c7.1,2.3,5.5,7.5,12.4,14.4
		c10.1,10.1,17.1,9.4,18.3,13.5c0.7,2.4-8.2,9.1-8.4,14c-0.1,4.9,4.2,12,4.9,20s-0.7,16.8,1.7,21.2s2.8,9.1,6.8,10.5
		c4.6,1.6,5.9-8.6,12.1-6.1c4.8,1.9,3.2,6.9,0.7,9.6s-8.6,2.4-11.8,7.5s-2.5,13.1-8.4,12.7c-5.9-0.4-6.5-7.8-10.3-7.3
		c-3.7,0.4-8.4,5.7-18.3,9.9c-4.6,1.9-1.2,7-3.8,9.4c-2.6,2.4-6,4.6-11.2,9.9c-3.7,3.7-6.1,7.6-8.6,9.4c-4.9,3.4-14.9,6.3-20.9,11.7
		c-12.5,11.2-10.4,17-11.1,23c-0.7,6-3.3,7.5-1.9,11.5c1.4,4,2.9,2.6,1.4,8.1s-7.5,13.7-8.2,21c-0.7,7.3,1.7,19.4,0.9,25.5
		c-1.4,11.2-8.3,16.3-11,13.4c-2.7-2.9,2.4-7.5-2.2-12.7c-15.4-17.4-25.6-14.1-27.2-20.8c-0.8-3.5,0.4-8.4-1.3-14.3
		c-1.7-5.9-3.9-22.3-3.5-32.7c0.4-10.4,3.3-27.5,0.7-33.8c-3-7.4-14.2-13.9-26.4-21.2c-9.5-5.8-10.6-8-19.3-15.1
		c-6-4.9-9.9-4.6-15.3-9.4c-8.1-7.2-13.1-11.5-17.9-15.4C7.3,92.3,1.1,91,0.1,85.8c-1-5.2,12.1-14.5,18.3-19.2S31,59.3,32.7,56.4
		c1.7-2.9,0.1-24.5-1.4-32c-1.6-7.5-4.8-15.6,1.3-19s10-0.2,18.1,0.6c15.1,1.4,20.6-2.7,26.6-0.3c6,2.4,4.6,3.9,9.7,5.2
		c8.6,2.2,16.1-10.9,21-7.7c4.9,3.2,4.1,12.6,10,13.6c5.9,1,4.9-1.9,9.4-1.9c5.2,0,4.5,4.8,9.9,2.4C148.1,12.4,143.3-0.1,149.7,0z"
		/>
</g>
</svg>
