<?xml version="1.0" encoding="utf-8"?>
<!-- Generator: Adobe Illustrator 18.1.0, SVG Export Plug-In . SVG Version: 6.00 Build 0)  -->
<!DOCTYPE svg PUBLIC "-//W3C//DTD SVG 1.1//EN" "http://www.w3.org/Graphics/SVG/1.1/DTD/svg11.dtd">
<svg version="1.1" xmlns="http://www.w3.org/2000/svg" xmlns:xlink="http://www.w3.org/1999/xlink" x="0px" y="0px"
	 viewBox="0 0 249.8 272.4" enable-background="new 0 0 249.8 272.4" xml:space="preserve">
<g id="large" display="none">
	<g display="inline">
		<path d="M43.1,18c1.8,0.4,3.9,0.8,6.4,1c2.6,0.2,5.1,0.4,7.6,0.4c5.3,0,9.3-0.6,12.3-1c1.4-0.2,2.7-0.4,3.4-0.4
			c0.8,0.3,1,0.5,1.5,0.9c2,1.6,4.6,3.5,9.5,4.7c1.7,0.4,3.4,0.6,5.1,0.6c5.4,0,10-2,13.6-4.2c2.3,4,6.2,8.5,13.2,9.7
			c1.6,0.3,3,0.4,4.4,0.4c2.6,0,4.8-0.5,6.5-1.1c1.9,1.1,4.6,2.1,7.9,2.1c2.6,0,5.3-0.6,8-1.9c4.3-2,7.4-4.6,9.6-7.3
			c0.8,0.5,1.6,0.9,2.5,1.3c6.3,2.9,11.2,4.6,17.6,4.6c2.3,0,4.7-0.2,7.6-0.7c4.6-0.7,9.2-2.3,13.3-3.7c0.5-0.2,1.1-0.4,1.7-0.6
			c1.4,2.5,3.5,5.9,7.1,9.6c3.4,3.4,6.6,5.9,9.4,7.7c-1.8,2.9-3.2,6.3-3.3,10.2c-0.1,4.7,1.3,9,2.7,13.1c1,2.9,2,5.9,2.2,8.4
			c0.2,2.3,0.2,4.9,0.2,7.5c0,6.5-0.1,13.2,3.2,19c0.3,0.6,0.7,1.5,1.1,2.5c0.6,1.4,1.3,3.3,2.5,5.2c-0.9-0.2-1.9-0.3-2.9-0.3
			c-0.6,0-1.2,0-1.8,0.1c-4.9,0.6-8.6,3-12.2,5.4c-2.6,1.7-5.6,3.7-9.6,5.4c-4.6,1.9-7.9,5.4-9.5,9.9c-0.6,1.6-0.9,3.2-1,4.5
			c-2.2,1.8-5.1,4.2-8.7,7.8c-2,2-3.6,3.9-4.9,5.5c-0.7,0.9-1.7,2-2.2,2.5c-1.1,0.7-3.6,1.9-5.6,2.8c-5,2.3-11.3,5.2-16.3,9.7
			c-13.4,12-14.9,21-15.2,29.2c0,0.8-0.1,1.5-0.1,2c-0.1,1-0.3,1.6-0.8,2.8c-1,2.8-2.9,7.9-0.4,14.7c0.2,0.6,0.4,1.1,0.6,1.6
			c-0.5,1.2-1.3,2.7-1.9,3.9c-2.5,5-5.6,11.1-6.2,17.9c-0.3,2.8-0.2,5.9-0.1,9c-5.7-4.4-10.4-6.7-13.9-8.3c0-3-0.1-7.2-1.5-12
			c-1.2-4.2-3.3-19.2-2.9-28.5c0.1-2.7,0.4-6,0.8-9.6c1.2-13.4,1.8-22.8-1-29.7c-4.5-11.1-16.5-18.3-30.4-26.7l-1.2-0.7
			c-5.5-3.3-7.4-5-10.9-8.1c-1.7-1.5-3.9-3.5-6.8-5.9c-4.2-3.4-7.8-5.2-10.5-6.4c-2-1-3.1-1.5-4.5-2.7c-8-7-13.2-11.6-18.2-15.7
			c-1-0.8-2-1.6-3-2.2c2.9-2.4,6.2-4.9,7.8-6l1.1-0.8c2-1.5,4.2-2.8,6.3-4.1c4.5-2.8,8.8-5.4,11.5-9.8c2.1-3.5,3.1-8,2.4-21.7
			c-0.3-5.8-1.1-14.4-2.2-19.7C43.7,20.5,43.4,19.2,43.1,18C43.1,18,43.1,18,43.1,18 M149.6,0c-6.2,0-1.6,12.5-12.3,17.3
			c-1.1,0.5-2,0.7-2.7,0.7c-2.7,0-3.1-3.1-7.2-3.1c-3.8,0-3.6,2.1-7.1,2.1c-0.6,0-1.3-0.1-2.2-0.2c-5.9-1-5.1-10.5-10-13.6
			c-0.5-0.3-1.1-0.5-1.7-0.5c-4.4,0-10.4,8.5-17.3,8.5c-0.7,0-1.3-0.1-2-0.2c-5-1.3-3.6-2.7-9.7-5.2C75.9,5.2,74.5,5,73,5
			c-3.9,0-8.4,1.4-15.9,1.4c-1.9,0-4-0.1-6.4-0.3c-5.5-0.5-9-2.1-12.6-2.1c-1.8,0-3.6,0.4-5.6,1.6c-6,3.5-2.9,11.5-1.3,19
			c1.6,7.5,3.2,29.1,1.4,32c-1.7,2.9-8.2,5.6-14.4,10.2C12.2,71.3-1,80.6,0.1,85.8c1,5.2,7.2,6.5,12,10.4c4.8,3.9,9.7,8.3,17.9,15.4
			c5.4,4.7,9.3,4.5,15.3,9.4c8.7,7.1,9.7,9.3,19.3,15.1c12.1,7.3,23.3,13.9,26.4,21.2c2.6,6.3-0.3,23.5-0.7,33.8
			c-0.4,10.4,1.7,26.8,3.5,32.7c1.7,5.9,0.5,10.8,1.3,14.3c1.6,6.7,11.8,3.5,27.2,20.8c4.6,5.2-0.4,9.8,2.2,12.7
			c0.5,0.5,1.1,0.8,1.9,0.8c3.2,0,8-5,9.2-14.2c0.8-6.1-1.6-18.1-0.9-25.5c0.7-7.3,6.8-15.6,8.2-21s0-4-1.4-8.1
			c-1.4-4,1.2-5.5,1.9-11.5c0.7-6-1.4-11.8,11.1-23c5.9-5.3,16-8.2,20.9-11.7c2.5-1.8,5-5.7,8.6-9.4c5.2-5.3,8.6-7.5,11.2-9.9
			c2.6-2.4-0.9-7.5,3.8-9.4c9.9-4.1,14.5-9.4,18.3-9.9c0.1,0,0.2,0,0.3,0c3.5,0,4.2,6.9,10,7.4c0.2,0,0.3,0,0.4,0
			c5.4,0,4.9-7.8,8-12.7c3.2-5,9.4-4.8,11.8-7.5c2.4-2.7,4.1-7.7-0.7-9.6c-0.7-0.3-1.3-0.4-1.9-0.4c-4.3,0-5.8,6.6-9.2,6.6
			c-0.3,0-0.6-0.1-1-0.2c-4-1.4-4.3-6.2-6.8-10.5c-2.4-4.3-1-13.1-1.7-21.2c-0.7-8.1-5-15.1-4.9-20c0.1-4.9,9-11.6,8.4-14
			c-1.2-4.2-8.2-3.5-18.3-13.5c-6.9-6.9-5.3-12.1-12.4-14.4c-0.3-0.1-0.6-0.1-1-0.1c-3.9,0-13.1,4.5-19.9,5.6
			c-2.2,0.3-4,0.5-5.7,0.5c-4,0-7.1-1-12.2-3.4C153,8.1,152.7,0.1,149.6,0C149.6,0,149.6,0,149.6,0L149.6,0z"/>
	</g>
</g>
<g id="small">
	<g>
		<path d="M105.5,9.4c0.4,0.8,0.9,2,1.2,2.8c1.5,3.8,3.7,9.5,10.3,10.6c1.2,0.2,2.2,0.3,3.2,0.3c3.1,0,5-1,6.5-1.9
			c0.1-0.1,0.3-0.2,0.4-0.2c0,0,0.1,0,0.3,0c0,0,0.1,0,0.1,0c0.1,0.1,0.3,0.3,0.5,0.4c1.1,0.9,3.2,2.7,6.6,2.7
			c1.6,0,3.3-0.4,5.2-1.2c6.5-3,9.1-7.9,10.5-12.1c1.7,2.2,4,4.5,7.4,6.1c5.6,2.6,9.5,3.9,14.7,3.9c1.9,0,4-0.2,6.6-0.6
			c3.9-0.6,8.3-2.1,12.1-3.4c2.1-0.7,5.3-1.8,6.6-2.1c1.2,0.5,1.5,1.1,2.8,3.5c1.3,2.4,3,5.7,6.6,9.2c6.1,6.1,11.4,8.8,14.8,10.5
			c0,0,0,0,0,0c-0.1,0.1-0.1,0.1-0.1,0.2c-2.8,3.4-6.4,7.6-6.5,12.4c-0.1,3.5,1.1,7,2.3,10.6c1.1,3.3,2.3,6.7,2.6,10.1
			c0.2,2.6,0.2,5.4,0.2,8.1c0,5.8-0.1,11.3,2.3,15.5c0.6,1,1,2.2,1.5,3.4c1.3,3.3,3.1,7.8,8.2,9.7c-0.6,0.7-1.2,1.5-1.8,2.3
			c-1.5,2.4-2.3,4.9-3,7.2c-0.2,0.6-0.5,1.5-0.7,2.1c-0.3-0.4-0.7-0.9-1.1-1.4c-1.5-2-4-5.4-8.5-5.4c-0.3,0-0.7,0-1,0.1
			c-3.2,0.4-6,2.2-9.1,4.3c-2.7,1.8-6.2,4.1-10.8,6c-6.3,2.7-6.3,8.6-6.3,10.8c0,0.1,0,0.3,0,0.5c-0.6,0.5-1.3,1.1-2.1,1.8
			c-2.2,1.8-4.9,4-8.5,7.6c-1.7,1.8-3.2,3.5-4.5,5c-1.3,1.5-2.6,3.1-3.4,3.6c-1.5,1.1-4.1,2.3-6.9,3.6c-4.8,2.2-10.3,4.8-14.5,8.5
			c-12.3,11.1-12.7,18.7-12.9,24.3c0,0.9-0.1,1.8-0.2,2.5c-0.2,1.8-0.7,3-1.1,4.3c-0.8,2.3-2,5.5-0.4,9.9c0.5,1.5,1.1,2.6,1.6,3.3
			c-0.1,0.3-0.1,0.7-0.3,1.2c-0.4,1.6-1.6,4-2.9,6.5c-2.3,4.7-5,10-5.5,15.5c-0.4,4.2,0,9.4,0.5,14.4c0.4,4.2,0.7,8.5,0.4,10.9
			c-0.1,0.5-0.1,1-0.2,1.5c-0.5-1.3-1.4-2.7-2.6-4.1c-9.6-10.8-17.4-14.4-22.6-16.7c-1.2-0.6-2.8-1.3-3.3-1.7
			c-0.1-0.7-0.1-2.1-0.1-3.4c0-2.8,0-6.7-1.2-11c-1.6-5.3-3.6-21.2-3.2-30.8c0.1-2.8,0.4-6.3,0.8-10c1.1-12.4,1.7-20.9-0.5-26.4
			c-3.7-8.9-14.7-15.6-27.6-23.3l-1.2-0.8c-6.1-3.6-8.3-5.6-12-8.9c-1.8-1.6-3.8-3.4-6.6-5.7c-3.5-2.9-6.4-4.3-9-5.5
			c-2.2-1.1-4-1.9-6.1-3.7c-7.9-7-13.1-11.6-18-15.5c-2-1.6-4-2.8-5.8-3.8c-1.5-0.9-3.1-1.8-3.8-2.6c0.5-0.8,1.8-2.5,5-5.3
			c3.1-2.8,6.9-5.5,9.6-7.6l1.1-0.8c2.3-1.7,4.7-3.2,6.8-4.5c4.1-2.5,7.3-4.5,9.1-7.5c0.8-1.3,2.2-3.6,1.4-17.7
			c-0.4-7.2-1.2-14.6-2.1-18.6c-0.3-1.2-0.5-2.4-0.8-3.6c-0.7-2.7-1.3-5.6-1.3-7.5c0-1.2,0.2-1.3,0.5-1.4c1.2-0.7,2-0.8,2.6-0.8
			c1.1,0,2.6,0.3,4.4,0.8c2,0.5,4.6,1.1,7.6,1.4c2.4,0.2,4.7,0.3,6.9,0.3c4.8,0,8.4-0.5,11.4-0.9c1.8-0.2,3.3-0.5,4.5-0.5
			c0.9,0,1.5,0.1,2.1,0.4c2.1,0.8,2.8,1.4,3.6,2.1c1.6,1.3,3.3,2.5,6.9,3.4c1.1,0.3,2.3,0.4,3.4,0.4c5.8,0,10.4-3.4,14.1-6.1
			C103.8,10.6,104.7,9.9,105.5,9.4 M149.6,0c-6.2,0-1.6,12.5-12.3,17.3c-1.1,0.5-2,0.7-2.7,0.7c-2.7,0-3.1-3.1-7.2-3.1
			c-3.8,0-3.6,2.1-7.1,2.1c-0.6,0-1.3-0.1-2.2-0.2c-5.9-1-5.1-10.5-10-13.6c-0.5-0.3-1.1-0.5-1.7-0.5c-4.4,0-10.4,8.5-17.3,8.5
			c-0.7,0-1.3-0.1-2-0.2c-5-1.3-3.6-2.7-9.7-5.2C75.9,5.2,74.5,5,73,5c-3.9,0-8.4,1.4-15.9,1.4c-1.9,0-4-0.1-6.4-0.3
			c-5.5-0.5-9-2.1-12.6-2.1c-1.8,0-3.6,0.4-5.6,1.6c-6,3.5-2.9,11.5-1.3,19c1.6,7.5,3.2,29.1,1.4,32c-1.7,2.9-8.2,5.6-14.4,10.2
			C12.2,71.3-1,80.6,0.1,85.8c1,5.2,7.2,6.5,12,10.4c4.8,3.9,9.7,8.3,17.9,15.4c5.4,4.7,9.3,4.5,15.3,9.4c8.7,7.1,9.7,9.3,19.3,15.1
			c12.1,7.3,23.3,13.9,26.4,21.2c2.6,6.3-0.3,23.5-0.7,33.8c-0.4,10.4,1.7,26.8,3.5,32.7c1.7,5.9,0.5,10.8,1.3,14.3
			c1.6,6.7,11.8,3.5,27.2,20.8c4.6,5.2-0.4,9.8,2.2,12.7c0.5,0.5,1.1,0.8,1.9,0.8c3.2,0,8-5,9.2-14.2c0.8-6.1-1.6-18.1-0.9-25.5
			c0.7-7.3,6.8-15.6,8.2-21c1.4-5.5,0-4-1.4-8.1c-1.4-4,1.2-5.5,1.9-11.5c0.7-6-1.4-11.8,11.1-23c5.9-5.3,16-8.2,20.9-11.7
			c2.5-1.8,5-5.7,8.6-9.4c5.2-5.3,8.6-7.5,11.2-9.9c2.6-2.4-0.9-7.5,3.8-9.4c9.9-4.1,14.5-9.4,18.3-9.9c0.1,0,0.2,0,0.3,0
			c3.5,0,4.2,6.9,10,7.4c0.2,0,0.3,0,0.4,0c5.4,0,4.9-7.8,8-12.7c3.2-5,9.4-4.8,11.8-7.5c2.4-2.7,4.1-7.7-0.7-9.6
			c-0.7-0.3-1.3-0.4-1.9-0.4c-4.3,0-5.8,6.6-9.2,6.6c-0.3,0-0.6-0.1-1-0.2c-4-1.4-4.3-6.2-6.8-10.5c-2.4-4.3-1-13.1-1.7-21.2
			c-0.7-8.1-5-15.1-4.9-20c0.1-4.9,9-11.6,8.4-14c-1.2-4.2-8.2-3.5-18.3-13.5c-6.9-6.9-5.3-12.1-12.4-14.4c-0.3-0.1-0.6-0.1-1-0.1
			c-3.9,0-13.1,4.5-19.9,5.6c-2.2,0.3-4,0.5-5.7,0.5c-4,0-7.1-1-12.2-3.4C153,8.1,152.7,0.1,149.6,0C149.6,0,149.6,0,149.6,0
			L149.6,0z"/>
	</g>
</g>
</svg>
