<svg xmlns="http://www.w3.org/2000/svg" viewBox="0 0 307.2 211" enable-background="new 0 0 307.2 211"><path d="M53 58.4c2.4-1 3.8-.3 7.7-1.6s8.2-3.5 14.6-3.2c6.4.3 18.8 4.8 22.8 2.1 5.5-3.7 13.5-13.1 22.2-19 9.6-6.4 34-17.8 37.9-24s4-11.7 12.2-12c8.2-.3 16 .6 21.2.6S200.8 0 207 0c6.8 0 14.7 8.9 21.3 14.8 5.3 4.7 15.7 15 19.3 17.4 13.3 8.9 16.1 4.9 18.7 10.3 2.9 6.2-2.5 11.8 1.6 16.9 4.1 5.1 26.7 13.5 32.1 20.4 3.8 4.9 7.2 11.7 7.2 11.7s-13.1 2.3-19.4 5.6c-5.1 2.6-21.8 11.1-21.3 15.8.6 5.8 7.2 6.1 7.6 13.5.4 6.4-3.9 11.6-4.7 18.5-.8 6.9.3 14.7-1.9 23.4-2.7 10.7-15.7 15.6-19.7 16.2-10.8 1.6-24.6-3.1-35.9-1.6-9.8 1.3-25.6 8.9-41.1 17.2-12.3 6.6-26.9 11.5-38.9 10.9-9.2-.5-14.7-4.5-23.9-9-8.8-4.3-12.2-5.3-24.6-7-11.4-1.6-30.7 8.9-41.6 4.4C28.9 194 31.6 187 28.5 183c-4-5.1-10.7-7.4-17.3-10.2-7-3-9.8-1.6-11-4-1.2-2.3 4.2-2.7 3.6-7-.8-5.2-5.6-10.8-1-18 6.3-10 16.2-9.1 19.7-16.8 2.4-5.4-3.3-7.1-2.9-27.6.2-9.1-1.2-16.9 5.5-21.7 6.1-4.4 6.3-3.5 12.6-7.4 11.8-7.4 11-10 15.3-11.9z"/></svg>