<?xml version="1.0" encoding="utf-8"?>
<!-- Generator: Adobe Illustrator 18.1.0, SVG Export Plug-In . SVG Version: 6.00 Build 0)  -->
<!DOCTYPE svg PUBLIC "-//W3C//DTD SVG 1.1//EN" "http://www.w3.org/Graphics/SVG/1.1/DTD/svg11.dtd">
<svg version="1.1" xmlns="http://www.w3.org/2000/svg" xmlns:xlink="http://www.w3.org/1999/xlink" x="0px" y="0px"
	 viewBox="0 0 307.2 211" enable-background="new 0 0 307.2 211" xml:space="preserve">
<g id="large" display="none">
	<g display="inline">
		<g>
			<path d="M206.3,13c2.2,1,6.8,5.3,9.3,7.7c1.4,1.3,2.8,2.6,4.1,3.8c1.7,1.5,4.1,3.8,6.7,6.2
				c6.7,6.3,11,10.3,14,12.3c5.6,3.7,9.8,5.7,13.3,6.9c-0.6,4.1-1.2,11.1,4,17.6c3.4,4.3,8.8,7.2,18.1,12.1c2.3,1.2,5.7,3,8.6,4.7
				c-0.9,0.4-1.8,0.8-2.6,1.2l-0.6,0.3c-15.9,8.2-29,16-27.7,28.4c0.8,7.4,5.1,11.5,7.4,13.7c0,0,0,0,0,0c-0.3,1-0.8,2.5-1.3,3.7
				c-1.2,3.1-2.7,7-3.2,11.7c-0.4,3.2-0.4,6.2-0.4,9.2c-0.1,4.3-0.1,8.4-1.1,12.4c-0.8,3-6.6,6-9.1,6.5c-0.9,0.1-1.9,0.2-3,0.2
				c-3.3,0-7.1-0.5-11.2-1c-4.8-0.6-9.7-1.2-14.8-1.2c-2.4,0-4.6,0.1-6.7,0.4c-9.9,1.3-23.6,6.9-45.5,18.6
				c-11.2,6-22.4,9.4-30.7,9.4c-0.5,0-1,0-1.4,0c-4.2-0.2-7.1-1.6-13-4.7c-1.7-0.9-3.7-1.9-5.8-3c-10.1-4.9-14.9-6.3-28.5-8.2
				c-1.4-0.2-2.9-0.3-4.4-0.3c-6.2,0-12.6,1.6-18.8,3.2c-5,1.2-10.1,2.5-13.6,2.5c-1.1,0-1.6-0.1-1.6-0.1c0,0,0,0,0,0
				c-2.8-1.2-3.4-2-3.4-2c-0.1-0.2-0.4-1.2-0.6-1.8c-0.6-2.2-1.6-5.5-4.1-8.6c-5.6-7.1-13.1-10.3-19.8-13.1
				c-0.7-0.3-1.4-0.6-2.1-0.9c0-0.4-0.1-0.7-0.1-1.1c-0.4-2.8-1.3-5.2-2-7.1c-0.3-0.7-0.6-1.7-0.8-2.4c1.3-2,3-3,6.2-4.7
				c4.3-2.3,10.7-5.7,14.2-13.6c3-6.8,1.4-12.3,0.2-16c-0.9-3-2.2-7.2-2-16.6c0-1.7,0-3.3,0-4.8c0-2.2,0-5.5,0.3-6.8
				c2.5-1.8,3.3-2.2,4.9-3c1.6-0.8,3.5-1.7,6.7-3.7c8.2-5,11.7-8.5,13.7-10.6c0,0,0,0,0,0c1.5-0.2,3.8-0.5,6.7-1.5
				c0.9-0.3,1.7-0.6,2.5-0.9c2.6-1,4.5-1.7,7-1.7c0.2,0,0.3,0,0.5,0c1.2,0,4.1,0.6,6.4,1.1c4.3,0.9,8.8,1.8,13.1,1.8c4.4,0,8-1,11-3
				c3.3-2.2,6.6-5.3,10.3-8.8c3.7-3.5,8-7.5,11.9-10.2c2.8-1.9,7.7-4.6,12.8-7.4c15.2-8.4,24.8-13.9,28.9-20.5c1.3-2,2.2-3.9,3-5.4
				c0.1-0.2,0.2-0.3,0.2-0.5c0.4,0,0.8,0,1.3,0c3.6,0,7.1,0.2,10.2,0.4c2.8,0.1,5.4,0.3,7.7,0.3c3.4,0,6.2-0.4,8.8-0.8
				C202.5,13.3,204.3,13.1,206.3,13 M207,0C207,0,207,0,207,0c-6.2,0-10.2,1.4-15.3,1.4c-4.5,0-10.9-0.6-17.9-0.6
				c-1.1,0-2.2,0-3.2,0c-8.2,0.3-8.4,5.8-12.2,12c-3.9,6.2-28.3,17.6-37.9,24c-8.7,5.8-16.8,15.3-22.2,19c-0.9,0.6-2.2,0.8-3.8,0.8
				c-5.4,0-14-2.7-19-2.9c-0.4,0-0.7,0-1,0c-5.9,0-9.9,2-13.6,3.2c-3.9,1.3-5.3,0.6-7.7,1.6c-4.3,1.8-3.5,4.4-15.4,11.7
				c-6.4,3.9-6.5,3-12.6,7.4c-6.7,4.8-5.3,12.6-5.5,21.7c-0.4,20.5,5.3,22.2,2.9,27.6C19,134.6,9,133.7,2.7,143.7
				c-4.6,7.2,0.3,12.8,1,18c0.6,4.3-4.7,4.7-3.6,7c1.2,2.3,4,0.9,11,4c6.6,2.9,13.3,5.1,17.3,10.2c3.1,4,0.4,11,13.3,16.4
				c2,0.8,4.2,1.1,6.6,1.1c10,0,23.1-5.7,32.4-5.7c0.9,0,1.8,0.1,2.6,0.2c12.4,1.7,15.7,2.7,24.6,7c9.2,4.5,14.6,8.5,23.9,9
				c0.7,0,1.4,0.1,2.1,0.1c11.6,0,25.3-4.8,36.9-10.9c15.5-8.3,31.3-15.9,41.1-17.2c1.6-0.2,3.2-0.3,4.9-0.3c8.5,0,17.8,2.2,26,2.2
				c1.7,0,3.4-0.1,5-0.3c4-0.6,17-5.4,19.7-16.2c2.2-8.6,1.1-16.4,1.9-23.4c0.8-6.9,5-12.1,4.7-18.5c-0.4-7.4-7-7.7-7.6-13.5
				c-0.5-4.8,16.3-13.2,21.3-15.8c6.3-3.3,19.4-5.6,19.4-5.6s-3.4-6.8-7.2-11.7c-5.4-6.9-28-15.3-32.1-20.4s1.3-10.7-1.6-16.9
				c-2.5-5.5-5.3-1.4-18.7-10.3c-3.6-2.4-13.9-12.6-19.3-17.4C221.7,8.9,213.8,0,207,0L207,0z"/>
		</g>
	</g>
</g>
<g id="small">
	<g>
		<g>
			<path d="M207,6c3.1,0,9.3,5.8,13.3,9.6c1.3,1.2,2.7,2.5,4,3.7c1.8,1.6,4.2,3.9,6.8,6.3
				c6.3,5.9,10.6,9.9,13.1,11.5c7.5,5,12.3,6.4,15.1,7.3c0.5,0.1,1,0.3,1.3,0.4c0,0.1,0.1,0.1,0.1,0.2c0.5,1.2,0.3,2.5-0.1,4.8
				c-0.6,3.4-1.5,8.5,2.4,13.3c2.6,3.2,7.7,6,15.9,10.3c5.9,3.1,14.1,7.4,16.2,10.1c0.9,1.2,1.8,2.5,2.7,3.8
				c-4.3,1.1-9.3,2.6-12.9,4.4l-0.6,0.3c-18.6,9.6-24.6,15-23.9,21.5c0.5,4.8,3.4,7.6,5.3,9.4c1.7,1.7,2.2,2.2,2.3,3.8
				c0.1,2.3-0.8,4.7-1.9,7.5c-1.1,2.9-2.3,6.1-2.8,10c-0.3,2.8-0.3,5.7-0.4,8.5c-0.1,4.5-0.1,9.2-1.3,14
				c-1.9,7.4-12.1,11.3-14.7,11.7c-1.2,0.2-2.6,0.3-4.1,0.3c-3.7,0-7.8-0.5-12.1-1.1c-4.6-0.6-9.3-1.2-13.9-1.2
				c-2.1,0-3.9,0.1-5.7,0.4c-8.9,1.2-22.3,6.7-43.2,17.9c-12.2,6.5-24.6,10.2-34,10.2c-0.6,0-1.2,0-1.8,0c-5.9-0.3-9.9-2.4-15.9-5.5
				c-1.8-0.9-3.6-1.9-5.6-2.9c-9.5-4.6-13.5-5.8-26.4-7.6c-1.1-0.1-2.2-0.2-3.4-0.2c-5.3,0-11.3,1.5-17.1,2.9
				c-5.4,1.3-10.9,2.7-15.3,2.7c-1.8,0-3.2-0.2-4.3-0.7c-6.4-2.7-7.1-5.1-8.1-8.3c-0.5-1.8-1.2-4.1-2.8-6.2
				c-4.4-5.7-10.8-8.3-17-10.9c-0.9-0.4-1.7-0.7-2.6-1.1c-1.6-0.7-3-1.2-4.2-1.6c0.5-1.3,0.7-2.9,0.4-4.7c-0.3-2.1-1-3.9-1.6-5.7
				c-1.4-3.8-1.9-5.6-0.3-8.2c2.4-3.8,5.5-5.5,9-7.4c4-2.2,8.6-4.6,11.1-10.2c2-4.4,0.9-7.8-0.1-11c-1-3.3-2.5-8.3-2.3-18.8
				c0-1.6,0-3.1,0-4.6c-0.1-7.4,0.2-10.4,3-12.4c3.1-2.2,4.4-2.9,6.1-3.7c1.4-0.7,3.2-1.6,6.2-3.4c7.5-4.6,10.5-7.6,12.4-9.6
				c1.2-1.2,1.5-1.4,2.2-1.7c0.3-0.1,0.5-0.2,1.5-0.3c1.3-0.1,3.2-0.3,5.8-1.2c0.8-0.3,1.6-0.6,2.3-0.8c2.9-1.1,5.7-2.1,9.4-2.1
				c0.3,0,0.5,0,0.8,0c1.8,0.1,4.7,0.7,7.6,1.3c4,0.8,8.1,1.7,11.7,1.7c2.9,0,5.3-0.6,7.1-1.8c2.8-1.9,5.9-4.8,9.4-8.1
				c3.9-3.7,8.4-7.9,12.8-10.9c3.1-2.1,8-4.8,13.3-7.7c14.3-7.9,23.2-13.1,26.4-18.1c1.1-1.7,1.9-3.4,2.6-4.8c2-4.1,2.2-4.3,4.7-4.4
				c1,0,2,0,3.1,0c3.7,0,7.4,0.2,10.6,0.4c2.7,0.1,5.2,0.3,7.3,0.3c2.9,0,5.4-0.4,7.8-0.7C201.9,6.3,204.2,6,207,6 M207,0
				C207,0,207,0,207,0c-6.2,0-10.2,1.4-15.3,1.4c-4.5,0-10.9-0.6-17.9-0.6c-1.1,0-2.2,0-3.2,0c-8.2,0.3-8.4,5.8-12.2,12
				c-3.9,6.2-28.3,17.6-37.9,24c-8.7,5.8-16.8,15.3-22.2,19c-0.9,0.6-2.2,0.8-3.8,0.8c-5.4,0-14-2.7-19-2.9c-0.4,0-0.7,0-1,0
				c-5.9,0-9.9,2-13.6,3.2c-3.9,1.3-5.3,0.6-7.7,1.6c-4.3,1.8-3.5,4.4-15.4,11.7c-6.4,3.9-6.5,3-12.6,7.4
				c-6.7,4.8-5.3,12.6-5.5,21.7c-0.4,20.5,5.3,22.2,2.9,27.6C19,134.6,9,133.7,2.7,143.7c-4.6,7.2,0.3,12.8,1,18
				c0.6,4.3-4.7,4.7-3.6,7c1.2,2.3,4,0.9,11,4c6.6,2.9,13.3,5.1,17.3,10.2c3.1,4,0.4,11,13.3,16.4c2,0.8,4.2,1.1,6.6,1.1
				c10,0,23.1-5.7,32.4-5.7c0.9,0,1.8,0.1,2.6,0.2c12.4,1.7,15.7,2.7,24.6,7c9.2,4.5,14.6,8.5,23.9,9c0.7,0,1.4,0.1,2.1,0.1
				c11.6,0,25.3-4.8,36.9-10.9c15.5-8.3,31.3-15.9,41.1-17.2c1.6-0.2,3.2-0.3,4.9-0.3c8.5,0,17.8,2.2,26,2.2c1.7,0,3.4-0.1,5-0.3
				c4-0.6,17-5.4,19.7-16.2c2.2-8.6,1.1-16.4,1.9-23.4c0.8-6.9,5-12.1,4.7-18.5c-0.4-7.4-7-7.7-7.6-13.5
				c-0.5-4.8,16.3-13.2,21.3-15.8c6.3-3.3,19.4-5.6,19.4-5.6s-3.4-6.8-7.2-11.7c-5.4-6.9-28-15.3-32.1-20.4
				c-4.1-5.1,1.3-10.7-1.6-16.9c-2.5-5.5-5.3-1.4-18.7-10.3c-3.6-2.4-13.9-12.6-19.3-17.4C221.7,8.9,213.8,0,207,0L207,0z"/>
		</g>
	</g>
</g>
</svg>
