<?xml version="1.0" encoding="utf-8"?>
<!-- Generator: Adobe Illustrator 18.1.0, SVG Export Plug-In . SVG Version: 6.00 Build 0)  -->
<!DOCTYPE svg PUBLIC "-//W3C//DTD SVG 1.1//EN" "http://www.w3.org/Graphics/SVG/1.1/DTD/svg11.dtd">
<svg version="1.1" xmlns="http://www.w3.org/2000/svg" xmlns:xlink="http://www.w3.org/1999/xlink" x="0px" y="0px"
	 viewBox="0 0 169.7 187.3" enable-background="new 0 0 169.7 187.3" xml:space="preserve">
<g id="large" display="none">
	<g display="inline">
		<path d="M110,17c4.5,3.8,8.9,4.4,11.4,4.6c1.4,1,1.7,1.6,2.5,3c0.9,1.6,2.3,4.1,4.8,6.7c2.7,2.9,5.6,4.5,8.1,5.4
			c-0.3,1.1-0.6,2.3-0.7,3.6c-0.4,5.1,1.4,9.8,5.2,13.4c0.8,0.7,1.5,1.3,2.3,1.9c0.3,1.3,0.9,2.8,1.7,4.2c1.2,2.2,2.9,4,4.8,5.3
			c-0.9,0.5-1.8,1.1-2.6,1.7c-4.8,3.7-6.9,8.2-6.5,13.7c-0.8,1.2-1.8,2.9-2.4,5.3c-1.4,5-0.4,10.3,2.9,14.5c1,1.3,2.1,2.4,3.2,3.2
			c-0.2,0.9-0.5,1.9-0.8,2.9c-2.3,0.9-5.3,2.5-7.8,5.7c-4.8-1.2-9.5-2.1-12.8-2.1c-7.3,0-14.5,2.6-19.3,4.3
			c-0.9,0.3-1.8,0.6-2.4,0.9c-0.7,0.2-1.1,0.3-2.1,0.4c-4.1,0.4-9,1.3-14.6,6.9c-7.2,7.2-5.5,15.7-4.8,18.9c0,0.2,0.1,0.5,0.2,0.7
			c-0.7,0.7-1.9,1.7-2.9,2.6c-3.6,3-8.6,7.2-12.7,14.3c-0.9,1.5-1.7,3.1-2.3,4.8c-0.9-4.6-3.4-7.6-5.2-9.3c1.6-2.9,3.2-7.4,1.9-13.1
			c-2.2-9.4-8.8-13.8-12.3-16.1c-0.6-0.4-1.4-0.9-1.9-1.3c-0.5-1.7-1-5.5-1.3-7.8c-0.3-2.6-0.7-5.3-1.2-7.7
			c-1.6-8.1-7.2-13.1-11.3-16.8c-1.1-1-2.4-2.2-2.9-2.9c-0.4-0.5-0.6-1-1.3-3c-0.9-2.7-2.2-6.3-5.1-10.6c-1.6-2.4-4-4.7-6.5-6.8
			c1.5-5.8,2.7-13.1,1.8-19.3c-0.5-3.9-0.7-5.7-0.8-7.2c-0.1-1.9-0.3-3.4-0.7-5.4c2.5,0.7,5.1,1,7.8,1c5,0,9.2-1.1,11.7-1.8
			c0.4-0.1,0.9-0.2,1.1-0.3c4.9-1,7.9-3.8,9.8-6.7c0.4,0,0.9,0,1.3,0c2.5,0,5.1-0.5,7.6-1.5c2.8-1.1,4.9-2.8,7-4.4
			c0.5-0.4,1.1-0.9,1.7-1.3c1.6,0.6,3.7,1.5,5.1,2.2c3.9,1.8,7.6,3.4,11.5,4c1.9,0.3,3.6,0.4,5.2,0.4c5.8,0,9.4-2,12.3-3.6
			c1.1-0.6,2.3-1.2,3.9-2C105.1,21.1,107.9,19,110,17 M108.5,0c-0.1,0-0.1,0-0.2,0c-3.1,0.1-4.6,7.5-11.9,10.7
			c-6,2.6-7.1,4.4-11,4.4c-0.9,0-1.9-0.1-3.2-0.3C77.4,14.1,68.1,8,62.7,8c-0.2,0-0.3,0-0.5,0c-4.5,0.3-9.4,6-12.1,7.1
			c-1.1,0.4-2,0.6-2.8,0.6c-2.7,0-4.3-1.8-6.4-1.8c-0.6,0-1.2,0.1-1.9,0.5c-2.8,1.4-2.4,7.6-5.4,8.2c-2,0.4-5.8,1.8-10.2,1.8
			c-1.9,0-4-0.3-6-1C13,21.8,8.8,15.6,5,15.6c-0.6,0-1.1,0.1-1.6,0.4c-4.1,2.4-3.6,11.2-1.5,18.9c2.1,7.7,0.8,5.2,2.3,15.9
			C5.3,59.4,0,73.5,0,73.5s8.4,5.1,10.9,8.8c3.9,5.9,3.4,9.9,7,14.4c3.5,4.5,10.5,8.3,11.7,14.2c1.2,5.9,1.6,15.2,3.7,19.2
			c3.4,6.4,11.2,6.3,13,14.2c1.1,4.8-4.9,6.4-3.2,12.3c2.1,7.6,6.5,5.9,6.5,10.6c0,4.7-5,17.1-1.8,19.2c1.1,0.7,4,0.9,7.5,0.9
			c6.9,0,15.8-0.9,15.8-0.9s0.2-13.1,4.7-20.9c5.6-9.6,13.7-12.1,16.5-18.3c3.2-7-2.7-11.2,1.8-15.6c4.4-4.4,5.8-2.3,11.5-4.1
			c4.2-1.4,11.5-4.6,17.7-4.6s24.4,6,24.4,6s-3.2-6.2-1.5-8.8s6.5-1.8,8.3-5.3c1.8-3.5,5-14.4,2.9-17.4c-2.1-2.9-7.4-4.6-6.4-8.1
			c0.8-2.7,2.3-2.2,2.9-6.3c0.6-4.1-1.2-3.8,1.5-5.9c2.7-2.1,12.6-5.6,14.1-8.8c1.5-3.2-3.8-10.9-7.1-13.3c-0.9-0.7-1.7-0.9-2.3-0.9
			c-0.9,0-1.6,0.4-2.3,0.4c-0.5,0-0.9-0.2-1.3-1c-1.5-2.7,0.9-4.1-1.2-5.9c-2.1-1.8-6.6-2.7-6.3-6.2c0.3-3.5,4.9-8.3,2-12.1
			c-4.2-5.6-8.7-2.4-12.9-6.9c-3.8-4-2.9-7-9.9-11.9c-5-3.5-6.4-0.1-10.3-3.8C114.9,3.7,112.7,0,108.5,0L108.5,0z"/>
	</g>
</g>
<g id="small">
	<g>
		<path d="M109.6,6.6c0.6,0.5,1.3,1.3,2,2.1c0.7,0.7,1.3,1.5,2.1,2.2c3.4,3.2,6.3,3.6,8.8,3.7c1,0,1.2,0,2.2,0.7
			c3.3,2.3,4.1,3.8,5.2,5.8c0.8,1.5,1.9,3.4,3.8,5.4c3.2,3.5,6.8,4.2,9.1,4.7c1.7,0.4,2.3,0.5,3,1.3c-0.2,0.7-0.7,1.8-1,2.5
			c-0.8,1.8-1.7,3.7-1.9,6c-0.5,6.2,4.6,9.1,7,10.4c0,1.4,0.2,3.1,1.3,5.1c2.1,3.7,5.3,4.1,6.6,4.1c0.6,0,1.2-0.1,1.7-0.2
			c1.4,1.3,3.2,3.9,3.9,5.5c-1.5,1-4.2,2.3-5.8,3.1c-2.5,1.2-4.5,2.2-5.9,3.3c-3.1,2.4-4.2,4.8-3.7,8.2c0.1,0.5,0.1,0.8,0,1.6
			c-0.1,0.5-0.2,0.8-0.2,0.9c0,0.1-0.1,0.2-0.2,0.3c-0.6,0.8-1.7,2.1-2.3,4.4c-1.8,6.2,3.1,9.9,5.5,11.7c0.4,0.3,1,0.8,1.4,1.1
			c0.1,2.4-1.5,8.5-2.8,11.3c-0.3,0.1-0.9,0.3-1.3,0.5c-1.9,0.6-4.8,1.6-6.8,4.5c-0.7,1.1-1.2,2.3-1.4,3.5
			c-5.8-1.7-12.7-3.3-16.6-3.3c-6.1,0-12.4,2.3-17,3.9c-1,0.4-1.9,0.7-2.6,0.9c-1.4,0.5-2.4,0.6-3.6,0.7c-3.3,0.3-6.3,0.9-10.3,4.9
			c-4.6,4.6-3.5,9.6-2.9,12.6c0.4,2.2,0.6,3.3-0.1,4.8c-0.8,1.7-2.7,3.3-5,5.3c-3.4,2.9-7.7,6.4-11.2,12.4
			c-3.3,5.7-4.7,13.3-5.2,18.4c-3,0.2-6.8,0.5-10.1,0.5c-0.9,0-1.7,0-2.4,0c0.3-1.8,0.8-4.1,1.2-5.5c0.8-3.3,1.5-6.1,1.5-8.5
			c0-5.1-2.9-7.4-4.4-8.7c-1.1-0.9-1.7-1.4-2.3-3.5c-0.1-0.5-0.1-0.5,0.8-2c1.3-2,3.5-5.3,2.4-10.1c-1.6-6.7-6.1-9.7-9.3-11.9
			c-2.2-1.4-3.4-2.3-4.2-3.7c-0.9-1.7-1.5-6.7-2-10.3c-0.3-2.5-0.6-5-1.1-7.2c-1.2-5.8-5.6-9.8-9.1-13c-1.5-1.3-2.9-2.6-3.7-3.7
			c-1.2-1.5-1.7-3-2.4-5c-0.9-2.4-1.9-5.5-4.3-9c-1.9-2.8-5.7-5.9-8.7-8c1.7-5.4,3.9-14.3,2.9-21c-0.6-4.2-0.7-6.2-0.8-7.7
			c-0.2-2.6-0.3-4.1-1.6-8.9C6.4,28.5,6.2,25,6.4,22.9c0.5,0.4,0.9,0.8,1.3,1.1c2.2,1.8,4.7,3.9,7.7,5c2.5,0.9,5.3,1.4,8.1,1.4
			c4,0,7.5-0.9,9.8-1.6c0.6-0.2,1.2-0.3,1.5-0.4c4.8-1,6.5-5.4,7.3-7.9c1.3,0.5,3,1.1,5.2,1.1c1.6,0,3.3-0.3,5-1
			c1.8-0.7,3.5-2,5.3-3.4c1.3-1,4-3.2,5.1-3.3c1.8,0,6.1,2,9,3.2c3.5,1.6,6.8,3.1,9.7,3.5c1.6,0.2,2.9,0.4,4.1,0.4
			c4,0,6.4-1.3,9-2.7c1.2-0.6,2.5-1.4,4.4-2.2c5.6-2.5,8.6-6.6,10.6-9.3C109.5,6.8,109.5,6.7,109.6,6.6 M108.5,0c-0.1,0-0.1,0-0.2,0
			c-3.1,0.1-4.6,7.5-11.9,10.7c-6,2.6-7.1,4.4-11,4.4c-0.9,0-1.9-0.1-3.2-0.3C77.4,14.1,68.1,8,62.7,8c-0.2,0-0.3,0-0.5,0
			c-4.5,0.3-9.4,6-12.1,7.1c-1.1,0.4-2,0.6-2.8,0.6c-2.7,0-4.3-1.8-6.4-1.8c-0.6,0-1.2,0.1-1.9,0.5c-2.8,1.4-2.4,7.6-5.4,8.2
			c-2,0.4-5.8,1.8-10.2,1.8c-1.9,0-4-0.3-6-1C13,21.8,8.8,15.6,5,15.6c-0.6,0-1.1,0.1-1.6,0.4c-4.1,2.4-3.6,11.2-1.5,18.9
			c2.1,7.7,0.8,5.2,2.3,15.9C5.3,59.4,0,73.5,0,73.5s8.4,5.1,10.9,8.8c4,5.9,3.4,9.9,7,14.4c3.5,4.5,10.5,8.3,11.7,14.2
			c1.2,5.9,1.6,15.2,3.7,19.2c3.4,6.4,11.2,6.3,13,14.2c1.1,4.8-4.9,6.4-3.2,12.3c2.1,7.6,6.5,5.9,6.5,10.6s-5,17.1-1.8,19.2
			c1.1,0.7,4,0.9,7.5,0.9c6.9,0,15.8-0.9,15.8-0.9s0.2-13.1,4.7-20.9c5.6-9.6,13.7-12.1,16.5-18.3c3.2-7-2.7-11.2,1.8-15.6
			s5.8-2.3,11.5-4.1c4.2-1.4,11.5-4.6,17.7-4.6s24.4,6,24.4,6s-3.2-6.2-1.5-8.8c1.8-2.7,6.5-1.8,8.3-5.3c1.8-3.5,5-14.4,2.9-17.4
			c-2.1-2.9-7.4-4.6-6.4-8.1c0.8-2.7,2.3-2.2,2.9-6.3c0.6-4.1-1.2-3.8,1.5-5.9c2.7-2.1,12.6-5.6,14.1-8.8c1.5-3.2-3.8-10.9-7.1-13.3
			c-0.9-0.7-1.7-0.9-2.3-0.9c-0.9,0-1.6,0.4-2.3,0.4c-0.5,0-0.9-0.2-1.3-1c-1.5-2.7,0.9-4.1-1.2-5.9c-2.1-1.8-6.6-2.7-6.3-6.2
			c0.3-3.5,4.9-8.3,2-12.1c-4.2-5.6-8.7-2.4-12.9-6.9c-3.8-4-2.9-7-9.9-11.9c-5-3.5-6.4-0.1-10.3-3.8C114.9,3.7,112.7,0,108.5,0
			L108.5,0z"/>
	</g>
</g>
</svg>
