<?xml version="1.0" encoding="utf-8"?>
<!-- Generator: Adobe Illustrator 18.1.0, SVG Export Plug-In . SVG Version: 6.00 Build 0)  -->
<!DOCTYPE svg PUBLIC "-//W3C//DTD SVG 1.1//EN" "http://www.w3.org/Graphics/SVG/1.1/DTD/svg11.dtd">
<svg version="1.1" xmlns="http://www.w3.org/2000/svg" xmlns:xlink="http://www.w3.org/1999/xlink" x="0px" y="0px"
	 viewBox="0 0 234.8 217" enable-background="new 0 0 234.8 217" xml:space="preserve">
<g id="large" display="none">
	<g display="inline">
		<path d="M153-0.5v13c0.9,0,2.4,1.4,4.7,3.4c0.8,0.7,1.7,1.5,2.6,2.3c0.5,0.4,0.9,0.8,1.4,1.2
			c1.1,0.9,2.5,2.1,2.9,2.6c0.1,0.1,0.2,0.5,0.4,1.1c0.8,2.7-0.1,8.8-0.8,13.6c-0.9,6.7-1.9,13.6-0.8,20.4
			c2.4,15.4,10,20.4,17.7,24.2c1.3,0.6,2.5,1.2,3.6,1.9c2.2,1.3,2.5,1.8,3,2.5c1.5,2,3.3,4.3,7,6.5c3,1.8,6,2.6,8.7,3.3
			c1,0.3,2.5,0.6,3.3,0.9c1,4,0.7,5,0.1,7.7c-0.4,1.5-0.8,3.3-1.2,5.6c-0.6,4-0.2,8.5,0.2,13.4c0.3,4.1,0.8,9.8,0.2,12.2
			c-0.3,1.4-0.7,2.5-1.2,3.7c-2,5.4-3.6,11.4,1.1,20.8c1.7,3.4,3.9,5.9,6,7.8c-2.8,1.4-5.9,4-7.7,8.5c-12.2,0.5-15.4,10-16.1,13
			c-0.6,2.6-0.6,4.9-0.3,7.1c-0.3,0-0.6-0.1-0.9-0.1c-0.8-0.1-1.7-0.1-2.5-0.1c0,0,0,0-0.1,0c0-0.2-0.1-0.4-0.1-0.6
			c-0.9-3.9-2.5-10.6-9.4-15.2c-2.4-1.6-4.7-2.7-7-3.2c-1.8-2.5-4.6-5.1-9.7-7.1c-6.6-2.6-11.5-2.8-15.1-3c-0.6,0-1,0-1.4-0.1
			c-1.2-1.9-3-4.5-6.2-6.5c0.1-1.9,0.1-4-0.2-6.4c-1-7.1-8-16.4-13.6-23c-13.6-15.8-21-16.8-23.8-17.2c-9.7-1.3-18.2-2-25.2-2
			c-5.8,0-10.4,0.4-14.1,1.4c-0.5-3-1.8-6.2-4.9-8.7c-3.8-3.2-7.6-3.8-10.1-3.8c-4.4,0-7.5,1.9-9.2,3.2c-0.6,0-1.2,0-1.6,0
			c-0.7,0-1.2,0-1.7,0c-2.1,0-3.8,0.3-5.3,0.7c-1.6-2.1-3.8-4.3-6.8-5.8c-0.8-1.5-1.8-2.9-3-4.3c0.5-1.7,0.9-3.7,0.9-5.9
			c0-0.8,0-1.5-0.1-2.2c1.6-0.7,3.3-1.7,4.9-3c3.3-2.7,5.2-5.7,6.4-8c0,0,0,0,0,0c0.7,0,1.4,0.1,2.6,0.2c1.5,0.2,3.5,0.5,5.9,0.5
			c0.4,0,0.8,0,1.2,0c3.8-0.1,6.7-0.9,8.9-1.4c1.6-0.4,2.4-0.6,3.3-0.6l0.2,0c2.8,0.1,3.5,0.3,4.1,0.5c2,0.7,4.4,1.5,8,1.5
			c1.1,0,2.3-0.1,3.6-0.2c8.6-1,12.6-4.7,15.8-8.5c0.1-0.1,0.3-0.3,0.4-0.5c0.5-0.3,0.8-0.4,0.8-0.4c0,0,0,0,0,0
			c0.1,0,0.4-0.1,0.6-0.1c3-0.7,6.4-1.8,11.5-5.9c3.5-2.9,5.6-5.7,7-7.6c0.1-0.1,0.1-0.2,0.2-0.2c3.5-1,6.4-2.8,13.9-8.4
			c11.1-8.2,16.3-13.6,21.3-18.8c0.7-0.7,1.4-1.5,2.1-2.2c8.4-8.6,11.9-10,12.8-10.2c0.6-0.1,1-0.2,1.2-0.2L153-0.5 M153-0.5
			c-1.3,0-2.7,0.2-4.2,0.5c-6.1,1.4-12.8,7.3-19.1,13.8c-5.6,5.8-10.1,11-21.8,19.7c-10.8,8-8.8,5.6-12.3,7.1
			c-3.9,1.7-4.4,5.5-9.2,9.4c-6,4.8-6,2-11.9,5.8c-4.3,2.8-3.4,6.1-10.4,6.9c-0.8,0.1-1.5,0.1-2.1,0.1c-3.9,0-3.4-1.9-11.9-2
			c-0.1,0-0.3,0-0.4,0c-5,0-7.6,1.8-12.6,2c-0.3,0-0.5,0-0.7,0c-3.2,0-5.3-0.7-8.5-0.7c-1.4,0-3.1,0.1-5.2,0.5
			c-5.8,1.1-5,6.9-9.4,10.4C9,76.5,3.1,74.6,0.6,78c-2.5,3.3,3.1,3.7,3.1,10.4c0,4.7-4.4,5.2-3.5,8.7c1.1,4.4,2.6,2.7,5.2,5
			c4,3.6,1,3.9,3.2,6c1.5,1.5,2.4,1.1,4.4,1.9c3.2,1.3,4.6,7.3,9.2,10.8c0.5,0.4,1,0.6,1.4,0.6c1.1,0,1.9-1.6,3.8-3.2
			c1.7-1.5,1.8-1.7,3.7-1.7c1,0,2.4,0.1,4.8,0.1c4.8,0,5.8-3.2,7.7-3.2c0.5,0,1.1,0.2,1.8,0.8c1.8,1.5-2.5,12.9,1.8,15.8
			c1.6,1,2.9,1.5,4,1.5c2.7,0,4.4-2.5,7.4-4.6c2-1.4,6.7-2.3,14.1-2.3c6.1,0,13.9,0.6,23.4,1.9c7.6,1,25.5,23.4,26.3,29.1
			c0.8,5.9-1.7,8.7-1.2,12.8c0.2,1.9,1,2.3,2.2,2.3c0.7,0,1.6-0.1,2.5-0.1c0.7,0,1.4,0.1,2.1,0.3c3.5,1.2,2.9,6.2,7.8,7.8
			c5.8,1.9,9.7-0.1,17.8,3.1c6.1,2.4,3.2,4.1,7.4,7.2c0.4,0.3,0.8,0.4,1.2,0.4c0.5,0,1-0.2,1.7-0.2c0.9,0,2.1,0.3,4.1,1.6
			c4.5,3,3.1,8.2,6.4,14.4c1.7,3.2,3.5,3.9,5.5,3.9c1.5,0,3.1-0.4,4.9-0.4c0.4,0,0.7,0,1.1,0.1c4.7,0.5,3.1,3.1,10.1,8.1
			c0.5,0.3,1,0.5,1.7,0.5c3.6,0,9.3-4.7,10.4-10.2c0.9-4.6-8.3-9.8-7-15.2c0.7-2.8,2.4-3,4.5-3c0.6,0,1.2,0,1.9,0
			c1.8,0,3.7-0.2,5.7-1.3c5.3-3.2,1-7.6,5.9-8.9c0.7-0.2,1.3-0.3,1.9-0.3c5.1,0,8.5,5.6,11.8,5.6c0.4,0,0.9-0.1,1.3-0.3
			c2.7-1.3-1.1-1.7-1.4-7.6c-0.3-5.6,0.4-7.3-1.8-12.1c-2.1-4.5-9.3-2.8-13-10.2c-3.7-7.3-0.6-8.2,1.1-15.8c1.7-7.7-1-20.7-0.2-26.7
			s3.3-8.6,0.7-18.7c-2.7-10.2-13.3-8.9-17.7-11.6s-2.5-4.3-10-9s-13.3-4.2-15.3-17.1c-1.6-10.5,4-25.5,1.3-35.4
			c-1.5-5.6-3.5-6.8-8.8-11.3C164.2,4.5,160.2-0.5,153-0.5L153-0.5z"/>
	</g>
</g>
<g id="small">
	<g>
		<path d="M153-0.5v6c3.5,0,5.7,1.9,9.4,5.2c0.8,0.7,1.6,1.4,2.4,2.1c0.5,0.4,0.9,0.8,1.4,1.1c4,3.4,4.7,3.9,5.6,7.2
			c1.1,4.1,0.3,10.4-0.6,16.5c-0.9,6.2-1.7,12.6-0.8,18.3c2,13.1,8.3,16.2,13.9,19c1.4,0.7,2.8,1.4,4.2,2.2c3.3,2,4.1,3.1,4.9,4.3
			c1,1.3,2.2,3,5.1,4.8c2,1.3,4.4,1.9,6.7,2.4c5.2,1.3,7.4,2.2,8.3,5.6c1.6,6,1,8.2,0.2,11.5c-0.3,1.4-0.7,3-1,4.9
			c-0.4,3.2-0.1,7.2,0.2,11.9c0.4,5.1,0.8,10.8,0,14.3c-0.4,1.9-0.9,3.3-1.4,4.6c-1.7,4.5-2.6,8.3,0.8,15.2
			c3.1,6.1,7.9,8.1,11.1,9.4c0.7,0.3,1.6,0.6,2,0.9c1,2.1,1,3,1,5.6c0,0.4,0,0.8,0,1.2c-1.6-0.7-3.5-1.2-5.6-1.2
			c-1.2,0-2.3,0.2-3.5,0.5c-6.3,1.7-7,6.9-7.2,8.8c0,0.2-0.1,0.5-0.1,0.7c0,0-0.1,0.1-0.1,0.1c-0.6,0.3-1.3,0.5-2.6,0.5
			c-0.3,0-0.6,0-0.9,0c-0.3,0-0.7,0-1,0c-7,0-9.5,4.1-10.4,7.6c-1.4,5.8,2.2,10.3,4.8,13.6c0.6,0.8,1.5,1.9,1.9,2.6
			c-0.7,2-2.5,3.7-3.8,4.4c-1.6-1.3-2.4-2.3-3.1-3.3c-1.5-1.9-3.5-4.5-8.6-5c-0.6-0.1-1.2-0.1-1.7-0.1c-1.3,0-2.5,0.1-3.4,0.3
			c-0.5,0.1-0.9,0.1-1.2,0.1c-0.1-0.2-0.3-0.4-0.5-0.7c-1-1.8-1.4-3.7-1.9-5.6c-0.8-3.5-1.9-7.9-6.5-11c-2.7-1.8-5-2.6-7.4-2.6
			c0,0-0.1,0-0.1,0c0-0.1-0.1-0.1-0.1-0.2c-1.3-2.8-3.1-5-7.8-6.8c-5.5-2.2-9.6-2.4-12.8-2.5c-2.1-0.1-3.6-0.1-5.3-0.7
			c-0.3-0.1-0.4-0.1-1.2-1.6c-1-1.8-2.6-4.8-6.4-6.1c-0.7-0.3-1.5-0.5-2.3-0.6c0.6-2.3,1.4-5.5,0.7-10c-0.8-6-9.4-16.4-12-19.4
			c-7.9-9.1-14.4-14.1-19.4-14.8c-9.4-1.3-17.6-1.9-24.3-1.9c-11.5,0-15.5,1.9-17.6,3.4c-1.2,0.8-2.2,1.7-3,2.4
			c-0.3,0.3-0.6,0.6-1,0.8c-0.1-1.4,0.2-3.7,0.3-5c0.4-3.9,0.9-7.9-2.3-10.5c-1.8-1.5-3.7-2.2-5.6-2.2c-2.8,0-4.7,1.5-5.8,2.4
			c-0.9,0.7-1,0.8-1.9,0.8c-1.4,0-2.5,0-3.3,0c-0.6,0-1.1,0-1.5,0c-3.7,0-5.3,1.2-7.2,2.8l-0.3,0.3c-0.5-0.7-1-1.4-1.4-2.2
			c-1.6-2.6-3.5-5.5-6.8-6.9c-0.7-0.3-1.4-0.5-1.9-0.7c-0.5-2.2-1.7-4.2-4.1-6.3c-0.8-0.7-1.6-1.3-2.3-1.6c1.2-1.6,2.7-4,2.6-7.7
			c0-3-0.8-5.3-1.7-7c2.6-0.5,6-1.2,9.1-3.7c2.8-2.3,4.2-5,5.2-7c0.4-0.7,0.9-1.9,1.2-2.1c0,0,0.1,0,0.3-0.1
			c1.6-0.3,2.9-0.4,4.1-0.4c1.2,0,2.3,0.1,3.5,0.3c1.4,0.2,3,0.4,5,0.4c0.3,0,0.6,0,0.9,0c3.1-0.1,5.4-0.7,7.4-1.2
			c1.8-0.4,3.2-0.8,5-0.8c0.1,0,0.2,0,0.3,0c4,0.1,5.2,0.5,6.4,1c1.2,0.4,2.9,1.1,5.6,1.1c0.8,0,1.8-0.1,2.8-0.2
			c6.4-0.7,9-3.4,11.1-6c0.7-0.8,1.1-1.3,1.8-1.8c1.8-1.2,2.5-1.3,3.6-1.6c2.4-0.6,4.8-1.4,8.7-4.6c2.8-2.3,4.5-4.6,5.7-6.3
			c1.2-1.6,1.6-2.1,2.1-2.3c0.4-0.2,0.6-0.2,0.9-0.3c2.6-0.6,4.3-1.4,12.5-7.5c10.6-7.9,15.6-13,20.4-18.1c0.7-0.7,1.4-1.5,2.2-2.2
			c2.6-2.7,10.5-10.7,16.2-12.1c1-0.2,1.9-0.4,2.8-0.4L153-0.5 M153-0.5c-1.3,0-2.7,0.2-4.2,0.5c-6.1,1.4-12.8,7.3-19.1,13.8
			c-5.6,5.8-10.1,11-21.8,19.7c-10.8,8-8.8,5.6-12.3,7.1c-3.9,1.7-4.4,5.5-9.2,9.4c-6,4.8-6,2-11.9,5.8c-4.3,2.8-3.4,6.1-10.4,6.9
			c-0.8,0.1-1.5,0.1-2.1,0.1c-3.9,0-3.4-1.9-11.9-2c-0.1,0-0.3,0-0.4,0c-5,0-7.6,1.8-12.6,2c-0.3,0-0.5,0-0.7,0
			c-3.2,0-5.3-0.7-8.5-0.7c-1.4,0-3.1,0.1-5.2,0.5c-5.8,1.1-5,6.9-9.4,10.4C9,76.5,3.1,74.6,0.6,78c-2.5,3.3,3.1,3.7,3.1,10.4
			c0,4.7-4.4,5.2-3.5,8.7c1.1,4.4,2.6,2.7,5.2,5c4,3.6,1,3.9,3.2,6c1.5,1.5,2.4,1.1,4.4,1.9c3.2,1.3,4.6,7.3,9.2,10.8
			c0.5,0.4,1,0.6,1.4,0.6c1.1,0,1.9-1.6,3.8-3.2c1.7-1.5,1.8-1.7,3.7-1.7c1,0,2.4,0.1,4.8,0.1c4.8,0,5.8-3.2,7.7-3.2
			c0.5,0,1.1,0.2,1.8,0.8c1.8,1.5-2.5,12.9,1.8,15.8c1.6,1,2.9,1.5,4,1.5c2.7,0,4.4-2.5,7.4-4.6c2-1.4,6.7-2.3,14.1-2.3
			c6.1,0,13.9,0.6,23.4,1.9c7.6,1,25.5,23.4,26.3,29.1c0.8,5.9-1.7,8.7-1.2,12.8c0.2,1.9,1,2.3,2.2,2.3c0.7,0,1.6-0.1,2.5-0.1
			c0.7,0,1.4,0.1,2.1,0.3c3.5,1.2,2.9,6.2,7.8,7.8c5.8,1.9,9.7-0.1,17.8,3.1c6.1,2.4,3.2,4.1,7.4,7.2c0.4,0.3,0.8,0.4,1.2,0.4
			c0.5,0,1-0.2,1.7-0.2c0.9,0,2.1,0.3,4.1,1.6c4.5,3,3.1,8.2,6.4,14.4c1.7,3.2,3.5,3.9,5.5,3.9c1.5,0,3.1-0.4,4.9-0.4
			c0.4,0,0.7,0,1.1,0.1c4.7,0.5,3.1,3.1,10.1,8.1c0.5,0.3,1,0.5,1.7,0.5c3.6,0,9.3-4.7,10.4-10.2c0.9-4.6-8.3-9.8-7-15.2
			c0.7-2.8,2.4-3,4.5-3c0.6,0,1.2,0,1.9,0c1.8,0,3.7-0.2,5.7-1.3c5.3-3.2,1-7.6,5.9-8.9c0.7-0.2,1.3-0.3,1.9-0.3
			c5.1,0,8.5,5.6,11.8,5.6c0.4,0,0.9-0.1,1.3-0.3c2.7-1.3-1.1-1.7-1.4-7.6c-0.3-5.6,0.4-7.3-1.8-12.1c-2.1-4.5-9.3-2.8-13-10.2
			s-0.6-8.2,1.1-15.8c1.7-7.7-1-20.7-0.2-26.7c0.8-6,3.3-8.6,0.7-18.7c-2.7-10.2-13.3-8.9-17.7-11.6c-4.3-2.7-2.5-4.3-10-9
			c-7.5-4.7-13.3-4.2-15.3-17.1c-1.6-10.5,4-25.5,1.3-35.4c-1.5-5.6-3.5-6.8-8.8-11.3C164.2,4.5,160.2-0.5,153-0.5L153-0.5z"/>
	</g>
</g>
</svg>
