<?xml version="1.0" encoding="utf-8"?>
<!-- Generator: Adobe Illustrator 18.1.0, SVG Export Plug-In . SVG Version: 6.00 Build 0)  -->
<!DOCTYPE svg PUBLIC "-//W3C//DTD SVG 1.1//EN" "http://www.w3.org/Graphics/SVG/1.1/DTD/svg11.dtd">
<svg version="1.1" id="contyr" xmlns="http://www.w3.org/2000/svg" xmlns:xlink="http://www.w3.org/1999/xlink" x="0px" y="0px"
	 viewBox="0 0 362.6 288.3" enable-background="new 0 0 362.6 288.3" xml:space="preserve">
<g>
	<path d="M285.9,143.1c0.2-13.8,0.5-15.9-1.1-30.1c-1.8-15.7-18.2-19.8-23.6-32c-6.8-15.4-8.3-28.1-14.4-35.5
		C236,32.2,217.2,33.1,209.1,35s-4.2,17.2-13.1,21.4c-11.8,5.5-17.5-9-21.4-11c-4.7-2.5-12.2,10.4-19.4,3.3
		c-6.4-6.3,3.8-10.5,1.9-13.9c-1.1-1.9-5.6,0.7-7.1-2.4c-2.1-4.3,2.3-4.3,1.1-10.1S123,0,123,0s-1.2,2.6-7.4,3
		c-5.2,0.3-12.6-2.9-19.1-1.8s-4.4,8.6-31.4,30.3c-8.5,6.8-13,8.4-24,16.1c-8.8,6.2-24,21.1-31.4,28.5c-4.4,4.4-6.6,3.7-8.5,5.4
		c-2.4,2.1-0.7,4.6-1.2,10.6c-0.3,3.7,9.1,7.5,26.9,18.6c15,9.4,7.5,11.7,13.1,15C44,128,54,123,70.5,134.2
		c17.9,12.1,33.8,34.4,47.6,41.4c8.6,4.3,18.2-4,29.8-3.9c15.9,0.1,14,14.2,30.4,16c15.2,1.6,17.7-5.7,28.2-17.5
		c11.3-12.6,12.9-9.6,15.8-6.5c4.4,4.8,6.8,7.6,5.3,19.5s2.7,9.3,4.2,18.7c1.4,8.9-1.7,9.6,0.2,15.5c4.6,14.8-9.1,9.9-14.4,11.1
		c-3.7,0.9-10.9,10.7-7.2,15c6.1,7.2,9.2,8.5,10.7,15.8s3.1,2.2,5.4,9.5c2.3,7.3-1.3,6.6-5.2,9.3c-3.8,2.7,3.9,8.1,6,9.9
		c1.8,1.5,5.3-3.2,6.3-9c1.2-7.2-0.9-14.7,5.6-15.5c7-0.8,6.6,1.9,17,2.5c9.7,0.5,19.9-14.4,24.3-27.5c3.6-11,3.7-20.2,4.5-32.1
		s3.7-26.6,3.2-37C287.7,159.5,285.7,154.6,285.9,143.1z"/>
	<path d="M358.4,123.6c-3.3-5.1-3.9-5.5-5.6-5.7c-3.5-0.3-2.5,3.6-4.7,3.9c-5.1,0.8-4.5-3-10.2-5.8c-7.2-3.5-8.4-0.4-13.3-4.1
		c-4.9-3.7-1.4-7-5.1-14.9c-3.1-6.6-8.1-10.8-3.7-14.9c5.8-5.3,12.2-1.2,17.4,1.3s5.8-1.2,2.8-5.1c-3.1-3.8-16-5.2-30.5-16.5
		c-8.4-6.5-12.8-9.7-20-15c-5.8-4.4-7.4-4.1-12.8-9.6c-4.2-4.3-1.5-7.5-5.8-11.2c-2.9-2.4-7.3-3-13.9-5.3c-6.3-2.2-4.5-1.1-5.1-7.9
		c-0.6-6.8-7.2-9-13.9-2.4c-2.2,2.2-0.6,4.2,2.1,5.3c2.7,1.1,6.6,1.3,9.3,4.2c3.9,4.2,1.2,5-0.9,9.8c-1.4,3.3,0.4,4.2,7,10
		c6.6,5.8,2.7,5.5,10.6,15.6c4.8,6.2,7.1,4.9,13.8,10.6c4.3,3.7,2.7,2.3,8.3,9.8c5,6.6,7.4,7.5,10.7,14.8c7,15.7,9,14.9,15.5,19.7
		c4.5,3.3,4.2,6.6,6.8,11.3c4.6,8.3,4.4,3.8,9.7,9.1c4.3,4.3,2.4,6.8,5,10.6c3.8,5.5,3.9,5.9,11.9,7c1.6,0.2-1.2-3.7-4-12.5
		c-2.1-6.6,2.3-4.3,7.8-6.6c7.1-3,8,3.4,12.6,4.6C364.9,135.1,361.7,128.7,358.4,123.6z"/>
</g>
</svg>
