<?xml version="1.0" encoding="utf-8"?>
<!-- Generator: Adobe Illustrator 18.1.0, SVG Export Plug-In . SVG Version: 6.00 Build 0)  -->
<!DOCTYPE svg PUBLIC "-//W3C//DTD SVG 1.1//EN" "http://www.w3.org/Graphics/SVG/1.1/DTD/svg11.dtd">
<svg version="1.1" id="contyr" xmlns="http://www.w3.org/2000/svg" xmlns:xlink="http://www.w3.org/1999/xlink" x="0px" y="0px"
	 viewBox="0 0 307.2 211" enable-background="new 0 0 307.2 211" xml:space="preserve">
<g>
	<path d="M53,58.4c2.4-1,3.8-0.3,7.7-1.6s8.2-3.5,14.6-3.2c6.4,0.3,18.8,4.8,22.8,2.1c5.5-3.7,13.5-13.1,22.2-19
		c9.6-6.4,34-17.8,37.9-24s4-11.7,12.2-12c8.2-0.3,16,0.6,21.2,0.6S200.8,0,207,0c6.8,0,14.7,8.9,21.3,14.8
		c5.3,4.7,15.7,15,19.3,17.4c13.3,8.9,16.1,4.9,18.7,10.3c2.9,6.2-2.5,11.8,1.6,16.9c4.1,5.1,26.7,13.5,32.1,20.4
		c3.8,4.9,7.2,11.7,7.2,11.7s-13.1,2.3-19.4,5.6c-5.1,2.6-21.8,11.1-21.3,15.8c0.6,5.8,7.2,6.1,7.6,13.5c0.4,6.4-3.9,11.6-4.7,18.5
		c-0.8,6.9,0.3,14.7-1.9,23.4c-2.7,10.7-15.7,15.6-19.7,16.2c-10.8,1.6-24.6-3.1-35.9-1.6c-9.8,1.3-25.6,8.9-41.1,17.2
		c-12.3,6.6-26.9,11.5-38.9,10.9c-9.2-0.5-14.7-4.5-23.9-9c-8.8-4.3-12.2-5.3-24.6-7c-11.4-1.6-30.7,8.9-41.6,4.4
		c-12.9-5.4-10.2-12.4-13.3-16.4c-4-5.1-10.7-7.4-17.3-10.2c-7-3-9.8-1.6-11-4c-1.2-2.3,4.2-2.7,3.6-7c-0.8-5.2-5.6-10.8-1-18
		c6.3-10,16.2-9.1,19.7-16.8c2.4-5.4-3.3-7.1-2.9-27.6c0.2-9.1-1.2-16.9,5.5-21.7c6.1-4.4,6.3-3.5,12.6-7.4
		C49.5,62.9,48.7,60.3,53,58.4z"/>
</g>
</svg>
