<?xml version="1.0" encoding="utf-8"?>
<!-- Generator: Adobe Illustrator 18.1.0, SVG Export Plug-In . SVG Version: 6.00 Build 0)  -->
<!DOCTYPE svg PUBLIC "-//W3C//DTD SVG 1.1//EN" "http://www.w3.org/Graphics/SVG/1.1/DTD/svg11.dtd">
<svg version="1.1" id="Слой_1" xmlns="http://www.w3.org/2000/svg" xmlns:xlink="http://www.w3.org/1999/xlink" x="0px" y="0px"
	 viewBox="0 0 40 40" enable-background="new 0 0 40 40" xml:space="preserve">
<path opacity="0.7" fill="#073717" d="M38,40H2c-1.1,0-2-0.9-2-2V2c0-1.1,0.9-2,2-2h36c1.1,0,2,0.9,2,2v36C40,39.1,39.1,40,38,40z"
	/>
<g>
	<path fill="#FFFFFF" d="M16.9,23.8l0-1.2c0-1,0.2-1.9,0.7-2.6c0.4-0.7,1.2-1.5,2.4-2.4c1.1-0.8,1.8-1.4,2.2-1.9
		c0.4-0.5,0.5-1,0.5-1.7c0-0.7-0.2-1.2-0.8-1.6c-0.5-0.4-1.2-0.5-2.1-0.5c-1.6,0-3.4,0.5-5.4,1.5L12.7,10c2.4-1.3,4.9-2,7.5-1.9
		c2.2,0,3.9,0.5,5.2,1.6c1.3,1,1.9,2.4,1.9,4.2c0,1.2-0.3,2.2-0.8,3c-0.5,0.8-1.5,1.8-3,2.8c-1,0.7-1.7,1.3-1.9,1.7
		c-0.3,0.4-0.4,0.9-0.4,1.5l0,0.9L16.9,23.8z M16.4,29.2c0-0.9,0.2-1.6,0.7-2c0.5-0.5,1.2-0.7,2.1-0.7c0.9,0,1.6,0.2,2,0.7
		c0.5,0.5,0.7,1.1,0.7,2c0,0.8-0.2,1.5-0.7,2c-0.5,0.5-1.2,0.7-2,0.7c-0.9,0-1.6-0.2-2.1-0.7C16.6,30.8,16.4,30.1,16.4,29.2z"/>
</g>
</svg>
