<?xml version="1.0" encoding="utf-8"?>
<!-- Generator: Adobe Illustrator 18.1.0, SVG Export Plug-In . SVG Version: 6.00 Build 0)  -->
<!DOCTYPE svg PUBLIC "-//W3C//DTD SVG 1.1//EN" "http://www.w3.org/Graphics/SVG/1.1/DTD/svg11.dtd">
<svg version="1.1" xmlns="http://www.w3.org/2000/svg" xmlns:xlink="http://www.w3.org/1999/xlink" x="0px" y="0px"
	 viewBox="0 0 238 169.1" enable-background="new 0 0 238 169.1" xml:space="preserve">
<g id="large" display="none">
	<g display="inline">
		<g>
			<path d="M44.5,31.2c3.7,3.8,9,7.1,15.4,7.1c2.9,0,6-0.7,8.8-2.4c3.6,3.8,8.3,6,13.4,6c9.3,0,14.4-6,16.7-8.9
				c0.8,0,1.6,0.2,2.9,0.5c1.9,0.4,4.5,1,7.7,1c1.4,0,2.9-0.1,4.4-0.4c1.7-0.3,3-0.4,4-0.4c0.1,0,0.2,0,0.2,0
				c0.2,0.2,0.3,0.3,0.5,0.5c3.8,4,10.1,10.6,19.2,10.6c1.9,0,3.8-0.3,5.5-0.9c1.6,3.7,4.2,6.9,7.3,9.3c3.3,2.5,7.1,3.8,11.3,3.8
				c5.2,0,9.6-2,13.4-3.8c1.8-0.8,4.5-2.1,5.6-2.1c0.4,0,0.7,0.1,0.9,0.1c0.1,0,0.1,0.1,0.2,0.1c2.5,1.1,5.4,2.3,11.4,2.6
				c2.4,0.1,4.4,0.2,6,0.2c0.5,0,1.1,0,1.6,0c0.5,0,0.9,0,1.4,0c2.1,0,3.8,0,6,0.3c0.4,0,0.6,0.1,0.8,0.1c1.7,0.9,3.5,1.6,5.8,2
				c0.3,2.9,1.1,5.5,2.6,7.7c-7.5,3.9-15,9.4-21.2,15.5c-3.1,3-5.3,5.7-7.7,8.5c-1.2,1.4-2.4,2.8-3.8,4.4c-0.7,0.5-2.8,1.2-4.2,1.7
				c-3.7,1.3-8.4,2.9-12.9,6.4c-2.6,2-5,4.5-7.3,6.9c-2.5,2.6-5.1,5.3-7.6,7c-1.7,1.1-3.2,1.9-4.9,2.8c-2.3,1.2-4.8,2.5-7.7,4.6
				c-8.9,6.5-16.4,13.9-22.4,22.1c-0.9,1.2-1.4,1.5-3.7,2.8c-2.3,1.3-5.4,3-9,6.1c-2.5,2.2-5,3.4-6,3.5c-3.1-0.4-5.8-1.1-8.8-1.8
				c-4.8-1.2-10.3-2.5-17.1-2.6c-0.2,0-0.4,0-0.6,0c-3,0-6.1,0.3-9.3,0.7c-3.2,0.3-6.4,0.7-9.3,0.7c-1.5,0-2.7-0.1-3.7-0.3
				c-6-1.1-8.6-4.1-12.4-8.5c-2.1-2.4-4.4-5.1-7.4-7.3c-1.5-1.1-2.9-2.1-4.1-2.8c0.1-2.7,0.1-4.7-0.1-7.4c-0.1-2.5,0.1-3.8,0.3-5.9
				c0.4-2.8,0.8-6.3,0.5-12.1c-0.2-3.5-0.5-5.5-0.8-7.1c-0.3-1.7-0.5-3.1-0.5-8.6c0-3.5,0.6-5.8,1.3-8.5c1.2-4.5,2.8-10.6,0-18.9
				c-1.9-5.7-5.3-9.5-8.6-12.1c1.6-0.7,3.2-1.6,4.8-2.7c6.1-4.2,9.2-8.9,11.5-12.3c1.6-2.3,2.4-3.5,3.6-4.3c0.6-0.5,2.3-1.3,3.7-2
				C42.9,32,43.7,31.6,44.5,31.2 M167.2,0c-3,0-1.9,9.9-4.6,12.8c-3.1,3.2-8,3.5-12,6.7c-4,3.2-5,7.9-10,11.4
				c-0.9,0.7-1.9,0.9-2.9,0.9c-4.1,0-8.3-5.2-11.2-8c-2.3-2.3-5.2-3.1-8.7-3.1c-1.8,0-3.9,0.2-6,0.6c-0.8,0.1-1.6,0.2-2.3,0.2
				c-3.8,0-6.4-1.5-11-1.5c-1.2,0-2.5,0.1-3.9,0.3c-5.7,0.9-6.1,8.6-12.5,8.6c-7.2,0-8.2-14.4-7.7-18.9c0,0,0.5-3.9-4-3.9
				c-0.4,0-0.9,0-1.4,0.1c-6.7,1-2,6.2-3.4,12.6c-1.1,4.8-3.3,6.6-5.7,6.6c-2.8,0-5.9-2.4-7.5-5.1c-2.5-4.1-2.5-8.2-2.5-8.2
				s-3.7,3.1-8,5.8c-3.8,2.3-8.1,4-10.8,5.9c-6.8,4.8-7.2,11.3-14.9,16.6C10.7,43.9,0,45.1,0,52.4c0,8.4,11.9,8.4,14.9,17.4
				c2.8,8.3-2,11.6-2,23.3c0,10.8,0.9,9.3,1.3,16.4c0.5,8.7-1.2,10.1-0.8,17.8c0.2,3.8,0.2,5.8-0.4,11.3c-0.5,4.5,3.2,3.7,9.7,8.6
				c6.5,5,10.4,15.5,25.3,18.3c1.9,0.4,4,0.5,6,0.5c6.7,0,13.8-1.4,18.6-1.4c0.1,0,0.3,0,0.4,0c9.1,0.2,15.2,3.1,24.5,4.3
				c0.5,0.1,1,0.1,1.6,0.1c6.4,0,12.6-4.9,14.6-6.7c5.9-5.1,10.1-4.8,14.6-10.9c5.9-8.1,13-14.4,19.6-19.3c3.8-2.8,7.2-3.8,12-7
				c6.3-4.1,11.2-10.9,15.8-14.5c6-4.7,14.3-4.5,18.7-9.5c4.4-4.9,6.8-8.3,10.9-12.4c8.1-7.9,17.9-13.7,25-16.3
				c4.5-1.6,2.6-3.3,3.8-6.1c1.6-3.5,4.3-2.6,3.7-5.4c-0.8-3.7-9.9,0.3-10-6.4c-0.1-6.4,10-2.2,9.3-7.5c-0.4-3-5.7-3.5-11.7-3.5
				c-1.4,0-2.9,0-4.4,0.1c-0.2,0-0.5,0-0.7,0c-6.6,0-3.8-1.7-10.7-2.4c-2.9-0.3-5.2-0.4-7.4-0.4c-1,0-2,0-3,0c-1.6,0-3.3,0-5.3-0.1
				c-7.7-0.4-5.8-2.3-12.3-2.8c-0.3,0-0.6,0-0.9,0c-7.3,0-13.8,5.9-19,5.9c-1.2,0-2.3-0.3-3.4-1.1c-3.9-3-6.1-8.5-1.6-14.8
				c1.5-2.1,3.3-2.9,5.2-2.9c3.6,0,7.5,2.8,9.8,3.6c0.3,0.1,0.6,0.1,0.9,0.1c3.6,0,8.8-6.4,7.4-13c-1.2-5.8-4.6-7.5-7.3-9.5
				C169,3.9,171.6,0,167.2,0L167.2,0z"/>
		</g>
		<g>
			<path d="M211.8,13.7c-7.6,0-12.7,5.6-13.4,9.6c-0.5,2.9,0,5.6,9.5,6.7c1.3,0.1,2.4,0.2,3.4,0.2
				c6.2,0,7.2-2.8,7.3-6.3C218.8,18.3,217.3,13.7,211.8,13.7C211.8,13.7,211.8,13.7,211.8,13.7L211.8,13.7z"/>
		</g>
	</g>
</g>
<g id="small">
	<g>
		<g>
			<path d="M169.7,11.7c0.2,0.1,0.3,0.2,0.5,0.3c2.3,1.6,3.4,2.3,4,5.2c0.5,2.2-0.7,4.4-1.7,5.4
				c-0.2-0.1-0.3-0.2-0.5-0.2c-2.2-1.1-5-2.6-8.2-3c1.1-0.7,2.1-1.5,3.1-2.5C168.3,15.4,169.1,13.6,169.7,11.7 M46.4,21.9
				c0.2,0.5,0.5,1,0.8,1.4c2.2,3.6,6.9,7.9,12.6,7.9c5.6,0,8.6-3.8,10.2-7.1c0.8,2.5,2,4.9,3.6,6.7c2.3,2.5,5.2,3.9,8.4,3.9
				c6.3,0,9.6-4.2,11.5-6.7c0.6-0.7,1.6-2,1.9-2c1.1-0.2,2-0.3,3-0.3c1.8,0,3.2,0.3,4.8,0.7c1.8,0.4,3.8,0.8,6.2,0.8
				c1.1,0,2.2-0.1,3.3-0.3c2.1-0.3,3.7-0.5,5.1-0.5c2.8,0,3.8,0.7,4.5,1.3c0.4,0.4,0.8,0.9,1.3,1.4c3.4,3.6,8,8.4,14.1,8.4
				c2.2,0,4.4-0.7,6.3-2c2-1.4,3.5-2.9,4.8-4.4c-1.6,6.8,1.5,12.8,6,16.3c2.1,1.6,4.4,2.4,7,2.4c3.7,0,7.1-1.6,10.4-3.1
				c2.9-1.4,5.9-2.8,8.6-2.8c0.2,0,0.3,0,0.5,0c2.1,0.1,2.6,0.4,3.5,0.8c2.1,0.9,4.1,1.7,8.9,2c2.3,0.1,4.1,0.1,5.6,0.1
				c0.5,0,1,0,1.6,0c0.5,0,1,0,1.4,0c2.2,0,4.2,0.1,6.8,0.3c2.1,0.2,2.6,0.5,3.1,0.8c2.1,1.1,4,1.7,8.2,1.7c0.3,0,0.5,0,0.8,0l0.4,0
				c0.5,0,1,0,1.5,0c-0.8,1.5-1.2,3.2-1.2,5c0.1,3.9,1.9,7.1,5.1,8.8c0.6,0.3,1.1,0.5,1.7,0.7c-0.5,1.1-0.7,2-0.8,2.8
				c-7,2.7-17.5,8.6-26.7,17.5c-2.9,2.8-5,5.3-7.2,7.9c-1.2,1.5-2.5,3-4,4.7c-1.4,1.5-4,2.4-7,3.5c-3.4,1.2-7.3,2.5-10.9,5.3
				c-2.2,1.7-4.3,3.9-6.6,6.2c-2.8,2.9-5.7,5.9-8.8,8c-2,1.3-3.8,2.3-5.6,3.2c-2.1,1.1-4.3,2.2-6.7,4c-8.3,6.1-15.3,13-20.9,20.6
				c-1.8,2.5-3.4,3.3-6,4.8c-2.1,1.2-4.8,2.6-7.7,5.2c-2.9,2.5-7.2,5.2-10.6,5.2c-0.3,0-0.5,0-0.8-0.1c-3.5-0.5-6.6-1.2-9.6-2
				c-4.7-1.1-9.5-2.3-15.6-2.4c-0.2,0-0.3,0-0.5,0c-2.6,0-5.5,0.3-8.6,0.7c-3.3,0.4-6.8,0.8-10.1,0.8c-1.9,0-3.5-0.1-4.9-0.4
				c-8.4-1.6-12.3-6-16.4-10.8c-1.9-2.2-3.9-4.5-6.3-6.4c-2.8-2.1-5.1-3.3-6.8-4.2c-0.1-0.1-0.3-0.1-0.4-0.2c0.5-4.9,0.5-7.2,0.3-11
				c-0.1-3.1,0.1-5,0.4-7.1c0.3-2.6,0.7-5.6,0.4-10.8c-0.2-3.2-0.5-4.8-0.7-6.3c-0.3-2-0.6-3.7-0.6-9.7c0-4.4,0.8-7.4,1.5-10.2
				c1.1-4.2,2.3-8.6,0.2-15c-2.1-6.3-7-9.5-10.6-11.8c-3.3-2.1-4-2.8-4-3.7c0-1.1,4.1-2.8,6.4-3.7c2.4-1,4.9-2,7.1-3.5
				c4.9-3.4,7.5-7.3,9.6-10.4c1.7-2.5,3-4.6,5.4-6.2c1.1-0.8,2.8-1.6,4.6-2.5c1.9-0.9,4-2,6-3.2C45.5,22.6,45.9,22.3,46.4,21.9
				 M167.2,0c-3,0-1.9,9.9-4.6,12.8c-3.1,3.2-8,3.5-12,6.7c-4,3.2-5,7.9-10,11.4c-0.9,0.7-1.9,0.9-2.9,0.9c-4.1,0-8.3-5.2-11.2-8
				c-2.3-2.3-5.2-3.1-8.7-3.1c-1.8,0-3.9,0.2-6,0.6c-0.8,0.1-1.6,0.2-2.3,0.2c-3.8,0-6.4-1.5-11-1.5c-1.2,0-2.5,0.1-3.9,0.3
				c-5.7,0.9-6.1,8.6-12.5,8.6c-7.2,0-8.2-14.4-7.8-18.9c0,0,0.5-3.9-4-3.9c-0.4,0-0.9,0-1.4,0.1c-6.7,1-2,6.2-3.4,12.6
				c-1.1,4.8-3.3,6.6-5.7,6.6c-2.8,0-5.9-2.4-7.5-5.1c-2.5-4.1-2.5-8.2-2.5-8.2s-3.7,3.1-8,5.8c-3.8,2.3-8.1,4-10.8,5.9
				c-6.8,4.8-7.2,11.3-14.9,16.6C10.7,43.9,0,45.1,0,52.4c0,8.4,11.9,8.4,14.9,17.4c2.8,8.3-2,11.6-2,23.3c0,10.8,0.9,9.3,1.3,16.4
				c0.5,8.7-1.2,10.1-0.8,17.8c0.2,3.8,0.2,5.8-0.4,11.3c-0.5,4.5,3.2,3.7,9.7,8.6c6.5,5,10.4,15.5,25.3,18.3c1.9,0.4,4,0.5,6,0.5
				c6.7,0,13.8-1.4,18.6-1.4c0.1,0,0.3,0,0.4,0c9.1,0.2,15.2,3.1,24.5,4.3c0.5,0.1,1,0.1,1.6,0.1c6.4,0,12.6-4.9,14.6-6.7
				c5.9-5.1,10.1-4.8,14.6-10.9c5.9-8.1,13-14.4,19.6-19.3c3.8-2.8,7.2-3.8,12-7c6.3-4.1,11.2-10.9,15.8-14.5
				c6-4.7,14.3-4.5,18.7-9.5c4.4-4.9,6.8-8.3,10.9-12.4c8.1-7.9,17.9-13.7,25-16.3c4.5-1.6,2.6-3.3,3.8-6.1c1.6-3.5,4.3-2.6,3.7-5.4
				c-0.8-3.7-9.9,0.3-10-6.4c-0.1-6.4,10-2.2,9.3-7.5c-0.4-3-5.7-3.5-11.7-3.5c-1.4,0-2.9,0-4.4,0.1c-0.2,0-0.5,0-0.7,0
				c-6.6,0-3.8-1.7-10.7-2.4c-2.9-0.3-5.2-0.4-7.4-0.4c-1,0-2,0-3,0c-1.6,0-3.3,0-5.3-0.1c-7.7-0.4-5.8-2.3-12.3-2.8
				c-0.3,0-0.6,0-0.9,0c-7.3,0-13.8,5.9-19,5.9c-1.2,0-2.3-0.3-3.4-1.1c-3.9-3-6.1-8.5-1.6-14.8c1.5-2.1,3.3-2.9,5.2-2.9
				c3.6,0,7.5,2.8,9.8,3.6c0.3,0.1,0.6,0.1,0.9,0.1c3.6,0,8.8-6.4,7.4-13c-1.2-5.8-4.6-7.5-7.3-9.5C169,3.9,171.6,0,167.2,0L167.2,0
				z"/>
		</g>
		<g>
			<path d="M211.8,13.7c-7.6,0-12.7,5.6-13.4,9.6c-0.5,2.9,0,5.6,9.5,6.7c1.3,0.1,2.4,0.2,3.4,0.2
				c6.2,0,7.2-2.8,7.3-6.3C218.8,18.3,217.3,13.7,211.8,13.7C211.8,13.7,211.8,13.7,211.8,13.7L211.8,13.7z"/>
		</g>
	</g>
</g>
</svg>
