<?xml version="1.0" encoding="utf-8"?>
<!-- Generator: Adobe Illustrator 18.1.0, SVG Export Plug-In . SVG Version: 6.00 Build 0)  -->
<!DOCTYPE svg PUBLIC "-//W3C//DTD SVG 1.1//EN" "http://www.w3.org/Graphics/SVG/1.1/DTD/svg11.dtd">
<svg version="1.1" xmlns="http://www.w3.org/2000/svg" xmlns:xlink="http://www.w3.org/1999/xlink" x="0px" y="0px"
	 viewBox="0 0 242.2 208.7" enable-background="new 0 0 242.2 208.7" xml:space="preserve">
<g id="large" display="none">
	<g display="inline">
		<path d="M98.5,13c1.5,0.1,3.6,0.6,5.8,1.1c1.4,0.3,2.9,0.7,4.5,1c2,0.4,4,0.6,6,0.6c4.2,0,7.4-0.9,9.5-1.4
			c0.4-0.1,0.9-0.3,1.2-0.3c1,0,2.5,0.2,4,0.4c3,0.4,6.6,0.8,11,0.8l0.5,0c3.8,0,6.8-0.5,9.2-0.9c1.4,2.3,3.7,5.5,8,8.3
			c3,2,7.4,4.2,12.4,6.7c5.4,2.7,14.4,7.3,16.7,9.4c1.8,1.6,2.8,3,4.2,5.2c1.9,2.8,4.3,6.2,8.6,10.4c5.6,5.4,11.2,7.5,15.3,9.1
			c2.7,1,4.1,1.6,5.2,2.6c2.2,2,7.2,10,7.9,15.3c1.3,10.2,0.7,13.4-0.5,19.7c-0.4,2-0.8,4.3-1.3,7.1c-1,6.4-0.1,10.8,0.7,14.4
			c0.4,1.8,0.7,3.3,0.8,5.3c0.1,1.2-0.1,2.2-0.5,4.2c-0.4,2-0.8,4.4-1,7.5c-1.3,0.1-2.5,0.2-3.7,0.2c-0.1,0-0.3,0-0.5,0
			c-1.1,0-2.6-0.2-4.3-0.4c-2.4-0.3-5.2-0.7-8.4-0.7c-5.3,0-10.2,1.1-15,3.3c-7.1,3.3-10.3,8.9-12.1,12.2c-0.4,0.7-1,1.8-1.3,2.1
			c-5.2,4.3-15.7,11.8-23.5,14.9c-8.5,3.4-17.7,11.5-25.7,18.6c-1.8,1.6-4.1,3.6-5.7,5c-1.2-0.2-2.5-0.5-4.1-0.9
			c-3.6-0.9-8-2-13.6-2.3c-0.5,0-0.9,0-1.4,0c-2.7,0-5.7,0.4-8.8,1c-4.7-5.3-13-10.6-24-17.2c-2.3-1.4-4.4-2.7-5.8-3.6
			c-2.3-1.5-4.9-4.3-7.3-6.9c-2.6-2.8-5.2-5.7-8.3-7.9c-3.8-2.7-6.8-4.4-9.5-5.9c-2.2-1.3-4.3-2.4-7-4.3c-2.1-1.4-3.1-2.6-5-4.6
			c-1.6-1.7-3.5-3.9-6.3-6.4c-3.4-3-6.6-5-9.3-6.6c-1.1-0.6-2.4-1.5-3.2-2c-0.6-12.9,1-18.5,2.4-22.9c1-3.2,2-6.8,2-11.3
			c0-3.4-0.1-8.2-0.1-12.4c1.6-1.3,3.7-3.2,6.9-6.2c3.7-3.4,8.3-7.7,11-9.7c3.1-2.4,6.1-4.1,9-5.7c3.5-2,7.1-4.1,10.3-7
			c2.1-2,4.5-4.3,6.9-6.8c3-3.1,6.2-6.3,8.6-8.2c2.2-1.8,7.2-4.7,10.9-6.8c2.8-1.6,5.3-3,7.2-4.3C94.3,21.3,97,16.2,98.5,13 M98.1,0
			c-2.2,0-4.5,0.4-6.7,1.4C86.2,3.9,88,9.9,80.9,14.6c-4.3,2.9-14.4,7.9-19.2,12C56.8,30.7,50.4,37.8,45.7,42
			c-4.2,3.9-10.6,6.1-18.2,11.9c-5.6,4.2-15.8,14.4-18.8,16.6c-0.9,0.7-1.8,0.9-2.6,0.9c-1.1,0-1.9-0.5-1.9-0.5s0.2,14.1,0.3,21.8
			c0.1,7.4-5.5,11.6-4.4,35c0.5,9.9,9,10.6,16.8,17.5c5.5,4.9,6.8,8.1,12.6,12c6.6,4.5,10,5.6,16.3,10c4.5,3.2,9.4,10.8,16,15.1
			c6.6,4.3,23.7,13.8,27.8,19.4c1.6,2.2-1,6.9-1,6.9s12.3-4.4,18.8-4.4c0.2,0,0.5,0,0.7,0c8.5,0.5,14.1,3.4,20.2,3.4
			c0.5,0,1.1,0,1.6-0.1c3.8-0.4,21.6-20.2,32.7-24.6c10.4-4.1,22.5-13.2,27.1-17c4.6-3.8,4.7-9.8,10.5-12.4c3.4-1.6,6.6-2.1,9.6-2.1
			c4.5,0,8.6,1.1,12.7,1.1c0.4,0,0.9,0,1.3,0c8-0.5,17.7-1,17.7-1s-1.5-2.1-1.8-8.8c-0.3-6.8,1.8-10.1,1.4-15.9
			c-0.5-7.4-2.7-10.1-1.7-16.8c1.8-11.5,3.8-14.7,1.9-30.5c-1.1-8.6-7.7-19.4-12.1-23.4c-6.3-5.6-13.3-4.6-20.2-11.3
			c-6.7-6.5-7.3-10.4-13.1-15.8c-5.8-5.3-24.4-13.3-30.8-17.5c-5-3.2-4.1-7-9-10.1c-1-0.6-2-0.8-3.1-0.8c-2.8,0-6.5,1.3-12.3,1.4
			c-0.1,0-0.2,0-0.4,0c-6.3,0-11.3-1.2-15.3-1.2c0,0,0,0,0,0c-3.3,0-6,1.8-10.5,1.8c-1.1,0-2.3-0.1-3.6-0.4
			C106.8,1.4,102.5,0,98.1,0L98.1,0z"/>
	</g>
</g>
<g id="small">
	<g>
		<path d="M98.1,6c2.3,0,4.9,0.6,7.7,1.2c1.4,0.3,2.8,0.6,4.2,0.9c1.6,0.3,3.2,0.5,4.7,0.5c3.2,0,5.7-0.7,7.7-1.2
			c1.2-0.3,2.1-0.6,2.8-0.6c1.4,0,3.1,0.2,5.1,0.5c2.8,0.3,6.2,0.8,10.1,0.8l0.4,0c3.9,0,7-0.6,9.2-1c1.2-0.2,2.4-0.4,3-0.4
			c0,0,0,0,0.1,0c1.1,0.7,1.5,1.5,2.3,2.8c1.2,2,2.8,4.7,6.5,7.1c2.7,1.8,6.9,3.9,11.8,6.4c6.8,3.5,15.2,7.7,18.2,10.5
			c2.4,2.2,3.7,4,5.3,6.4c1.8,2.6,3.9,5.6,7.7,9.3c4.5,4.4,9.2,6.1,12.9,7.5c2.9,1.1,5.3,2,7.4,3.9c3.5,3.1,9.3,12.8,10.1,19.7
			c1.4,11.3,0.7,15.3-0.6,21.9c-0.4,2-0.8,4.2-1.2,6.9c-0.8,5.2-0.1,8.6,0.6,11.9c0.4,1.9,0.8,3.8,1,6.3c0.1,2.1-0.2,3.8-0.6,5.9
			c-0.5,2.5-1.1,5.7-0.8,9.9c0.1,1.1,0.1,2,0.2,2.9c-3.2,0.2-7,0.4-10.5,0.6c-0.3,0-0.6,0-0.9,0c-1.6,0-3.4-0.2-5.3-0.5
			c-2.2-0.3-4.7-0.6-7.5-0.6c-4.3,0-8.2,0.9-12.1,2.6c-5.1,2.3-7.3,6.3-9,9.3c-1,1.7-1.7,3.1-2.8,4c-4.7,3.9-16.2,12.4-25.5,16.1
			c-7.4,2.9-16.4,10.9-23.7,17.4c-2.8,2.5-6.6,5.8-8.2,6.9c-0.1,0-0.2,0-0.3,0c-2.2,0-4.7-0.6-7.5-1.3c-3.5-0.8-7.4-1.8-12.3-2.1
			c-0.3,0-0.7,0-1,0c-3.4,0-7.9,0.9-11.9,2c-0.3-0.7-0.6-1.4-1.1-2c-3.5-4.9-12.3-10.4-23.4-17.1c-2.4-1.5-4.5-2.8-6-3.7
			c-3.1-2-5.9-5.1-8.6-8.1c-2.4-2.6-4.7-5.1-7.2-6.9c-3.5-2.5-6.3-4-8.9-5.5c-2.3-1.3-4.6-2.6-7.5-4.6c-2.8-1.9-4.2-3.5-6.2-5.7
			c-1.5-1.7-3.2-3.6-5.8-5.8c-2.9-2.6-5.8-4.3-8.3-5.8c-5.2-3.2-6.3-4.2-6.5-7.4c-0.7-14.3,1.2-20.5,2.7-25.5c0.9-3,1.7-5.8,1.7-9.2
			c0-4.5-0.1-11.4-0.2-16.2c0.7-0.3,1.4-0.7,2-1.2c1.4-1.1,3.7-3.1,7.2-6.4c3.8-3.5,8.6-7.9,11.6-10.2c3.5-2.6,6.8-4.5,9.7-6.2
			c3.3-1.9,6.4-3.7,9-6.1c2-1.9,4.3-4.1,6.7-6.6c3.2-3.2,6.4-6.5,9-8.7c2.7-2.2,7.8-5.2,11.9-7.5c2.7-1.6,5-2.9,6.8-4.1
			c5.1-3.4,7-7.6,8.3-10.3C93.4,7.4,93.6,7,94,6.9C95.2,6.3,96.6,6,98.1,6 M98.1,0c-2.2,0-4.5,0.4-6.7,1.4
			C86.2,3.9,88,9.9,80.9,14.6c-4.3,2.9-14.4,7.9-19.2,12C56.8,30.7,50.4,37.8,45.7,42c-4.2,3.9-10.6,6.1-18.2,11.9
			c-5.6,4.2-15.8,14.4-18.8,16.6c-0.9,0.7-1.8,0.9-2.6,0.9c-1.1,0-1.9-0.5-1.9-0.5s0.2,14.1,0.3,21.8c0.1,7.4-5.5,11.6-4.4,35
			c0.5,9.9,9,10.6,16.8,17.5c5.5,4.9,6.8,8.1,12.6,12c6.6,4.5,10,5.6,16.3,10c4.5,3.2,9.4,10.8,16,15.1c6.6,4.3,23.8,13.8,27.8,19.4
			c1.6,2.2-1,6.9-1,6.9s12.3-4.4,18.8-4.4c0.2,0,0.5,0,0.7,0c8.5,0.5,14.1,3.4,20.2,3.4c0.5,0,1.1,0,1.6-0.1
			c3.8-0.4,21.6-20.2,32.7-24.6c10.4-4.1,22.5-13.2,27.1-17c4.6-3.8,4.7-9.8,10.5-12.4c3.4-1.6,6.6-2.1,9.6-2.1
			c4.5,0,8.6,1.1,12.7,1.1c0.4,0,0.9,0,1.3,0c8-0.5,17.7-1,17.7-1s-1.5-2.1-1.8-8.8c-0.3-6.8,1.8-10.1,1.4-15.9
			c-0.5-7.4-2.7-10.1-1.7-16.8c1.8-11.5,3.8-14.7,1.9-30.5c-1.1-8.6-7.7-19.4-12.1-23.4c-6.3-5.6-13.3-4.6-20.2-11.3
			c-6.7-6.5-7.3-10.4-13.1-15.8c-5.8-5.3-24.4-13.3-30.8-17.5c-5-3.2-4.1-7-9-10.1c-1-0.6-2-0.8-3.1-0.8c-2.8,0-6.5,1.3-12.3,1.4
			c-0.1,0-0.2,0-0.4,0c-6.3,0-11.3-1.2-15.3-1.2c0,0,0,0,0,0c-3.3,0-6,1.8-10.5,1.8c-1.1,0-2.3-0.1-3.6-0.4
			C106.8,1.4,102.5,0,98.1,0L98.1,0z"/>
	</g>
</g>
</svg>
