<?xml version="1.0" encoding="utf-8"?>
<!-- Generator: Adobe Illustrator 18.1.0, SVG Export Plug-In . SVG Version: 6.00 Build 0)  -->
<!DOCTYPE svg PUBLIC "-//W3C//DTD SVG 1.1//EN" "http://www.w3.org/Graphics/SVG/1.1/DTD/svg11.dtd">
<svg version="1.1" xmlns="http://www.w3.org/2000/svg" xmlns:xlink="http://www.w3.org/1999/xlink" x="0px" y="0px"
	 viewBox="0 0 266.2 231.7" enable-background="new 0 0 266.2 231.7" xml:space="preserve">
<g id="large" display="none">
	<g display="inline">
		<path d="M168.8,13.5c0.5,0.5,1,0.9,1.5,1.4c2.2,2,5,4.6,8.6,7.5c2.5,2.1,4.2,3.8,6,5.6c2.2,2.2,4.5,4.5,7.9,7.2
			c4.3,3.4,9.6,5.7,13.9,7.5c1.4,0.6,3.4,1.5,4.3,2c1.1,1,2.1,2,3.1,2.9c5,4.8,9,8.7,14.1,12.5c2.2,1.6,5,3.2,8.6,5.2
			c3.5,1.9,11.1,6.2,13.9,8.9c0.2,3-0.1,8.1-0.4,13.4c-0.4,6.9-0.9,15.4-0.8,25.3c0.1,7.5,1.2,15,2.3,21.6c0.2,1.4,0.5,3,0.7,4.6
			c-2.5-0.4-5.3-0.8-8.2-0.8c-3.2,0-6.2,0.4-8.9,1.2c-6,1.8-9.5,6.3-13.2,11c-3.7,4.8-8.8,11.4-18.5,18.7c-2.5,1.9-7.1,5-11.9,8.2
			c-7.6,5.1-15.4,10.3-19.9,14.1c-2.1,1.8-5.5,5.1-11.2,10.8c-3.3,3.3-8.2,8.2-12.3,12.1c-3.8-2.4-7.4-2.9-9.6-3.2
			c-0.3,0-0.7-0.1-1-0.1c0,0,0,0,0,0c-1.9-1.7-5-4.4-9-7.7c-6.8-5.8-16.2-13.8-23-20.1c-3.6-3.4-6.6-5.2-9.3-6.3
			c1-4.2,2.3-10.2,1.3-17c-0.2-1.6-0.5-2.9-0.7-4.1c-0.7-3.9-1.1-5.7,0.4-13.1c2.8-13.9,2.5-19.3,0.2-30.7
			c-2.2-10.5-7.1-20.6-13.9-28.6c-3.6-4.2-9-6.8-14.7-9.5c-2.8-1.4-7.6-3.7-8.9-5c-1.5-1.5-2.9-3.3-4.6-5.3
			c-3.4-4.2-7.5-9.5-14.1-14.4c6.9,0.9,15.7,2,24.1,2c1.4,0,2.8,0,4.1-0.1c17.8-0.8,26.8-11.6,31.7-17.3c0.7-0.8,1.7-2,2-2.3
			c1.3-1.1,4-2.3,6.6-3.4c3.1-1.4,6.5-2.9,9.8-5.1c4.8-3.2,7.5-6.5,9.2-9c4.7,0,11.3,0.5,16.2,0.9c1.4,0.1,2.6,0.2,3.7,0.3
			c1.3,0.1,2.7,0.1,4,0.1C159.3,15.3,165,14.3,168.8,13.5 M171.6,0c-3.1,0-10.3,2.3-18.8,2.3c-1,0-2.1,0-3.1-0.1
			c-5-0.4-14.4-1.2-21-1.2c-2.8,0-5.1,0.2-6.3,0.6c-3.9,1.4-2.4,5.6-10,10.6c-5.3,3.6-12.8,5.3-17.6,9.4C90,25.8,84.8,37.5,69,38.2
			c-1.2,0.1-2.3,0.1-3.5,0.1c-13.7,0-29.2-3.2-34.6-3.2c-0.2,0-0.3,0-0.5,0c-5.3,0.2-13,2.3-17.4,3c-0.4,0.1-0.9,0.1-1.4,0.1
			C7,38.2,0,35.4,0,35.4s3,4.6,6.2,8.9c3.1,4.3,20.1,10,27,15c8.6,6.3,12.2,13.3,17.7,18.8C56.4,83.8,70,87.5,73.8,92
			c5.4,6.3,9.3,14.4,11.1,22.7c2,9.7,2.2,13.4-0.2,25.5c-2.4,12.1-0.9,14.4,0.2,21.6c1.4,9.2-3.9,16.9-1.8,20.8
			c4.2,7.7,6.2,3.1,13.7,10.1c10.7,10.1,27.1,23.4,32.1,28c5.1,4.6,8.9,2.4,12.6,4.8s2.9,6.1,6,6.1s27.3-25.7,32.6-30.2
			c6.8-5.7,24.5-16.7,31.3-21.8c18.8-14.2,22.7-26.2,27.7-27.7c1.6-0.5,3.4-0.7,5.1-0.7c6.3,0,13,2.4,17,2.4c1.2,0,2.2-0.2,2.8-0.8
			c5.3-4.3-1.5-23.4-1.7-40.3c-0.2-20.2,2.3-34.7,0.9-42.4c-1.4-7.7-21.8-16.5-27.4-20.7s-9.8-8.5-16.5-14.9
			c-2.9-2.8-13.1-5.4-18.6-9.8c-5.5-4.4-7.6-7.5-13.7-12.6c-8-6.6-12.1-11.3-14.5-12.3C172.4,0,172,0,171.6,0L171.6,0z"/>
	</g>
</g>
<g id="small">
	<g>
		<path d="M170.9,6.1c1,0.8,2.7,2.3,4.2,3.7c2.2,2,4.9,4.5,8.3,7.3c2.8,2.3,4.7,4.2,6.5,6c2.1,2.1,4.2,4.2,7.3,6.7
			c3.6,2.8,8.2,4.8,12.3,6.6c2,0.9,5.1,2.2,5.8,2.8c1.3,1.2,2.5,2.4,3.6,3.5c4.8,4.7,8.6,8.3,13.4,11.9c1.8,1.4,4.6,2.9,7.9,4.7
			c3.8,2.1,8.2,4.6,11.7,7.1c4.7,3.3,5.4,5,5.5,5.2c0.6,3.4,0.3,9.2-0.2,16.6c-0.4,6.8-0.9,15.2-0.8,24.8c0.1,7,1.2,14.2,2.2,20.6
			c0.7,4.6,1.8,11.2,1.5,14.3c-1.2-0.2-2.8-0.5-4.4-0.8c-3.5-0.7-7.4-1.5-11.5-1.5c-2.5,0-4.8,0.3-6.9,0.9c-3.9,1.2-6.3,4.3-9.7,8.6
			c-4,5.1-9.4,12.1-19.9,20c-2.7,2-7.3,5.1-12.3,8.4c-7.4,5-15.1,10.1-19.3,13.6c-2,1.7-5.9,5.5-10.8,10.4
			c-4.8,4.7-12.7,12.7-17.2,16.6c-0.8-1.1-1.9-2.3-3.5-3.3c-2.6-1.8-5.3-2.1-7.2-2.4c-2-0.3-3.1-0.4-4.7-1.9
			c-1.8-1.7-4.9-4.3-8.8-7.6c-6.9-5.9-16.3-13.9-23.2-20.4c-4.4-4.1-7.6-5.2-9.8-5.9c-1.4-0.5-1.6-0.5-2.6-2.3c0-0.8,0.5-2.6,0.8-4
			c1-3.9,2.3-9.2,1.4-15.3c-0.2-1.5-0.5-2.7-0.7-3.9c-0.8-4.4-1.3-7,0.4-15.7c2.6-12.8,2.3-17.5,0.2-27.9
			c-1.9-9.4-6.3-18.4-12.4-25.4c-2.7-3.1-7.2-5.3-12.4-7.8c-4.1-2-8.7-4.2-10.8-6.3c-1.8-1.8-3.4-3.8-5.1-5.9
			c-3.4-4.2-7.2-9-13.4-13.5c-3.5-2.6-8.8-5-13.9-7.4c-2-0.9-4.7-2.2-7.1-3.4c1.1-0.2,2.3-0.5,3.6-0.7c3.7-0.8,8.2-1.8,11.3-1.9
			c0.1,0,0.1,0,0.2,0c1.7,0,5.4,0.5,9.3,1c7,0.9,16.5,2.2,25.3,2.2c1.3,0,2.6,0,3.8-0.1c14.8-0.7,22.2-9.5,26.6-14.8
			c1.1-1.3,2.1-2.5,2.8-3.1c2-1.7,5.1-3.1,8.3-4.5c2.9-1.3,6-2.7,8.8-4.5c5.4-3.6,7.3-7,8.6-9.3c0.1-0.2,0.3-0.5,0.4-0.7
			c0.5-0.1,1.7-0.2,3.9-0.2c5,0,11.9,0.5,16.9,0.9c1.4,0.1,2.6,0.2,3.6,0.3c1.2,0.1,2.3,0.1,3.5,0.1c5.9,0,11-1,14.8-1.7
			C168.7,6.4,170,6.2,170.9,6.1 M171.6,0c-3.1,0-10.3,2.3-18.8,2.3c-1,0-2.1,0-3.1-0.1c-5-0.4-14.4-1.2-21-1.2
			c-2.8,0-5.1,0.2-6.3,0.6c-3.9,1.4-2.4,5.6-10,10.6c-5.3,3.6-12.8,5.3-17.6,9.4S84.8,37.5,69,38.2c-1.2,0.1-2.3,0.1-3.5,0.1
			c-13.7,0-29.2-3.2-34.6-3.2c-0.2,0-0.3,0-0.5,0c-5.3,0.2-13,2.3-17.4,3c-0.4,0.1-0.9,0.1-1.4,0.1C7,38.2,0,35.4,0,35.4
			s3,4.6,6.2,8.9s20.1,10,27,15c8.6,6.3,12.2,13.3,17.7,18.8C56.4,83.8,70,87.5,73.8,92c5.4,6.3,9.3,14.4,11.1,22.7
			c2,9.7,2.2,13.4-0.2,25.5c-2.4,12.1-0.9,14.4,0.2,21.6c1.4,9.2-3.9,16.9-1.8,20.8c4.2,7.7,6.2,3.1,13.7,10.1
			c10.7,10.1,27.1,23.4,32.1,28c5.1,4.6,8.9,2.4,12.6,4.8c3.6,2.4,2.9,6.1,6,6.1c3.1,0,27.3-25.7,32.6-30.2
			c6.8-5.7,24.5-16.7,31.3-21.8c18.8-14.2,22.7-26.2,27.7-27.7c1.6-0.5,3.4-0.7,5.1-0.7c6.3,0,13,2.4,17,2.4c1.2,0,2.2-0.2,2.8-0.8
			c5.3-4.3-1.5-23.4-1.7-40.3c-0.2-20.2,2.3-34.7,0.9-42.4c-1.4-7.7-21.8-16.5-27.4-20.7c-5.6-4.1-9.8-8.5-16.5-14.9
			c-2.9-2.8-13.1-5.4-18.6-9.8c-5.5-4.4-7.6-7.5-13.7-12.6c-8-6.6-12.1-11.3-14.5-12.3C172.4,0,172,0,171.6,0L171.6,0z"/>
	</g>
</g>
</svg>
