<?xml version="1.0" encoding="utf-8"?>
<!-- Generator: Adobe Illustrator 18.1.0, SVG Export Plug-In . SVG Version: 6.00 Build 0)  -->
<!DOCTYPE svg PUBLIC "-//W3C//DTD SVG 1.1//EN" "http://www.w3.org/Graphics/SVG/1.1/DTD/svg11.dtd">
<svg version="1.1" id="contyr" xmlns="http://www.w3.org/2000/svg" xmlns:xlink="http://www.w3.org/1999/xlink" x="0px" y="0px"
	 viewBox="0 0 234.5 293.9" enable-background="new 0 0 234.5 293.9" xml:space="preserve">
<g>
	<path d="M206.9,115.9c-7.9-6.4-9.6-9.1-15.8-14.7c-6.4-5.8-9.9-5.4-16.9-10.9c-4.4-3.5-5.4-4.5-10.9-10.4c-5.3-5.8-9.8-7-15.2-11.5
		c-3.8-3.2-3.9-8.7-3.9-17.7s2.3-20.7,4.9-27.4c2.6-6.7-0.7-21.4-2.5-23c-1.8-1.6-27.4,1.8-35.3,2.6C103.4,4,93.2,0,83.6,3.1
		c-5.3,1.7-12,12-18.2,19.3c-6.2,7.2-15.2,9.4-15.2,9.4s3.7,11.5,2.8,37.6c-0.7,19.8-3.9,22.5-16.1,33.4c-9.4,8.3-33.7,18.7-36,22.3
		c-2.3,3.5,0.6,45.4-0.4,69.1c-0.2,3.8,4.4,5.2,8.4,7s5.9,5.4,10.8,9.4c4.9,4.1,18.5,3.9,23,21.4c1.4,5.4,0.2,7.8-0.4,15.2
		c-0.6,7.1-0.7,12.2,2.1,14.8c1.9,1.8,3.6,0.2,8.3,1.8c4.8,1.6,4.4,5.9,6.3,7.5c1.9,1.6,14.2-3.3,28.8,1.5c9.1,3,5.7,13.8,26.8,17.7
		c7.4,1.4,14,3.5,19.9,3.5c8,0,14.5-2.6,16.7-5.1c6.2-6.9-1-18.6,2.4-26.9c3.4-8.3,14.7-8.2,23.4-7.8c3.2,0.1,4.9-4.4,4.3-10.3
		c-0.5-5-4-6.7-1.2-14.1c3.4-9.1,16.7-13.8,20.2-17.7c3.5-3.9-1.5-8.9-2-26.3c-0.3-9.2-1.5-16.1,2.8-22.6c3.3-4.9,9.2-5.5,19.7-12.5
		c9.3-6.2,13.7-9.4,13.7-15.7C234.5,129.7,214.9,122.3,206.9,115.9z"/>
</g>
</svg>
