<?xml version="1.0" encoding="utf-8"?>
<!-- Generator: Adobe Illustrator 18.1.0, SVG Export Plug-In . SVG Version: 6.00 Build 0)  -->
<!DOCTYPE svg PUBLIC "-//W3C//DTD SVG 1.1//EN" "http://www.w3.org/Graphics/SVG/1.1/DTD/svg11.dtd">
<svg version="1.1" id="Слой_1" xmlns="http://www.w3.org/2000/svg" xmlns:xlink="http://www.w3.org/1999/xlink" x="0px" y="0px"
	 viewBox="9.6 158.9 576.9 524.3" enable-background="new 9.6 158.9 576.9 524.3" xml:space="preserve">
<g id="large">
	<g>
		<path d="M540,171.9c2.4,0,8,3.5,11.4,5.5c2.4,1.5,4.8,3,7.3,4.2c5.1,2.6,9.5,3.1,12.9,3.3
			c-0.1,4-0.8,10.2-1.9,18.6c-0.1,0.9-0.2,1.8-0.3,2.5c0,0.1,0,0.1,0,0.2c-0.5,4.6,0.4,10.5,2,19.7c0.9,5.4,2.1,12.1,2.1,15.5
			c0,3.7-0.9,9.5-1.7,15.1c-0.9,6.4-1.9,13-2,18.7c0,0,0,0.1,0,0.1c-0.1,13.1-1.2,22-3.2,26.7c-0.9,2.2-1.7,3.1-5.2,4.7
			c0,0,0,0-0.1,0c-0.6,0.3-2.6,0.8-6.1,0.8c-13.2,0-28.2-6.2-30.9-9.4c0,0,0,0,0-0.1c-3.8-4.3-5.4-11.3-6.7-16.9
			c-0.3-1.2-0.5-2.3-0.8-3.3c-0.6-2.5-1-4.3-1.5-6.1c-0.7-2.9-1.3-5.7-2.6-10.5c-0.2-0.6-0.4-1.3-0.5-1.9c-1.4-5.1-2.5-9.1-2.7-14.8
			c-0.1-1.8,0.1-4.2,0.2-6.4c0.5-8,1.3-20.2-9.1-25.9c-2.3-1.3-4.9-2-7.4-2c-5.2,0-9.9,2.7-12.9,7.4c-0.2,0.3-0.4,0.7-0.6,1
			c-1.4-0.1-2.8-0.2-4.1-0.2c-12.8,0-17.3,6.6-18.8,10.5c-2.3,5.8-0.6,12.3,4.3,16.9c4.4,4.2,6.8,13.6,3.2,19.2
			c-0.2,0.4-0.4,0.6-0.6,0.8c-0.4-0.1-0.9-0.2-1.4-0.2c-1.4-0.2-3-0.6-5-0.6c-1.4,0-2.7,0.2-4,0.5c-7.2,1.8-11.3,7.3-14.9,12.1
			c-0.6,0.9-1.3,1.8-2,2.6c-1.8,2.3-3.8,3.5-7.7,5.9c-0.5,0.3-1,0.6-1.5,0.9c-5.4,3.2-8.6,8.4-9,14.6c-0.3,3.8,0.6,7.2,1.3,9.6
			c0,0.1,0.1,0.3,0.1,0.4c-0.7,1.1-2.3,3.3-5.9,6.7c-2.5,2.4-10.3,6.8-15.4,9.7c-5.3,3-9.8,5.6-12.8,7.9c-5.7,4.5-10.2,10-14.2,14.8
			c-3,3.7-5.9,7.2-8.8,9.6c-0.9,0.7-4.2,1.9-6.3,2.7c-4.8,1.8-10.9,3.9-16,8.2c-6.9,5.7-10.5,13.6-10.5,23.1
			c0,12.5,11.1,21.1,20.1,28c2.2,1.7,5.4,4.2,7.1,5.8c-0.1,0.6-0.3,1.4-0.5,2c-1.3,5.1-3.2,12.9-3.8,26.1
			c-0.6,13.3,1.1,22.3,2.3,28.3c0.4,2.3,0.8,4.3,0.9,5.5c0,0.7-0.5,2.7-0.8,4.3c-1.5,6.9-3.9,17.3-2.5,35.6c0,0,0,0,0,0.1
			c0.3,3.2,0.3,5.8,0,7.7c-4,1.6-10.2,4.2-16.3,9.9c-1.2,1.1-2.4,2.3-3.7,3.5c-4.6,4.3-9.9,9.1-15.7,15.1c0,0,0,0,0,0
			c-1.8,1.9-4.7,4-7.5,6c-3.5,2.5-7.1,5.2-10.1,8.3l-1.6,1.6c-6.3,6.4-11.7,12-16.9,15.6c-3.1,2.2-5.5,3.3-8.2,4.5
			c-3.5,1.6-7.4,3.4-12.3,7.1c-5.9,4.5-7,5.5-10.3,9.8c-0.7,1-1.7,2.2-3.1,4c-2.3,2.9-4.5,3.8-9.7,5.6c-1.6,0.6-3.4,1.2-5.3,1.9
			c-6.7,2.7-10,6.5-12.1,9.1c-1.4,1.6-1.5,1.8-2.9,2.3c0,0,0,0-0.1,0c-1,0-3.3-0.7-5.4-1.4c-4-1.3-9.1-3-15.2-3.1
			c-0.5,0-0.9,0-1.4,0c-9.7,0-14.4,2.3-19.4,4.7c-0.7,0.3-1.4,0.7-2.1,1c-0.6-0.1-1.3-0.4-1.9-0.5c-3.2-0.9-7.6-2.1-13.2-2.1
			c-4.5,0-9,0.8-13.7,2.3c-9.7,3.2-13.6,10-15.9,14.1c-1.4,2.4-2,3.5-3.4,4.4c0,0,0,0-0.1,0c-0.7,0.5-0.7,0.5-2.8,0.8
			c-3.4,0.4-9,1.2-15.4,6.1c-0.7,0.5-1.2,0.9-1.6,1.1c-1.8-1.8-3.2-3.9-4.8-6.2c-2.8-4-6.2-9-12-13c0,0,0,0,0,0
			c-4.4-3-8.5-4.4-12.3-5.7c-2.9-1-5.8-2-9.5-3.9c-4.4-2.3-8.4-5.4-11.5-7.9c-0.2-0.2-0.4-0.3-0.6-0.5c0.1-3.3-0.2-7.6-2.3-12.3
			c-2.3-5.1-4.5-7.6-7.3-10c-0.1-0.1-0.2-0.2-0.3-0.3c-0.1-0.1-0.4-0.5-0.9-1.5c0,0,0,0,0-0.1c-2.2-3.9-2.8-8.1-3.5-13
			c-0.5-3.5-1-7.1-2.2-10.8c-1.9-6.1-6.2-11-10.4-15.8c-1.1-1.3-2.6-3-3.7-4.4c1-1,2.4-2.3,3.4-3.1c3.8-3.3,8.4-7.3,10.2-13.7
			c1.8-6.7-0.5-12.6-2.1-17c-0.3-0.7-0.6-1.6-0.9-2.4c0.7-0.4,1.6-0.9,2.2-1.3c6.4-3.5,18.3-10,19-27.1
			c0.9-18.4-13.7-28.1-22.4-33.9c-0.3-0.2-0.7-0.5-1-0.7c2.2-2.2,4.7-4.6,6-5.8l0.3-0.3c1-1,2-1.8,2.9-2.6c0.9,1.3,2,2.8,3.3,4.2
			c1.7,1.8,6.8,7.2,14.9,7.2c8.2,0,14.1-5.3,20.5-11.6c8.1-8.1,9.7-17.5,10.7-23.6c0.3-1.7,0.7-4.2,1.1-4.9
			c2.5-4.3,12.5-9.8,19.1-13.4c10.1-5.5,18.1-9.9,21.2-17.7c4.7-11.7-1.5-21.8-6.1-29.3c-2.7-4.3-5.5-8.8-5.4-12
			c0.2-1.8,3.9-8.7,18.2-20c10.7-8.4,21.6-14.7,24.2-15.8c3.2-1.1,7.2-1.4,11.1-1.7c3.8-0.3,7.6-0.6,11.4-1.7
			c3.3-0.9,6.6-2.7,10.4-4.8c3.7-2,10.5-5.7,13.5-5.7c0,0,0.1,0,0.1,0c0,0,0,0,0,0c0.1,0,0.1,0,0.2,0c4.7,0.6,11.8,5.9,17,9.8
			c6.7,5.1,12.5,9.5,19.6,9.5c2.8,0,5.6-0.7,8-2.2c0,0,0.1-0.1,0.1-0.1c4.9-3,8.1-8.7,9.6-17.3c0.9-5,1.2-10.9,1-17.1
			c5.1,0.7,10.8,1.7,15.9,3.5c0.1,0,0.2,0.1,0.3,0.1c11.2,3.5,36.2,9.1,55.7,9.1c4.5,0,8.6-0.3,12.1-0.9c6.3-1.1,15.1-4.8,21.6-16.2
			c3.5-6.2,5.5-13.1,6.9-18.2c0.3-1.2,0.8-2.7,1.1-3.8c1-0.4,3.5-0.8,5.2-1c2.5-0.4,5.3-0.7,8.2-1.6c7.2-2.2,10.9-7.4,13.5-11.3
			c2.6-3.7,4.8-6.9,10.8-9.9c0,0,0.1,0,0.1,0c4.8-2.4,8.7-3.3,14.7-4.6c2.3-0.5,5-1.1,7.9-1.8c9.1-2.3,16-8.9,22.1-14.7
			c3.2-3,6.4-6.2,8.9-7.5c0,0,0.1,0,0.1,0c1.4-0.8,3.4-0.9,6.8-1.1c8.3-0.4,20.8-1,33.1-16.3c0.9-1.1,1.8-2.2,2.6-3.3
			C518.4,180,524.6,171.9,540,171.9 M540,158.9c-24.4,0-33.3,15.3-40.9,24.8c-13.6,17-24.9,8.1-36,14.1c-9.4,5.1-17.9,18.5-28,21
			c-10.1,2.5-16.7,3-25.3,7.4c-15.5,7.7-15.5,18.4-22.2,20.4c-6.7,2-15.2,0.7-20.4,7.4c-3.7,4.7-4.7,30.1-21,33
			c-2.9,0.5-6.2,0.7-9.8,0.7c-17,0-40.3-4.9-51.8-8.5c-14.5-4.9-31.3-5.2-36.1-5.2c-0.8,0-1.3,0-1.3,0s3.7,3.2,4.2,12
			c0.8,13.3-1.2,23.6-4.2,25.4c-0.4,0.2-0.8,0.3-1.3,0.3c-6.3,0-20.8-17.5-35-19.2c-0.6-0.1-1.2-0.1-1.8-0.1
			c-9.7,0-22,9.5-27.5,11.1c-5.9,1.7-15,0.7-23.4,3.7c-6.1,2.2-50.2,29-50.9,47.5c-0.5,14.8,16.8,26.1,12.5,36.9
			c-3.2,7.9-31.8,16-39.6,29.6c-3.9,6.9-1.2,17.3-9.6,25.8c-5.2,5.2-8.4,7.8-11.3,7.8c-1.8,0-3.5-1-5.4-3.1
			c-5.1-5.4-4.4-10.1-7.4-12.3c-0.4-0.3-0.9-0.4-1.4-0.4c-3.8,0-11.1,6.1-15.8,10.5c-5.4,5.1-14.3,13.3-13.5,17.7
			c1.7,8.6,27.3,14,26.4,32c-0.7,15.2-15.2,15-20.2,22.2c-5.1,7.2,4,16.5,2.4,22.7c-1.7,6.2-14.8,10.8-14.8,20.7
			c0,6.7,13.1,16,15.5,23.6c2.4,7.6,1.5,16.8,6.7,26.3c3.9,7.1,5.1,4,8.1,10.8c3,6.7-1.2,12.3,2.2,14.3c3.4,2,9.8,8.3,18.2,12.6
			c9.6,4.9,14.8,4.9,20.5,8.8c6.9,4.7,8.9,12,15.7,18.4c2.8,2.6,5.5,3.6,8,3.6c3.6,0,7-2,10-4.3c7.1-5.4,10.9-1.7,17.9-6.6
			c8.4-5.9,6.9-13.8,16-16.8c3.7-1.2,6.8-1.7,9.6-1.7c6.9,0,11.4,2.8,15.7,2.8c1.2,0,2.4-0.2,3.6-0.8c7.1-3.2,8.9-5.1,17.2-5.1
			c0.4,0,0.7,0,1.1,0c8.1,0.1,14.3,4.5,20.8,4.5c1.6,0,3.3-0.3,4.9-0.9c8.4-3.4,7.4-8.4,15-11.5c7.6-3,14.3-3.9,20.4-11.5
			c6.1-7.6,3.9-6.1,11.1-11.6c7.2-5.6,11.6-5.4,20-11.3c6.7-4.7,13.1-11.5,20.4-18.9c4.5-4.7,12.6-9.1,17.7-14.3
			c7.2-7.4,13.6-13.1,19-18.2c8.3-7.7,16.8-7.4,18.5-11.1c1.7-3.7,2.5-8.6,1.9-17c-1.9-24.6,3.7-32.8,3.4-39.6
			c-0.3-6.7-4-15.3-3.2-32.7c1-24.2,7.1-27.6,3.4-34.4c-4.7-8.1-26.3-18-26.3-28.1c0-18.4,20.2-17.2,28.3-24.1
			c7.9-6.7,14-17.3,22.6-24.1c5.4-4.2,22.9-12.5,29.1-18.4c6.2-5.9,10.9-12.1,10.1-16.8c-0.8-4.7-3.7-9.9,1.2-12.8
			c4.9-3,8.9-5.2,12.6-9.9c3.7-4.7,6.4-9.3,9.8-10.1c0.2-0.1,0.5-0.1,0.8-0.1c1.7,0,4.2,0.8,7,0.8c3.4,0,7.3-1.3,10.9-6.8
			c7.1-10.9,3.7-27.3-5.2-35.7c-2.9-2.7-0.5-4.9,5.6-4.9c2.6,0,5.9,0.4,9.7,1.4c0.2,0,0.3,0.1,0.5,0.1c3.5,0,4.1-9.6,7.5-9.6
			c0.3,0,0.7,0.1,1.1,0.3c4.5,2.5,1.9,13.3,2.2,21.6c0.3,7.9,2,13.3,3.7,19.5c2,7.4,2.4,9.6,4,16.3c1.7,6.7,3.4,17.7,10.3,25.6
			c6.4,7.4,26.1,13.9,40.8,13.9c4.6,0,8.7-0.6,11.7-2.1c9.9-4.7,15.5-10.9,15.8-42.9c0.2-9.8,3.7-24.9,3.7-34
			c0-9.1-4.9-27.8-4.2-33.7c1-7.9,4-28.1,1-31.8c-5.2-6.4-10.8-1.9-18.7-5.9C557.6,166.5,548.5,158.9,540,158.9L540,158.9z"/>
	</g>
</g>
<g id="small" display="none">
	<g display="inline">
		<path d="M540,164.9c4.4,0,10,3.5,15.1,6.5c2.4,1.4,4.6,2.8,6.8,3.9c4.6,2.3,8.7,2.5,11.6,2.6
			c3.1,0.1,3.8,0.2,4.8,1.3c0.7,2.7,0.2,11.2-1.7,25.1c-0.1,0.9-0.2,1.8-0.3,2.5c0,0,0,0.1,0,0.1c-0.4,3.7,0.5,9.1,2,17.7
			c1,6,2.2,12.7,2.2,16.7c0,4.2-0.9,10.2-1.8,16.1c-0.9,6.2-1.9,12.6-1.9,17.8c-0.2,14.4-1.4,23.7-3.8,29.4
			c-1.9,4.4-4.5,6.3-8.6,8.2c-2,1-5.3,1.5-9.2,1.5c-14.4,0-31.6-6.5-36.3-11.8c-4.9-5.7-6.8-13.6-8.2-19.9c-0.3-1.1-0.5-2.2-0.8-3.2
			c-0.6-2.5-1.1-4.4-1.5-6.2c-0.7-2.9-1.3-5.6-2.6-10.3c-0.2-0.6-0.3-1.3-0.5-1.9c-1.5-5.3-2.7-9.9-3-16.3c-0.1-2.2,0.1-4.7,0.2-7.2
			c0.5-7.4,1-15.8-5.5-19.4c-1.3-0.7-2.7-1.1-4-1.1c-5.6,0-7.8,5.3-9.1,8.4c-0.1,0.2-0.2,0.5-0.3,0.7c-3-0.6-5.7-0.9-8.2-0.9
			c-8.2,0-11.2,3.3-12.3,6c-1.2,3.2-0.2,6.6,2.6,9.3c3.4,3.2,5.9,8.2,6.8,13.5c0.9,5.5,0,10.7-2.5,14.6c-2.6,4.1-4.7,4.1-5.9,4.1
			c-1,0-2.2-0.2-3.3-0.4c-1.2-0.2-2.4-0.4-3.7-0.4c-0.8,0-1.6,0.1-2.3,0.3c-4.8,1.2-7.8,5.2-11,9.5c-0.7,0.9-1.4,1.8-2.1,2.7
			c-2.6,3.4-5.5,5.1-9.5,7.6c-0.5,0.3-1,0.6-1.5,0.9c-7.7,4.6-5.6,12.6-4.6,16.5c0.2,0.9,0.5,1.8,0.6,2.5c0.1,0.8-1.1,4.6-8.3,11.4
			c-3.1,3-10.7,7.2-16.8,10.7c-5,2.8-9.4,5.3-11.9,7.3c-5.1,4-9.2,9-13.1,13.8c-3.2,3.9-6.3,7.7-9.6,10.5c-1.7,1.5-5,2.7-8.5,3.9
			c-8.7,3.2-21.9,8-21.9,24.7c0,9,8.8,15.8,17.4,22.4c3.9,3,8.4,6.4,9.7,8.7c0.6,1.1,0.6,1.7-0.6,6.4c-1.2,4.8-3,12.2-3.6,24.7
			c-0.6,12.4,1,20.7,2.2,26.7c0.5,2.6,0.9,4.8,1,6.5c0.1,1.4-0.4,3.5-1,6.2c-1.5,6.5-3.7,16.3-2.4,33.6c0.6,7.6-0.2,11.2-1.1,13.4
			c-0.6,0.3-1.9,0.8-2.8,1.2c-3.7,1.4-9.2,3.6-14.6,8.7c-1.2,1.1-2.5,2.3-3.8,3.5c-4.6,4.2-9.7,9-15.5,14.9
			c-2.2,2.3-5.4,4.6-8.5,6.8c-3.3,2.4-6.6,4.8-9.2,7.5l-1.6,1.6c-6.5,6.7-12.1,12.5-17.9,16.5c-3.7,2.6-6.4,3.8-9.3,5.1
			c-3.3,1.5-6.7,3.1-11,6.3c-5.6,4.3-6.2,4.9-8.9,8.5c-0.8,1-1.7,2.3-3.2,4.2c-3.7,4.6-7.6,5.9-12.9,7.8c-1.6,0.6-3.3,1.1-5,1.8
			c-5.1,2-7.5,4.9-9.4,7.1c-1.6,1.9-2.7,3.1-5.6,4.3c-0.9,0.3-1.7,0.5-2.7,0.5c-2.2,0-4.6-0.8-7.5-1.8c-3.8-1.2-8.1-2.6-13.2-2.7
			c-0.4,0-0.8,0-1.2,0c-8.1,0-11.5,1.7-16.3,4c-1,0.5-2.1,1-3.4,1.6c-0.4,0.2-0.7,0.2-1.2,0.2c-1.1,0-2.6-0.4-4.4-0.9
			c-3-0.8-6.6-1.9-11.3-1.9c-3.7,0-7.5,0.7-11.5,2c-7.1,2.4-9.9,7.1-12.1,10.9c-1.5,2.6-2.8,4.8-5.5,6.7c-2.1,1.5-3.6,1.7-5.9,2
			c-3,0.4-7.2,0.9-12.1,4.7c-1.7,1.3-4.3,3.1-6.3,3.1c-0.4,0-1.8,0-3.9-2c-2.5-2.4-4.3-5-6.2-7.8c-2.7-3.9-5.4-7.9-10.2-11.2
			c-3.7-2.5-7.1-3.6-10.7-4.9c-3.1-1-6.3-2.1-10.5-4.3c-5-2.6-9.3-6-12.7-8.6c-1.4-1.1-2.5-2-3.6-2.7c0-0.2,0-0.4,0.1-0.6
			c0.3-2.9,0.7-7.2-1.5-12.1c-2-4.3-3.6-6-5.4-7.5c-0.8-0.7-1.5-1.3-2.9-3.8c-2.8-5-3.6-10.3-4.3-15.4c-0.5-3.2-1-6.6-2-9.8
			c-1.5-4.7-5.3-9.1-9-13.3c-2.1-2.4-6-6.9-6.2-8.5c0-2.9,2.6-5.4,6.6-8.9c3.4-2.9,6.8-5.9,8-10.2c1.2-4.5-0.4-8.9-1.9-12.7
			c-1.5-3.9-2.4-6.6-1.3-8.1c1-1.4,3.4-2.7,5.9-4.1c5.9-3.2,14.8-8.1,15.4-21.3c0.7-14.4-10.9-22.1-19.3-27.8c-2.4-1.6-5.9-4-7-5.3
			c1.5-3.1,8.6-9.8,11.1-12.1l0.3-0.3c4.9-4.6,8.2-6.9,10.2-8.1c0,0.1,0.1,0.2,0.1,0.2c0.9,2.4,2.4,6,5.9,9.7c2,2.1,5.2,5,9.8,5
			c5.5,0,10.1-4.1,15.5-9.6c6.6-6.6,7.8-13.9,8.7-19.8c0.5-3,0.9-5.5,1.9-7.2c3.4-6.1,13.6-11.6,21.8-16.1
			c8.9-4.9,15.9-8.7,18.1-14.2c3.4-8.4-1.4-16.1-5.6-22.9c-3.2-5.2-6.6-10.6-6.4-16c0.2-5.7,8.1-15.2,21.1-25.4
			c12.1-9.4,23.9-16,25.8-16.7c4.1-1.5,8.7-1.8,13-2.2c3.6-0.3,6.9-0.5,10-1.4c2.5-0.7,5.5-2.3,8.9-4.2c5.1-2.8,12.1-6.6,16.9-6.6
			c0.4,0,0.7,0,1,0.1c0,0,0.1,0,0.1,0c6.6,0.8,14.3,6.6,20.4,11.2c6.2,4.7,10.7,8,15.3,8c1.6,0,3.1-0.4,4.4-1.2c0,0,0,0,0.1,0
			c7.8-4.8,7.6-23.2,7.1-30.9c-0.1-2-0.4-3.8-0.7-5.3c7.1,0.5,17.1,1.6,26,4.6c0,0,0.1,0,0.1,0c10.8,3.4,34.9,8.7,53.6,8.7
			c4.1,0,7.8-0.3,10.9-0.8c15.5-2.7,20.1-19.4,22.9-29.4c0.6-2.2,1.4-5.1,1.9-5.9c2.1-2.6,5.2-3.2,10.1-3.9c2.3-0.3,4.8-0.7,7.2-1.4
			c4.8-1.5,7.4-5.1,9.8-8.6c2.7-3.9,5.8-8.4,13.4-12.2c5.6-2.9,10.3-3.9,16.4-5.2c2.4-0.5,4.8-1.1,7.6-1.7c7.3-1.8,13.2-7.5,18.9-13
			c3.7-3.5,7.1-6.9,10.5-8.6c2.9-1.6,6-1.7,9.9-1.9c7.9-0.4,17.7-0.9,28-13.7c0.8-1,1.7-2.1,2.5-3.2
			C513.3,175.2,521.1,164.9,540,164.9 M540,158.9c-24.4,0-33.3,15.3-40.9,24.8c-13.6,17-24.9,8.1-36,14.1c-9.4,5.1-17.8,18.5-28,21
			c-10.1,2.5-16.7,3-25.3,7.4c-15.5,7.7-15.5,18.4-22.2,20.4s-15.2,0.7-20.4,7.4c-3.7,4.7-4.7,30.1-21,33c-2.9,0.5-6.2,0.7-9.8,0.7
			c-17,0-40.3-4.9-51.8-8.5c-14.5-4.9-31.3-5.2-36.1-5.2c-0.8,0-1.3,0-1.3,0s3.7,3.2,4.2,12c0.8,13.3-1.2,23.6-4.2,25.4
			c-0.4,0.2-0.8,0.3-1.3,0.3c-6.3,0-20.8-17.5-35-19.2c-0.6-0.1-1.2-0.1-1.8-0.1c-9.7,0-22,9.5-27.5,11.1c-5.9,1.7-15,0.7-23.4,3.7
			c-6.1,2.2-50.2,29-50.9,47.5c-0.5,14.8,16.8,26.1,12.5,36.9c-3.2,7.9-31.8,16-39.6,29.6c-3.9,6.9-1.2,17.3-9.6,25.8
			c-5.2,5.2-8.4,7.8-11.3,7.8c-1.8,0-3.5-1-5.4-3.1c-5.1-5.4-4.4-10.1-7.4-12.3c-0.4-0.3-0.9-0.4-1.4-0.4c-3.8,0-11.1,6.1-15.8,10.5
			c-5.4,5.1-14.3,13.3-13.5,17.7c1.7,8.6,27.3,14,26.4,32c-0.7,15.2-15.2,15-20.2,22.2c-5.1,7.2,4,16.5,2.4,22.7
			c-1.7,6.2-14.8,10.8-14.8,20.7c0,6.7,13.1,16,15.5,23.6c2.4,7.6,1.5,16.8,6.7,26.3c3.9,7.1,5.1,4,8.1,10.8
			c3,6.7-1.2,12.3,2.2,14.3c3.4,2,9.8,8.3,18.2,12.6c9.6,4.9,14.8,4.9,20.5,8.8c6.9,4.7,8.9,12,15.7,18.4c2.8,2.6,5.5,3.6,8,3.6
			c3.6,0,7-2,10-4.3c7.1-5.4,10.9-1.7,17.9-6.6c8.4-5.9,6.9-13.8,16-16.8c3.7-1.2,6.8-1.7,9.6-1.7c6.9,0,11.4,2.8,15.7,2.8
			c1.2,0,2.4-0.2,3.6-0.8c7.1-3.2,8.9-5.1,17.2-5.1c0.4,0,0.7,0,1.1,0c8.1,0.1,14.3,4.5,20.8,4.5c1.6,0,3.3-0.3,4.9-0.9
			c8.4-3.4,7.4-8.4,15-11.5s14.3-3.9,20.4-11.5c6.1-7.6,3.9-6.1,11.1-11.6c7.2-5.6,11.6-5.4,20-11.3c6.7-4.7,13.1-11.5,20.4-18.9
			c4.5-4.7,12.6-9.1,17.7-14.3c7.2-7.4,13.6-13.1,19-18.2c8.3-7.7,16.8-7.4,18.5-11.1c1.7-3.7,2.5-8.6,1.9-17
			c-1.9-24.6,3.7-32.8,3.4-39.6c-0.3-6.7-4-15.3-3.2-32.7c1-24.2,7.1-27.6,3.4-34.4c-4.7-8.1-26.3-18-26.3-28.1
			c0-18.4,20.2-17.2,28.3-24.1c7.9-6.7,14-17.3,22.6-24.1c5.4-4.2,22.9-12.5,29.1-18.4c6.2-5.9,10.9-12.1,10.1-16.8
			c-0.8-4.7-3.7-9.9,1.2-12.8c4.9-3,8.9-5.2,12.6-9.9c3.7-4.7,6.4-9.3,9.8-10.1c0.2-0.1,0.5-0.1,0.8-0.1c1.7,0,4.2,0.8,7,0.8
			c3.4,0,7.3-1.3,10.9-6.8c7.1-10.9,3.7-27.3-5.2-35.7c-2.9-2.7-0.5-4.9,5.6-4.9c2.6,0,5.9,0.4,9.7,1.4c0.2,0,0.3,0.1,0.5,0.1
			c3.5,0,4.1-9.6,7.5-9.6c0.3,0,0.7,0.1,1.1,0.3c4.5,2.5,1.9,13.3,2.2,21.6c0.3,7.9,2,13.3,3.7,19.5c2,7.4,2.4,9.6,4,16.3
			c1.7,6.7,3.4,17.7,10.3,25.6c6.4,7.4,26.1,13.9,40.8,13.9c4.6,0,8.7-0.6,11.7-2.1c9.9-4.7,15.5-10.9,15.8-42.9
			c0.2-9.8,3.7-24.9,3.7-34s-4.9-27.8-4.2-33.7c1-7.9,4-28.1,1-31.8c-5.2-6.4-10.8-1.9-18.7-5.9C557.6,166.5,548.5,158.9,540,158.9
			L540,158.9z"/>
	</g>
</g>
</svg>
