<?xml version="1.0" encoding="utf-8"?>
<!-- Generator: Adobe Illustrator 18.1.0, SVG Export Plug-In . SVG Version: 6.00 Build 0)  -->
<!DOCTYPE svg PUBLIC "-//W3C//DTD SVG 1.1//EN" "http://www.w3.org/Graphics/SVG/1.1/DTD/svg11.dtd">
<svg version="1.1" xmlns="http://www.w3.org/2000/svg" xmlns:xlink="http://www.w3.org/1999/xlink" x="0px" y="0px"
	 viewBox="0 0 221.5 206.5" enable-background="new 0 0 221.5 206.5" xml:space="preserve">
<g id="large" display="none">
	<g display="inline">
		<path d="M112.4,18.9c0.1,0.1,0.2,0.3,0.3,0.4c1.9,2.6,5.1,7,11.2,9.1c3.2,1.2,9.4,4.2,12.6,6.4
			c0,0.2-0.1,0.5-0.2,0.9c-0.3,1.5-0.7,3.5-1,6.1l-0.1,1.1c-0.7,7.2-1.8,17,4.7,24.6c2.8,3.4,7.5,6.7,14.2,11.5
			c2.3,1.7,4.8,3.4,6.1,4.4c0.6,0.5,1.7,1.9,2.5,3.1c2.8,3.7,6.6,8.8,13.4,11.7c0.7,0.3,1.4,0.6,2,0.8c2.7,1.1,2.7,1.1,6.2,3.6
			c1.7,1.2,2.1,1.6,3,2.6c1,1,2.3,2.4,4.4,4.2c2.9,2.5,5.4,3.9,7.2,4.9c1.3,0.7,1.7,1,2,1.3c0.1,0.1,0.1,0.2,0.2,0.3
			c0.3,0.5,0.6,1.1,1,1.8c-1.7,2.5-3,5.5-3.3,9.3c-0.2,2.5-0.7,14.8,1.2,25.4c-0.2,0.6-0.6,1.4-0.9,2.1c-1.5,3.5-3.7,8.7-3,15.3
			c0.1,0.9,0.2,1.8,0.4,2.6c-1.8,1.1-4.1,2.3-6.6,3.3c-5.5,2.3-11.2,7.3-18.5,14.2c-1.7-0.8-3.7-1.4-6-1.5c-1.6-0.1-3.2-0.2-4.7-0.2
			c-5.2,0-8.9,0.7-11.6,1.2c-1.9,0.4-2.9,0.5-4.1,0.5c-0.6,0-1.2,0-1.8-0.1c-3.1-0.4-7.1-1.6-10.9-2.8c-5.3-1.6-10.8-3.3-16.3-3.7
			c-1.9-0.1-3.5-0.2-5-0.2c-4.2-0.2-6-0.2-9.2-1.6c-3.3-1.4-6.6-2.2-10.6-3.2c-7.4-1.8-16.6-4-29.6-11.5c-2-1.1-5.5-3.2-7.6-4.6
			c0-0.1,0.1-0.1,0.1-0.2c1.2-3.3,3.1-8.3,2.6-16.4c-0.2-2.9-0.4-5-0.5-6.7c-0.3-3.8-0.4-5.2-0.1-9.8c0.1-1.6,0.5-3.3,0.9-5.2
			c1.2-5.4,3.1-13.6-1.9-22.4c-6.5-11.6-13-14.6-19.6-17c-1.9-0.7-3.1-1.1-4.5-2.1c-2.4-1.7-2.7-2.2-2.9-2.5c-2-2.8-4.2-5-9.3-7.7
			c-2-1.1-3.7-1.8-5-2.3c-0.2-0.5-0.4-1.2-0.6-2.2c-0.9-3.8-0.6-4.9,0.2-7.7c0.8-2.6,1.8-6.1,1.9-10.9c0.7,0,1.5,0,2.3,0
			c3,0,6.2-0.1,9.4-0.3c3-0.1,5.7-0.2,8.1-0.2c2.6,0,3.6,0.1,3.8,0.2c1.3,0.2,3,0.7,4.8,1.2c4.5,1.2,10.1,2.7,16.9,2.7
			c1.8,0,3.6-0.1,5.3-0.3c8.1-1,11.6-3.9,14.8-7c1-1,1.8-1.8,3.8-3.1c8.1-5.1,9.1-5.9,15.9-12l2.2-2C107.1,25,110.1,21.7,112.4,18.9
			 M115.1,0c-6.7,0-8.6,8.1-20.5,18.7c-8.6,7.6-8.2,7.6-16.5,12.7c-8,5-6,7.3-13.3,8.2c-1.3,0.2-2.6,0.2-3.8,0.2
			c-7.7,0-13.8-2.7-19.5-3.7c-1.6-0.3-3.7-0.4-6.1-0.4c-5.3,0-12,0.5-17.5,0.5c-2,0-3.7-0.1-5.3-0.2c-4.4-0.5-5.7-1.3-7.2-1.3
			c-0.3,0-0.7,0-1.1,0.2c-2,0.6-1.7,6.1-1.8,14.1c-0.1,8.1-4.6,10.3-1.8,21.9c2.8,11.7,5.2,9.1,12,12.8c6.8,3.7,2.5,3.4,10.8,9.3
			c8.2,6,13.1,2.2,20.3,15c3.8,6.7-0.1,12.4-0.7,20.3c-0.6,8,0,8.9,0.6,18.2c0.6,9.4-3.1,11.5-3.1,17.2c0,5.7,3.4,8.1,14.6,14.5
			c21.1,12.3,34.4,12.2,41.5,15.3s11.3,2.4,18.4,2.9c7.8,0.6,17.7,5.3,26.5,6.4c1.3,0.2,2.4,0.2,3.5,0.2c5.3,0,8.3-1.8,15.6-1.8
			c1.1,0,2.4,0,3.8,0.1c3.6,0.3,5.2,4.9,7.5,4.9c0.2,0,0.4,0,0.6-0.1c2.6-0.9,15.9-15.7,22.4-18.4c8.3-3.5,15.5-8.6,17.2-11.1
			c1.7-2.6-2.5-3.7-3-8.2c-0.7-6.6,5.1-11.5,3.9-17.7c-1.8-8.7-1.5-19.9-1.2-22.5c0.5-5.2,6.5-7.4,9-9.1c2-1.4-0.6-3.6-4.9-5.8
			c-3.6-1.9-2.6-3.7-5.7-6.8c-3.1-3.1-6-3.5-10-6.9c-4-3.4-3.8-4.4-8.4-7.6c-5.3-3.8-4.6-3.2-10.6-5.8c-6-2.6-8.3-9.3-12.9-13
			c-4.5-3.7-15.4-10.5-18.6-14.2s-2.2-10.4-1.6-16.1c0.6-5.7,2.1-7.6,1-13c-1.1-5.4-17-12.5-20.9-13.9c-4-1.4-5-5.5-8.5-8.4
			c-3.4-2.8-1.7-7.7-4.4-7.8C115.3,0,115.2,0,115.1,0L115.1,0z"/>
	</g>
</g>
<g id="small">
	<g>
		<path d="M112.6,7.8c0.7,1.5,1.7,3.2,3.4,4.7c0.8,0.7,1.5,1.6,2.3,2.7c1.6,2.2,3.8,5.2,8,6.7
			c5.4,1.9,15.4,7.2,17.2,9.8c0.4,2.1,0.2,3.2-0.3,5.5c-0.3,1.4-0.6,3.2-0.9,5.4l-0.1,1.1c-0.6,6.2-1.4,14,3.1,19.4
			c2.3,2.7,6.6,5.9,12.9,10.3c2.5,1.8,5,3.5,6.4,4.7c1.2,1,2.5,2.6,3.7,4.4c2.4,3.3,5.5,7.3,10.5,9.5c0.7,0.3,1.4,0.6,1.9,0.8
			c3.4,1.4,3.4,1.4,7.5,4.4c2.2,1.6,3,2.4,4.1,3.5c0.9,0.9,2,2.1,3.9,3.7c2.4,2,4.4,3.2,6.1,4.1c1.5,0.9,2.5,1.4,3.6,2.5
			c0.7,0.7,1,1.2,1.4,2c0.7,1.3,1.7,3.3,4.3,5.1c-2.7,2.1-5.4,5.2-5.9,9.9c-0.3,3.2-0.6,15,1.3,24.2c0.3,1.3-0.4,2.9-1.5,5.4
			c-1.3,3.1-3,7-2.5,11.8c0.3,2.5,1.2,4.5,2.1,5.9c-2.4,1.9-6.9,4.9-12.6,7.2c-4.5,1.9-10.2,7-17,13.4c-1.1,1-2.3,2.2-3.4,3.2
			c-1.6-1.5-3.9-3.2-7.2-3.5c-1.4-0.1-2.9-0.2-4.2-0.2c-4.5,0-7.7,0.6-10.2,1.1c-2,0.4-3.5,0.7-5.4,0.7c-0.9,0-1.8-0.1-2.7-0.2
			c-3.7-0.5-8-1.8-12.1-3.1c-4.9-1.5-10-3.1-14.7-3.4c-1.7-0.1-3.3-0.2-4.7-0.2c-4.4-0.2-7.3-0.3-11.7-2.2c-2.7-1.2-5.8-1.9-9.4-2.8
			c-7.4-1.8-17.6-4.2-31.5-12.3c-11-6.4-11.6-7.4-11.6-9.3c0-1.3,0.3-2.2,1-4c1.1-2.9,2.5-6.9,2.1-13.6c-0.2-2.8-0.3-4.9-0.5-6.6
			c-0.3-3.9-0.5-5.7-0.1-10.9c0.2-2.1,0.6-4.2,1.1-6.3c1.2-5.1,2.5-10.9-1.2-17.4c-5.4-9.5-10.1-11.8-15.8-13.9
			c-2.1-0.8-4-1.4-6.2-3c-3.3-2.4-3.9-3.3-4.5-4.1c-1.5-2.1-2.9-3.5-6.9-5.6c-2-1.1-3.7-1.7-5-2.2c-1.2-0.5-1.8-0.7-2-0.9
			c-0.3-0.3-1-1.6-2.1-5.8c-1.4-5.7-0.7-8,0.3-11.3c0.7-2.3,1.6-5.2,1.6-9.1c0-1.1,0-2.1,0-3.1c0-1.4,0-3,0.1-4.4
			c0.9,0.2,2,0.3,3.3,0.5c1.6,0.2,3.6,0.3,5.9,0.3c2.9,0,6-0.1,9.1-0.3c2.9-0.1,5.9-0.2,8.4-0.2c2.2,0,3.9,0.1,5,0.3
			c1.6,0.3,3.5,0.8,5.4,1.3c4.3,1.2,9.2,2.5,15.1,2.5c1.5,0,3-0.1,4.5-0.3c6-0.7,8.1-2.5,10.7-5c1.1-1.1,2.4-2.3,5-4
			c7.7-4.8,8.3-5.4,15-11.3l2.3-2c5.3-4.7,8.8-9,11.3-12.2C111,9.7,111.9,8.6,112.6,7.8 M115.1,0c-6.7,0-8.6,8.1-20.5,18.7
			c-8.6,7.6-8.2,7.6-16.5,12.7c-8,5-6,7.3-13.3,8.2c-1.3,0.2-2.6,0.2-3.8,0.2c-7.7,0-13.8-2.7-19.5-3.7c-1.6-0.3-3.7-0.4-6.1-0.4
			c-5.3,0-12,0.5-17.5,0.5c-2,0-3.7-0.1-5.3-0.2c-4.4-0.5-5.7-1.3-7.2-1.3c-0.3,0-0.7,0-1.1,0.2c-2,0.6-1.7,6.1-1.8,14.1
			c-0.1,8.1-4.6,10.3-1.8,21.9c2.8,11.7,5.2,9.1,12,12.8c6.8,3.7,2.5,3.4,10.8,9.3c8.2,6,13.1,2.2,20.3,15
			c3.8,6.7-0.1,12.4-0.7,20.3c-0.6,8,0,8.9,0.6,18.2c0.6,9.4-3.1,11.5-3.1,17.2s3.4,8.1,14.6,14.5c21.1,12.3,34.4,12.2,41.5,15.3
			c7.1,3.1,11.3,2.4,18.4,2.9c7.8,0.6,17.7,5.3,26.5,6.4c1.3,0.2,2.4,0.2,3.5,0.2c5.3,0,8.3-1.8,15.6-1.8c1.1,0,2.4,0,3.8,0.1
			c3.6,0.3,5.2,4.9,7.5,4.9c0.2,0,0.4,0,0.6-0.1c2.6-0.9,15.9-15.7,22.4-18.4c8.3-3.5,15.5-8.6,17.2-11.1c1.7-2.6-2.5-3.7-3-8.2
			c-0.7-6.6,5.1-11.5,3.9-17.7c-1.8-8.7-1.5-19.9-1.2-22.5c0.5-5.2,6.5-7.4,9-9.1c2-1.4-0.6-3.6-4.9-5.8c-3.6-1.9-2.6-3.7-5.7-6.8
			c-3.1-3.1-6-3.5-10-6.9c-4-3.4-3.8-4.4-8.4-7.6c-5.3-3.8-4.6-3.2-10.6-5.8c-6-2.6-8.3-9.3-12.9-13c-4.5-3.7-15.4-10.5-18.6-14.2
			c-3.1-3.7-2.2-10.4-1.6-16.1c0.6-5.7,2.1-7.6,1-13c-1.1-5.4-17-12.5-20.9-13.9s-5-5.5-8.5-8.4c-3.4-2.8-1.7-7.7-4.4-7.8
			C115.3,0,115.2,0,115.1,0L115.1,0z"/>
	</g>
</g>
</svg>
