<?xml version="1.0" encoding="utf-8"?>
<!-- Generator: Adobe Illustrator 18.1.0, SVG Export Plug-In . SVG Version: 6.00 Build 0)  -->
<!DOCTYPE svg PUBLIC "-//W3C//DTD SVG 1.1//EN" "http://www.w3.org/Graphics/SVG/1.1/DTD/svg11.dtd">
<svg version="1.1" id="contyr" xmlns="http://www.w3.org/2000/svg" xmlns:xlink="http://www.w3.org/1999/xlink" x="0px" y="0px"
	 viewBox="0 328.8 595.3 513.1" enable-background="new 0 328.8 595.3 513.1" xml:space="preserve">
<g>
	<path d="M592.9,641c-1.2-17.9-6.6-24.8-4.2-41.3c4.4-28.3,9.6-36.1,4.7-75c-2.7-21.1-18.9-47.7-29.7-57.5
		c-15.5-13.8-32.7-11.3-49.6-27.8c-16.5-16-17.9-25.8-32.2-38.8c-14.3-13-60-32.7-75.7-43c-12.3-7.9-10.3-17.2-22.1-24.8
		c-8.1-5.2-17.9,1-37.9,1.2c-16,0.2-28.3-2.9-38.3-2.9c-10.1,0-17.7,6.6-34.7,3.4c-16.5-3.2-32.4-9.8-48.7-2.2
		c-12.8,6.1-8.4,20.9-25.8,32.7c-10.6,7.1-35.4,19.7-47.2,29.5c-11.8,9.8-27.8,27.3-39.1,37.9c-10.1,9.3-25.8,15-44.7,29.2
		c-13.8,10.3-39.1,35.4-46.2,40.8c-5.7,4.2-11.1,1-11.1,1s0.5,34.7,0.7,53.6c0,18.2-13.8,28.5-10.8,86c1.2,24.6,22.1,26.1,41.3,43
		c13.5,12,16.7,19.9,31,29.5c16.2,11.1,24.6,13.5,40.1,24.6c11.1,7.9,23.1,26.5,39.3,37.1s58.2,33.9,68.3,47.7
		c3.9,5.4-2.5,17-2.5,17s32.7-11.6,48.2-10.6c22.6,1.2,37.1,9.6,53.6,8.1c9.3-0.7,53.1-49.6,80.4-60.5
		c25.6-10.1,55.3-32.4,66.6-41.8c11.3-9.3,11.6-23.8,25.8-30.5c22.9-10.6,40.3-1.2,58-2.5c19.4-1.2,43.5-2.5,43.5-2.5
		s-3.7-4.9-4.4-21.6C588.5,663.4,593.9,655.3,592.9,641z"/>
</g>
</svg>
